%TF.GenerationSoftware,KiCad,Pcbnew,5.1.10*%
%TF.CreationDate,2021-10-06T18:26:39+02:00*%
%TF.ProjectId,ortho-qaz,6f727468-6f2d-4716-917a-2e6b69636164,rev?*%
%TF.SameCoordinates,Original*%
%TF.FileFunction,Soldermask,Top*%
%TF.FilePolarity,Negative*%
%FSLAX46Y46*%
G04 Gerber Fmt 4.6, Leading zero omitted, Abs format (unit mm)*
G04 Created by KiCad (PCBNEW 5.1.10) date 2021-10-06 18:26:39*
%MOMM*%
%LPD*%
G01*
G04 APERTURE LIST*
%ADD10C,3.048000*%
%ADD11C,3.987800*%
%ADD12C,1.701800*%
%ADD13C,2.286000*%
%ADD14C,3.000000*%
%ADD15O,1.000000X2.100000*%
%ADD16C,0.650000*%
%ADD17O,1.000000X1.600000*%
G04 APERTURE END LIST*
D10*
%TO.C,REF\u002A\u002A*%
X139565000Y-99465000D03*
X115765000Y-99465000D03*
D11*
X139565000Y-84225000D03*
X115765000Y-84225000D03*
%TD*%
D12*
%TO.C,K26*%
X170210000Y-73430000D03*
X180370000Y-73430000D03*
D13*
X171480000Y-70890000D03*
D11*
X175290000Y-73430000D03*
D13*
X177830000Y-68350000D03*
D14*
X179100000Y-75970000D03*
X172750000Y-78510000D03*
%TD*%
D10*
%TO.C,REF\u002A\u002A*%
X177665000Y-99465000D03*
X153865000Y-99465000D03*
D11*
X177665000Y-84225000D03*
X153865000Y-84225000D03*
%TD*%
D12*
%TO.C,K24*%
X132110000Y-73430000D03*
X142270000Y-73430000D03*
D13*
X133380000Y-70890000D03*
D11*
X137190000Y-73430000D03*
D13*
X139730000Y-68350000D03*
D14*
X141000000Y-75970000D03*
X134650000Y-78510000D03*
%TD*%
D12*
%TO.C,K39*%
X227360000Y-92460000D03*
X237520000Y-92460000D03*
D13*
X228630000Y-89920000D03*
D11*
X232440000Y-92460000D03*
D13*
X234980000Y-87380000D03*
D14*
X236250000Y-95000000D03*
X229900000Y-97540000D03*
%TD*%
D12*
%TO.C,K38*%
X208310000Y-92480000D03*
X218470000Y-92480000D03*
D13*
X209580000Y-89940000D03*
D11*
X213390000Y-92480000D03*
D13*
X215930000Y-87400000D03*
D14*
X217200000Y-95020000D03*
X210850000Y-97560000D03*
%TD*%
D12*
%TO.C,K37*%
X189260000Y-92480000D03*
X199420000Y-92480000D03*
D13*
X190530000Y-89940000D03*
D11*
X194340000Y-92480000D03*
D13*
X196880000Y-87400000D03*
D14*
X198150000Y-95020000D03*
X191800000Y-97560000D03*
%TD*%
D12*
%TO.C,K35*%
X160685000Y-92480000D03*
X170845000Y-92480000D03*
D13*
X161955000Y-89940000D03*
D11*
X165765000Y-92480000D03*
D13*
X168305000Y-87400000D03*
D14*
X169575000Y-95020000D03*
X163225000Y-97560000D03*
%TD*%
D12*
%TO.C,K33*%
X122585000Y-92480000D03*
X132745000Y-92480000D03*
D13*
X123855000Y-89940000D03*
D11*
X127665000Y-92480000D03*
D13*
X130205000Y-87400000D03*
D14*
X131475000Y-95020000D03*
X125125000Y-97560000D03*
%TD*%
D12*
%TO.C,K32*%
X94010000Y-92480000D03*
X104170000Y-92480000D03*
D13*
X95280000Y-89940000D03*
D11*
X99090000Y-92480000D03*
D13*
X101630000Y-87400000D03*
D14*
X102900000Y-95020000D03*
X96550000Y-97560000D03*
%TD*%
D12*
%TO.C,K31*%
X74960000Y-92480000D03*
X85120000Y-92480000D03*
D13*
X76230000Y-89940000D03*
D11*
X80040000Y-92480000D03*
D13*
X82580000Y-87400000D03*
D14*
X83850000Y-95020000D03*
X77500000Y-97560000D03*
%TD*%
D12*
%TO.C,K30*%
X55910000Y-92480000D03*
X66070000Y-92480000D03*
D13*
X57180000Y-89940000D03*
D11*
X60990000Y-92480000D03*
D13*
X63530000Y-87400000D03*
D14*
X64800000Y-95020000D03*
X58450000Y-97560000D03*
%TD*%
D12*
%TO.C,K29*%
X227360000Y-73430000D03*
X237520000Y-73430000D03*
D13*
X228630000Y-70890000D03*
D11*
X232440000Y-73430000D03*
D13*
X234980000Y-68350000D03*
D14*
X236250000Y-75970000D03*
X229900000Y-78510000D03*
%TD*%
D12*
%TO.C,K28*%
X208310000Y-73430000D03*
X218470000Y-73430000D03*
D13*
X209580000Y-70890000D03*
D11*
X213390000Y-73430000D03*
D13*
X215930000Y-68350000D03*
D14*
X217200000Y-75970000D03*
X210850000Y-78510000D03*
%TD*%
D12*
%TO.C,K27*%
X189260000Y-73430000D03*
X199420000Y-73430000D03*
D13*
X190530000Y-70890000D03*
D11*
X194340000Y-73430000D03*
D13*
X196880000Y-68350000D03*
D14*
X198150000Y-75970000D03*
X191800000Y-78510000D03*
%TD*%
D12*
%TO.C,K25*%
X151160000Y-73430000D03*
X161320000Y-73430000D03*
D13*
X152430000Y-70890000D03*
D11*
X156240000Y-73430000D03*
D13*
X158780000Y-68350000D03*
D14*
X160050000Y-75970000D03*
X153700000Y-78510000D03*
%TD*%
D12*
%TO.C,K23*%
X113060000Y-73430000D03*
X123220000Y-73430000D03*
D13*
X114330000Y-70890000D03*
D11*
X118140000Y-73430000D03*
D13*
X120680000Y-68350000D03*
D14*
X121950000Y-75970000D03*
X115600000Y-78510000D03*
%TD*%
D12*
%TO.C,K22*%
X94010000Y-73430000D03*
X104170000Y-73430000D03*
D13*
X95280000Y-70890000D03*
D11*
X99090000Y-73430000D03*
D13*
X101630000Y-68350000D03*
D14*
X102900000Y-75970000D03*
X96550000Y-78510000D03*
%TD*%
D12*
%TO.C,K21*%
X74960000Y-73430000D03*
X85120000Y-73430000D03*
D13*
X76230000Y-70890000D03*
D11*
X80040000Y-73430000D03*
D13*
X82580000Y-68350000D03*
D14*
X83850000Y-75970000D03*
X77500000Y-78510000D03*
%TD*%
D12*
%TO.C,K20*%
X55910000Y-73430000D03*
X66070000Y-73430000D03*
D13*
X57180000Y-70890000D03*
D11*
X60990000Y-73430000D03*
D13*
X63530000Y-68350000D03*
D14*
X64800000Y-75970000D03*
X58450000Y-78510000D03*
%TD*%
D12*
%TO.C,K19*%
X227360000Y-54380000D03*
X237520000Y-54380000D03*
D13*
X228630000Y-51840000D03*
D11*
X232440000Y-54380000D03*
D13*
X234980000Y-49300000D03*
D14*
X236250000Y-56920000D03*
X229900000Y-59460000D03*
%TD*%
D12*
%TO.C,K18*%
X208310000Y-54380000D03*
X218470000Y-54380000D03*
D13*
X209580000Y-51840000D03*
D11*
X213390000Y-54380000D03*
D13*
X215930000Y-49300000D03*
D14*
X217200000Y-56920000D03*
X210850000Y-59460000D03*
%TD*%
D12*
%TO.C,K17*%
X189260000Y-54380000D03*
X199420000Y-54380000D03*
D13*
X190530000Y-51840000D03*
D11*
X194340000Y-54380000D03*
D13*
X196880000Y-49300000D03*
D14*
X198150000Y-56920000D03*
X191800000Y-59460000D03*
%TD*%
D12*
%TO.C,K16*%
X170210000Y-54380000D03*
X180370000Y-54380000D03*
D13*
X171480000Y-51840000D03*
D11*
X175290000Y-54380000D03*
D13*
X177830000Y-49300000D03*
D14*
X179100000Y-56920000D03*
X172750000Y-59460000D03*
%TD*%
D12*
%TO.C,K15*%
X151160000Y-54380000D03*
X161320000Y-54380000D03*
D13*
X152430000Y-51840000D03*
D11*
X156240000Y-54380000D03*
D13*
X158780000Y-49300000D03*
D14*
X160050000Y-56920000D03*
X153700000Y-59460000D03*
%TD*%
D12*
%TO.C,K14*%
X132110000Y-54380000D03*
X142270000Y-54380000D03*
D13*
X133380000Y-51840000D03*
D11*
X137190000Y-54380000D03*
D13*
X139730000Y-49300000D03*
D14*
X141000000Y-56920000D03*
X134650000Y-59460000D03*
%TD*%
D12*
%TO.C,K13*%
X113060000Y-54380000D03*
X123220000Y-54380000D03*
D13*
X114330000Y-51840000D03*
D11*
X118140000Y-54380000D03*
D13*
X120680000Y-49300000D03*
D14*
X121950000Y-56920000D03*
X115600000Y-59460000D03*
%TD*%
D12*
%TO.C,K12*%
X94010000Y-54380000D03*
X104170000Y-54380000D03*
D13*
X95280000Y-51840000D03*
D11*
X99090000Y-54380000D03*
D13*
X101630000Y-49300000D03*
D14*
X102900000Y-56920000D03*
X96550000Y-59460000D03*
%TD*%
D12*
%TO.C,K11*%
X74960000Y-54380000D03*
X85120000Y-54380000D03*
D13*
X76230000Y-51840000D03*
D11*
X80040000Y-54380000D03*
D13*
X82580000Y-49300000D03*
D14*
X83850000Y-56920000D03*
X77500000Y-59460000D03*
%TD*%
D12*
%TO.C,K10*%
X55910000Y-54380000D03*
X66070000Y-54380000D03*
D13*
X57180000Y-51840000D03*
D11*
X60990000Y-54380000D03*
D13*
X63530000Y-49300000D03*
D14*
X64800000Y-56920000D03*
X58450000Y-59460000D03*
%TD*%
D12*
%TO.C,K9*%
X227360000Y-35330000D03*
X237520000Y-35330000D03*
D13*
X228630000Y-32790000D03*
D11*
X232440000Y-35330000D03*
D13*
X234980000Y-30250000D03*
D14*
X236250000Y-37870000D03*
X229900000Y-40410000D03*
%TD*%
D12*
%TO.C,K8*%
X208310000Y-35330000D03*
X218470000Y-35330000D03*
D13*
X209580000Y-32790000D03*
D11*
X213390000Y-35330000D03*
D13*
X215930000Y-30250000D03*
D14*
X217200000Y-37870000D03*
X210850000Y-40410000D03*
%TD*%
D12*
%TO.C,K7*%
X189260000Y-35330000D03*
X199420000Y-35330000D03*
D13*
X190530000Y-32790000D03*
D11*
X194340000Y-35330000D03*
D13*
X196880000Y-30250000D03*
D14*
X198150000Y-37870000D03*
X191800000Y-40410000D03*
%TD*%
D12*
%TO.C,K6*%
X170210000Y-35330000D03*
X180370000Y-35330000D03*
D13*
X171480000Y-32790000D03*
D11*
X175290000Y-35330000D03*
D13*
X177830000Y-30250000D03*
D14*
X179100000Y-37870000D03*
X172750000Y-40410000D03*
%TD*%
D12*
%TO.C,K5*%
X151160000Y-35330000D03*
X161320000Y-35330000D03*
D13*
X152430000Y-32790000D03*
D11*
X156240000Y-35330000D03*
D13*
X158780000Y-30250000D03*
D14*
X160050000Y-37870000D03*
X153700000Y-40410000D03*
%TD*%
D12*
%TO.C,K4*%
X132110000Y-35330000D03*
X142270000Y-35330000D03*
D13*
X133380000Y-32790000D03*
D11*
X137190000Y-35330000D03*
D13*
X139730000Y-30250000D03*
D14*
X141000000Y-37870000D03*
X134650000Y-40410000D03*
%TD*%
D12*
%TO.C,K3*%
X113060000Y-35330000D03*
X123220000Y-35330000D03*
D13*
X114330000Y-32790000D03*
D11*
X118140000Y-35330000D03*
D13*
X120680000Y-30250000D03*
D14*
X121950000Y-37870000D03*
X115600000Y-40410000D03*
%TD*%
D12*
%TO.C,K2*%
X94010000Y-35330000D03*
X104170000Y-35330000D03*
D13*
X95280000Y-32790000D03*
D11*
X99090000Y-35330000D03*
D13*
X101630000Y-30250000D03*
D14*
X102900000Y-37870000D03*
X96550000Y-40410000D03*
%TD*%
D12*
%TO.C,K1*%
X74960000Y-35330000D03*
X85120000Y-35330000D03*
D13*
X76230000Y-32790000D03*
D11*
X80040000Y-35330000D03*
D13*
X82580000Y-30250000D03*
D14*
X83850000Y-37870000D03*
X77500000Y-40410000D03*
%TD*%
D12*
%TO.C,K0*%
X55910000Y-35330000D03*
X66070000Y-35330000D03*
D13*
X57180000Y-32790000D03*
D11*
X60990000Y-35330000D03*
D13*
X63530000Y-30250000D03*
D14*
X64800000Y-37870000D03*
X58450000Y-40410000D03*
%TD*%
D15*
%TO.C,J1*%
X151035000Y-24172500D03*
X142395000Y-24172500D03*
D16*
X143825000Y-23642500D03*
D17*
X142395000Y-19992500D03*
D16*
X149605000Y-23642500D03*
D17*
X151035000Y-19992500D03*
%TD*%
M02*
