M48
; DRILL file {KiCad 5.1.10} date Wed Oct  6 18:26:41 2021
; FORMAT={-:-/ absolute / inch / decimal}
; #@! TF.CreationDate,2021-10-06T18:26:41+02:00
; #@! TF.GenerationSoftware,Kicad,Pcbnew,5.1.10
; #@! TF.FileFunction,NonPlated,1,2,NPTH
FMAT,2
INCH
T1C0.0256
T2C0.0670
T3C0.1181
T4C0.1200
T5C0.1570
%
G90
G05
T1
X5.6624Y-0.9308
X5.89Y-0.9308
T2
X2.2012Y-1.3909
X2.2012Y-2.1409
X2.2012Y-2.8909
X2.2012Y-3.6409
X2.6012Y-1.3909
X2.6012Y-2.1409
X2.6012Y-2.8909
X2.6012Y-3.6409
X2.9512Y-1.3909
X2.9512Y-2.1409
X2.9512Y-2.8909
X2.9512Y-3.6409
X3.3512Y-1.3909
X3.3512Y-2.1409
X3.3512Y-2.8909
X3.3512Y-3.6409
X3.7012Y-1.3909
X3.7012Y-2.1409
X3.7012Y-2.8909
X3.7012Y-3.6409
X4.1012Y-1.3909
X4.1012Y-2.1409
X4.1012Y-2.8909
X4.1012Y-3.6409
X4.4512Y-1.3909
X4.4512Y-2.1409
X4.4512Y-2.8909
X4.8262Y-3.6409
X4.8512Y-1.3909
X4.8512Y-2.1409
X4.8512Y-2.8909
X5.2012Y-1.3909
X5.2012Y-2.1409
X5.2012Y-2.8909
X5.2262Y-3.6409
X5.6012Y-1.3909
X5.6012Y-2.1409
X5.6012Y-2.8909
X5.9512Y-1.3909
X5.9512Y-2.1409
X5.9512Y-2.8909
X6.3262Y-3.6409
X6.3512Y-1.3909
X6.3512Y-2.1409
X6.3512Y-2.8909
X6.7012Y-1.3909
X6.7012Y-2.1409
X6.7012Y-2.8909
X6.7262Y-3.6409
X7.1012Y-1.3909
X7.1012Y-2.1409
X7.1012Y-2.8909
X7.4512Y-1.3909
X7.4512Y-2.1409
X7.4512Y-2.8909
X7.4512Y-3.6409
X7.8512Y-1.3909
X7.8512Y-2.1409
X7.8512Y-2.8909
X7.8512Y-3.6409
X8.2012Y-1.3909
X8.2012Y-2.1409
X8.2012Y-2.8909
X8.2012Y-3.6409
X8.6012Y-1.3909
X8.6012Y-2.1409
X8.6012Y-2.8909
X8.6012Y-3.6409
X8.9512Y-1.3909
X8.9512Y-2.1409
X8.9512Y-2.8909
X8.9512Y-3.6402
X9.3512Y-1.3909
X9.3512Y-2.1409
X9.3512Y-2.8909
X9.3512Y-3.6402
T3
X2.3012Y-1.5909
X2.3012Y-2.3409
X2.3012Y-3.0909
X2.3012Y-3.8409
X2.5512Y-1.4909
X2.5512Y-2.2409
X2.5512Y-2.9909
X2.5512Y-3.7409
X3.0512Y-1.5909
X3.0512Y-2.3409
X3.0512Y-3.0909
X3.0512Y-3.8409
X3.3012Y-1.4909
X3.3012Y-2.2409
X3.3012Y-2.9909
X3.3012Y-3.7409
X3.8012Y-1.5909
X3.8012Y-2.3409
X3.8012Y-3.0909
X3.8012Y-3.8409
X4.0512Y-1.4909
X4.0512Y-2.2409
X4.0512Y-2.9909
X4.0512Y-3.7409
X4.5512Y-1.5909
X4.5512Y-2.3409
X4.5512Y-3.0909
X4.8012Y-1.4909
X4.8012Y-2.2409
X4.8012Y-2.9909
X4.9262Y-3.8409
X5.1762Y-3.7409
X5.3012Y-1.5909
X5.3012Y-2.3409
X5.3012Y-3.0909
X5.5512Y-1.4909
X5.5512Y-2.2409
X5.5512Y-2.9909
X6.0512Y-1.5909
X6.0512Y-2.3409
X6.0512Y-3.0909
X6.3012Y-1.4909
X6.3012Y-2.2409
X6.3012Y-2.9909
X6.4262Y-3.8409
X6.6762Y-3.7409
X6.8012Y-1.5909
X6.8012Y-2.3409
X6.8012Y-3.0909
X7.0512Y-1.4909
X7.0512Y-2.2409
X7.0512Y-2.9909
X7.5512Y-1.5909
X7.5512Y-2.3409
X7.5512Y-3.0909
X7.5512Y-3.8409
X7.8012Y-1.4909
X7.8012Y-2.2409
X7.8012Y-2.9909
X7.8012Y-3.7409
X8.3012Y-1.5909
X8.3012Y-2.3409
X8.3012Y-3.0909
X8.3012Y-3.8409
X8.5512Y-1.4909
X8.5512Y-2.2409
X8.5512Y-2.9909
X8.5512Y-3.7409
X9.0512Y-1.5909
X9.0512Y-2.3409
X9.0512Y-3.0909
X9.0512Y-3.8402
X9.3012Y-1.4909
X9.3012Y-2.2409
X9.3012Y-2.9909
X9.3012Y-3.7402
T4
X4.5577Y-3.9159
X5.4947Y-3.9159
X6.0577Y-3.9159
X6.9947Y-3.9159
T5
X2.4012Y-1.3909
X2.4012Y-2.1409
X2.4012Y-2.8909
X2.4012Y-3.6409
X3.1512Y-1.3909
X3.1512Y-2.1409
X3.1512Y-2.8909
X3.1512Y-3.6409
X3.9012Y-1.3909
X3.9012Y-2.1409
X3.9012Y-2.8909
X3.9012Y-3.6409
X4.5577Y-3.3159
X4.6512Y-1.3909
X4.6512Y-2.1409
X4.6512Y-2.8909
X5.0262Y-3.6409
X5.4012Y-1.3909
X5.4012Y-2.1409
X5.4012Y-2.8909
X5.4947Y-3.3159
X6.0577Y-3.3159
X6.1512Y-1.3909
X6.1512Y-2.1409
X6.1512Y-2.8909
X6.5262Y-3.6409
X6.9012Y-1.3909
X6.9012Y-2.1409
X6.9012Y-2.8909
X6.9947Y-3.3159
X7.6512Y-1.3909
X7.6512Y-2.1409
X7.6512Y-2.8909
X7.6512Y-3.6409
X8.4012Y-1.3909
X8.4012Y-2.1409
X8.4012Y-2.8909
X8.4012Y-3.6409
X9.1512Y-1.3909
X9.1512Y-2.1409
X9.1512Y-2.8909
X9.1512Y-3.6402
T0
M30
