%TF.GenerationSoftware,KiCad,Pcbnew,5.1.10*%
%TF.CreationDate,2021-10-06T18:26:39+02:00*%
%TF.ProjectId,ortho-qaz,6f727468-6f2d-4716-917a-2e6b69636164,rev?*%
%TF.SameCoordinates,Original*%
%TF.FileFunction,Paste,Bot*%
%TF.FilePolarity,Positive*%
%FSLAX46Y46*%
G04 Gerber Fmt 4.6, Leading zero omitted, Abs format (unit mm)*
G04 Created by KiCad (PCBNEW 5.1.10) date 2021-10-06 18:26:39*
%MOMM*%
%LPD*%
G01*
G04 APERTURE LIST*
%ADD10R,1.400000X1.200000*%
%ADD11R,1.200000X1.400000*%
%ADD12R,2.550000X2.500000*%
%ADD13R,0.600000X1.450000*%
%ADD14R,0.300000X1.450000*%
%ADD15C,0.100000*%
%ADD16R,1.000000X1.700000*%
G04 APERTURE END LIST*
D10*
%TO.C,D39*%
X240390000Y-85030000D03*
X240390000Y-88430000D03*
%TD*%
%TO.C,D38*%
X221790000Y-85130000D03*
X221790000Y-88530000D03*
%TD*%
%TO.C,D37*%
X202890000Y-85230000D03*
X202890000Y-88630000D03*
%TD*%
%TO.C,D35*%
X176540000Y-95130000D03*
X176540000Y-91730000D03*
%TD*%
%TO.C,D33*%
X112290000Y-94480000D03*
X112290000Y-91080000D03*
%TD*%
%TO.C,D32*%
X109640000Y-94480000D03*
X109640000Y-91080000D03*
%TD*%
%TO.C,D31*%
X90540000Y-94480000D03*
X90540000Y-91080000D03*
%TD*%
%TO.C,D30*%
X71490000Y-94380000D03*
X71490000Y-90980000D03*
%TD*%
%TO.C,D29*%
X240390000Y-65330000D03*
X240390000Y-68730000D03*
%TD*%
%TO.C,D28*%
X223590000Y-67830000D03*
X223590000Y-71230000D03*
%TD*%
%TO.C,D27*%
X203690000Y-67730000D03*
X203690000Y-71130000D03*
%TD*%
%TO.C,D26*%
X184490000Y-67830000D03*
X184490000Y-71230000D03*
%TD*%
%TO.C,D25*%
X164690000Y-67830000D03*
X164690000Y-71230000D03*
%TD*%
%TO.C,D24*%
X145140000Y-67130000D03*
X145140000Y-70530000D03*
%TD*%
%TO.C,D23*%
X126590000Y-67730000D03*
X126590000Y-71130000D03*
%TD*%
%TO.C,D22*%
X107190000Y-67780000D03*
X107190000Y-71180000D03*
%TD*%
%TO.C,D21*%
X88390000Y-67880000D03*
X88390000Y-71280000D03*
%TD*%
%TO.C,D20*%
X69240000Y-67930000D03*
X69240000Y-71330000D03*
%TD*%
D11*
%TO.C,D19*%
X232790000Y-62830000D03*
X236190000Y-62830000D03*
%TD*%
%TO.C,D18*%
X215190000Y-62930000D03*
X218590000Y-62930000D03*
%TD*%
D10*
%TO.C,D17*%
X202190000Y-63630000D03*
X202190000Y-60230000D03*
%TD*%
%TO.C,D16*%
X183290000Y-63230000D03*
X183290000Y-59830000D03*
%TD*%
%TO.C,D15*%
X164190000Y-63530000D03*
X164190000Y-60130000D03*
%TD*%
D11*
%TO.C,D14*%
X133290000Y-62830000D03*
X136690000Y-62830000D03*
%TD*%
%TO.C,D13*%
X113390000Y-62930000D03*
X116790000Y-62930000D03*
%TD*%
%TO.C,D12*%
X96690000Y-62830000D03*
X100090000Y-62830000D03*
%TD*%
%TO.C,D11*%
X78040000Y-62830000D03*
X81440000Y-62830000D03*
%TD*%
%TO.C,D10*%
X58990000Y-62855000D03*
X62390000Y-62855000D03*
%TD*%
%TO.C,D9*%
X230690000Y-43930000D03*
X234090000Y-43930000D03*
%TD*%
%TO.C,D8*%
X211690000Y-43880000D03*
X215090000Y-43880000D03*
%TD*%
%TO.C,D7*%
X192640000Y-43930000D03*
X196040000Y-43930000D03*
%TD*%
%TO.C,D6*%
X173490000Y-43980000D03*
X176890000Y-43980000D03*
%TD*%
%TO.C,D5*%
X154590000Y-43980000D03*
X157990000Y-43980000D03*
%TD*%
%TO.C,D4*%
X138940000Y-43980000D03*
X135540000Y-43980000D03*
%TD*%
%TO.C,D3*%
X119840000Y-43980000D03*
X116440000Y-43980000D03*
%TD*%
%TO.C,D2*%
X100840000Y-43930000D03*
X97440000Y-43930000D03*
%TD*%
%TO.C,D1*%
X81040000Y-43930000D03*
X77640000Y-43930000D03*
%TD*%
%TO.C,D0*%
X62740000Y-43930000D03*
X59340000Y-43930000D03*
%TD*%
D12*
%TO.C,K26*%
X182850000Y-75970000D03*
X169000000Y-78510000D03*
%TD*%
%TO.C,K24*%
X144750000Y-75970000D03*
X130900000Y-78510000D03*
%TD*%
%TO.C,C4*%
G36*
G01*
X156120000Y-91525000D02*
X156120000Y-90575000D01*
G75*
G02*
X156370000Y-90325000I250000J0D01*
G01*
X156870000Y-90325000D01*
G75*
G02*
X157120000Y-90575000I0J-250000D01*
G01*
X157120000Y-91525000D01*
G75*
G02*
X156870000Y-91775000I-250000J0D01*
G01*
X156370000Y-91775000D01*
G75*
G02*
X156120000Y-91525000I0J250000D01*
G01*
G37*
G36*
G01*
X154220000Y-91525000D02*
X154220000Y-90575000D01*
G75*
G02*
X154470000Y-90325000I250000J0D01*
G01*
X154970000Y-90325000D01*
G75*
G02*
X155220000Y-90575000I0J-250000D01*
G01*
X155220000Y-91525000D01*
G75*
G02*
X154970000Y-91775000I-250000J0D01*
G01*
X154470000Y-91775000D01*
G75*
G02*
X154220000Y-91525000I0J250000D01*
G01*
G37*
%TD*%
%TO.C,C6*%
G36*
G01*
X156100000Y-89505000D02*
X156100000Y-88555000D01*
G75*
G02*
X156350000Y-88305000I250000J0D01*
G01*
X156850000Y-88305000D01*
G75*
G02*
X157100000Y-88555000I0J-250000D01*
G01*
X157100000Y-89505000D01*
G75*
G02*
X156850000Y-89755000I-250000J0D01*
G01*
X156350000Y-89755000D01*
G75*
G02*
X156100000Y-89505000I0J250000D01*
G01*
G37*
G36*
G01*
X154200000Y-89505000D02*
X154200000Y-88555000D01*
G75*
G02*
X154450000Y-88305000I250000J0D01*
G01*
X154950000Y-88305000D01*
G75*
G02*
X155200000Y-88555000I0J-250000D01*
G01*
X155200000Y-89505000D01*
G75*
G02*
X154950000Y-89755000I-250000J0D01*
G01*
X154450000Y-89755000D01*
G75*
G02*
X154200000Y-89505000I0J250000D01*
G01*
G37*
%TD*%
%TO.C,K39*%
X240000000Y-95000000D03*
X226150000Y-97540000D03*
%TD*%
%TO.C,K38*%
X220950000Y-95020000D03*
X207100000Y-97560000D03*
%TD*%
%TO.C,K37*%
X201900000Y-95020000D03*
X188050000Y-97560000D03*
%TD*%
%TO.C,K35*%
X173325000Y-95020000D03*
X159475000Y-97560000D03*
%TD*%
%TO.C,K33*%
X135225000Y-95020000D03*
X121375000Y-97560000D03*
%TD*%
%TO.C,K32*%
X106650000Y-95020000D03*
X92800000Y-97560000D03*
%TD*%
%TO.C,K31*%
X87600000Y-95020000D03*
X73750000Y-97560000D03*
%TD*%
%TO.C,K30*%
X68550000Y-95020000D03*
X54700000Y-97560000D03*
%TD*%
%TO.C,K29*%
X240000000Y-75970000D03*
X226150000Y-78510000D03*
%TD*%
%TO.C,K28*%
X220950000Y-75970000D03*
X207100000Y-78510000D03*
%TD*%
%TO.C,K27*%
X201900000Y-75970000D03*
X188050000Y-78510000D03*
%TD*%
%TO.C,K25*%
X163800000Y-75970000D03*
X149950000Y-78510000D03*
%TD*%
%TO.C,K23*%
X125700000Y-75970000D03*
X111850000Y-78510000D03*
%TD*%
%TO.C,K22*%
X106650000Y-75970000D03*
X92800000Y-78510000D03*
%TD*%
%TO.C,K21*%
X87600000Y-75970000D03*
X73750000Y-78510000D03*
%TD*%
%TO.C,K20*%
X68550000Y-75970000D03*
X54700000Y-78510000D03*
%TD*%
%TO.C,K19*%
X240000000Y-56920000D03*
X226150000Y-59460000D03*
%TD*%
%TO.C,K18*%
X220950000Y-56920000D03*
X207100000Y-59460000D03*
%TD*%
%TO.C,K17*%
X201900000Y-56920000D03*
X188050000Y-59460000D03*
%TD*%
%TO.C,K16*%
X182850000Y-56920000D03*
X169000000Y-59460000D03*
%TD*%
%TO.C,K15*%
X163800000Y-56920000D03*
X149950000Y-59460000D03*
%TD*%
%TO.C,K14*%
X144750000Y-56920000D03*
X130900000Y-59460000D03*
%TD*%
%TO.C,K13*%
X125700000Y-56920000D03*
X111850000Y-59460000D03*
%TD*%
%TO.C,K12*%
X106650000Y-56920000D03*
X92800000Y-59460000D03*
%TD*%
%TO.C,K11*%
X87600000Y-56920000D03*
X73750000Y-59460000D03*
%TD*%
%TO.C,K10*%
X68550000Y-56920000D03*
X54700000Y-59460000D03*
%TD*%
%TO.C,K9*%
X240000000Y-37870000D03*
X226150000Y-40410000D03*
%TD*%
%TO.C,K8*%
X220950000Y-37870000D03*
X207100000Y-40410000D03*
%TD*%
%TO.C,K7*%
X201900000Y-37870000D03*
X188050000Y-40410000D03*
%TD*%
%TO.C,K6*%
X182850000Y-37870000D03*
X169000000Y-40410000D03*
%TD*%
%TO.C,K5*%
X163800000Y-37870000D03*
X149950000Y-40410000D03*
%TD*%
%TO.C,K4*%
X144750000Y-37870000D03*
X130900000Y-40410000D03*
%TD*%
%TO.C,K3*%
X125700000Y-37870000D03*
X111850000Y-40410000D03*
%TD*%
%TO.C,K2*%
X106650000Y-37870000D03*
X92800000Y-40410000D03*
%TD*%
%TO.C,K1*%
X87600000Y-37870000D03*
X73750000Y-40410000D03*
%TD*%
%TO.C,K0*%
X68550000Y-37870000D03*
X54700000Y-40410000D03*
%TD*%
D13*
%TO.C,J1*%
X149965000Y-25087500D03*
X149165000Y-25087500D03*
X144265000Y-25087500D03*
X143465000Y-25087500D03*
X143465000Y-25087500D03*
X144265000Y-25087500D03*
X149165000Y-25087500D03*
X149965000Y-25087500D03*
D14*
X144965000Y-25087500D03*
X145465000Y-25087500D03*
X145965000Y-25087500D03*
X146965000Y-25087500D03*
X147465000Y-25087500D03*
X147965000Y-25087500D03*
X148465000Y-25087500D03*
X146465000Y-25087500D03*
%TD*%
D11*
%TO.C,Y1*%
X150140000Y-94630000D03*
X150140000Y-96830000D03*
X151840000Y-96830000D03*
X151840000Y-94630000D03*
%TD*%
%TO.C,U2*%
G36*
G01*
X146205000Y-32400000D02*
X146205000Y-32700000D01*
G75*
G02*
X146055000Y-32850000I-150000J0D01*
G01*
X145030000Y-32850000D01*
G75*
G02*
X144880000Y-32700000I0J150000D01*
G01*
X144880000Y-32400000D01*
G75*
G02*
X145030000Y-32250000I150000J0D01*
G01*
X146055000Y-32250000D01*
G75*
G02*
X146205000Y-32400000I0J-150000D01*
G01*
G37*
G36*
G01*
X146205000Y-33350000D02*
X146205000Y-33650000D01*
G75*
G02*
X146055000Y-33800000I-150000J0D01*
G01*
X145030000Y-33800000D01*
G75*
G02*
X144880000Y-33650000I0J150000D01*
G01*
X144880000Y-33350000D01*
G75*
G02*
X145030000Y-33200000I150000J0D01*
G01*
X146055000Y-33200000D01*
G75*
G02*
X146205000Y-33350000I0J-150000D01*
G01*
G37*
G36*
G01*
X146205000Y-34300000D02*
X146205000Y-34600000D01*
G75*
G02*
X146055000Y-34750000I-150000J0D01*
G01*
X145030000Y-34750000D01*
G75*
G02*
X144880000Y-34600000I0J150000D01*
G01*
X144880000Y-34300000D01*
G75*
G02*
X145030000Y-34150000I150000J0D01*
G01*
X146055000Y-34150000D01*
G75*
G02*
X146205000Y-34300000I0J-150000D01*
G01*
G37*
G36*
G01*
X148480000Y-34300000D02*
X148480000Y-34600000D01*
G75*
G02*
X148330000Y-34750000I-150000J0D01*
G01*
X147305000Y-34750000D01*
G75*
G02*
X147155000Y-34600000I0J150000D01*
G01*
X147155000Y-34300000D01*
G75*
G02*
X147305000Y-34150000I150000J0D01*
G01*
X148330000Y-34150000D01*
G75*
G02*
X148480000Y-34300000I0J-150000D01*
G01*
G37*
G36*
G01*
X148480000Y-33350000D02*
X148480000Y-33650000D01*
G75*
G02*
X148330000Y-33800000I-150000J0D01*
G01*
X147305000Y-33800000D01*
G75*
G02*
X147155000Y-33650000I0J150000D01*
G01*
X147155000Y-33350000D01*
G75*
G02*
X147305000Y-33200000I150000J0D01*
G01*
X148330000Y-33200000D01*
G75*
G02*
X148480000Y-33350000I0J-150000D01*
G01*
G37*
G36*
G01*
X148480000Y-32400000D02*
X148480000Y-32700000D01*
G75*
G02*
X148330000Y-32850000I-150000J0D01*
G01*
X147305000Y-32850000D01*
G75*
G02*
X147155000Y-32700000I0J150000D01*
G01*
X147155000Y-32400000D01*
G75*
G02*
X147305000Y-32250000I150000J0D01*
G01*
X148330000Y-32250000D01*
G75*
G02*
X148480000Y-32400000I0J-150000D01*
G01*
G37*
%TD*%
D15*
%TO.C,U1*%
G36*
X148083872Y-91444835D02*
G01*
X147694963Y-91055926D01*
X148826334Y-89924555D01*
X149215243Y-90313464D01*
X148083872Y-91444835D01*
G37*
G36*
X147518186Y-90879150D02*
G01*
X147129277Y-90490241D01*
X148260648Y-89358870D01*
X148649557Y-89747779D01*
X147518186Y-90879150D01*
G37*
G36*
X146952501Y-90313464D02*
G01*
X146563592Y-89924555D01*
X147694963Y-88793184D01*
X148083872Y-89182093D01*
X146952501Y-90313464D01*
G37*
G36*
X146386816Y-89747779D02*
G01*
X145997907Y-89358870D01*
X147129278Y-88227499D01*
X147518187Y-88616408D01*
X146386816Y-89747779D01*
G37*
G36*
X145821130Y-89182093D02*
G01*
X145432221Y-88793184D01*
X146563592Y-87661813D01*
X146952501Y-88050722D01*
X145821130Y-89182093D01*
G37*
G36*
X145255445Y-88616408D02*
G01*
X144866536Y-88227499D01*
X145997907Y-87096128D01*
X146386816Y-87485037D01*
X145255445Y-88616408D01*
G37*
G36*
X144689759Y-88050723D02*
G01*
X144300850Y-87661814D01*
X145432221Y-86530443D01*
X145821130Y-86919352D01*
X144689759Y-88050723D01*
G37*
G36*
X144124074Y-87485037D02*
G01*
X143735165Y-87096128D01*
X144866536Y-85964757D01*
X145255445Y-86353666D01*
X144124074Y-87485037D01*
G37*
G36*
X143204835Y-87096128D02*
G01*
X142815926Y-87485037D01*
X141684555Y-86353666D01*
X142073464Y-85964757D01*
X143204835Y-87096128D01*
G37*
G36*
X142639150Y-87661814D02*
G01*
X142250241Y-88050723D01*
X141118870Y-86919352D01*
X141507779Y-86530443D01*
X142639150Y-87661814D01*
G37*
G36*
X142073464Y-88227499D02*
G01*
X141684555Y-88616408D01*
X140553184Y-87485037D01*
X140942093Y-87096128D01*
X142073464Y-88227499D01*
G37*
G36*
X141507779Y-88793184D02*
G01*
X141118870Y-89182093D01*
X139987499Y-88050722D01*
X140376408Y-87661813D01*
X141507779Y-88793184D01*
G37*
G36*
X140942093Y-89358870D02*
G01*
X140553184Y-89747779D01*
X139421813Y-88616408D01*
X139810722Y-88227499D01*
X140942093Y-89358870D01*
G37*
G36*
X140376408Y-89924555D02*
G01*
X139987499Y-90313464D01*
X138856128Y-89182093D01*
X139245037Y-88793184D01*
X140376408Y-89924555D01*
G37*
G36*
X139810723Y-90490241D02*
G01*
X139421814Y-90879150D01*
X138290443Y-89747779D01*
X138679352Y-89358870D01*
X139810723Y-90490241D01*
G37*
G36*
X139245037Y-91055926D02*
G01*
X138856128Y-91444835D01*
X137724757Y-90313464D01*
X138113666Y-89924555D01*
X139245037Y-91055926D01*
G37*
G36*
X138113666Y-93495445D02*
G01*
X137724757Y-93106536D01*
X138856128Y-91975165D01*
X139245037Y-92364074D01*
X138113666Y-93495445D01*
G37*
G36*
X138679352Y-94061130D02*
G01*
X138290443Y-93672221D01*
X139421814Y-92540850D01*
X139810723Y-92929759D01*
X138679352Y-94061130D01*
G37*
G36*
X139245037Y-94626816D02*
G01*
X138856128Y-94237907D01*
X139987499Y-93106536D01*
X140376408Y-93495445D01*
X139245037Y-94626816D01*
G37*
G36*
X139810722Y-95192501D02*
G01*
X139421813Y-94803592D01*
X140553184Y-93672221D01*
X140942093Y-94061130D01*
X139810722Y-95192501D01*
G37*
G36*
X140376408Y-95758187D02*
G01*
X139987499Y-95369278D01*
X141118870Y-94237907D01*
X141507779Y-94626816D01*
X140376408Y-95758187D01*
G37*
G36*
X140942093Y-96323872D02*
G01*
X140553184Y-95934963D01*
X141684555Y-94803592D01*
X142073464Y-95192501D01*
X140942093Y-96323872D01*
G37*
G36*
X141507779Y-96889557D02*
G01*
X141118870Y-96500648D01*
X142250241Y-95369277D01*
X142639150Y-95758186D01*
X141507779Y-96889557D01*
G37*
G36*
X142073464Y-97455243D02*
G01*
X141684555Y-97066334D01*
X142815926Y-95934963D01*
X143204835Y-96323872D01*
X142073464Y-97455243D01*
G37*
G36*
X145255445Y-97066334D02*
G01*
X144866536Y-97455243D01*
X143735165Y-96323872D01*
X144124074Y-95934963D01*
X145255445Y-97066334D01*
G37*
G36*
X145821130Y-96500648D02*
G01*
X145432221Y-96889557D01*
X144300850Y-95758186D01*
X144689759Y-95369277D01*
X145821130Y-96500648D01*
G37*
G36*
X146386816Y-95934963D02*
G01*
X145997907Y-96323872D01*
X144866536Y-95192501D01*
X145255445Y-94803592D01*
X146386816Y-95934963D01*
G37*
G36*
X146952501Y-95369278D02*
G01*
X146563592Y-95758187D01*
X145432221Y-94626816D01*
X145821130Y-94237907D01*
X146952501Y-95369278D01*
G37*
G36*
X147518187Y-94803592D02*
G01*
X147129278Y-95192501D01*
X145997907Y-94061130D01*
X146386816Y-93672221D01*
X147518187Y-94803592D01*
G37*
G36*
X148083872Y-94237907D02*
G01*
X147694963Y-94626816D01*
X146563592Y-93495445D01*
X146952501Y-93106536D01*
X148083872Y-94237907D01*
G37*
G36*
X148649557Y-93672221D02*
G01*
X148260648Y-94061130D01*
X147129277Y-92929759D01*
X147518186Y-92540850D01*
X148649557Y-93672221D01*
G37*
G36*
X149215243Y-93106536D02*
G01*
X148826334Y-93495445D01*
X147694963Y-92364074D01*
X148083872Y-91975165D01*
X149215243Y-93106536D01*
G37*
%TD*%
D16*
%TO.C,SW1*%
X115240000Y-88980000D03*
X115240000Y-95280000D03*
X119040000Y-88980000D03*
X119040000Y-95280000D03*
%TD*%
%TO.C,R6*%
G36*
G01*
X146373722Y-97789879D02*
X147010121Y-98426278D01*
G75*
G02*
X147010121Y-98779828I-176775J-176775D01*
G01*
X146638888Y-99151061D01*
G75*
G02*
X146285338Y-99151061I-176775J176775D01*
G01*
X145648939Y-98514662D01*
G75*
G02*
X145648939Y-98161112I176775J176775D01*
G01*
X146020172Y-97789879D01*
G75*
G02*
X146373722Y-97789879I176775J-176775D01*
G01*
G37*
G36*
G01*
X147664192Y-96499409D02*
X148300591Y-97135808D01*
G75*
G02*
X148300591Y-97489358I-176775J-176775D01*
G01*
X147929358Y-97860591D01*
G75*
G02*
X147575808Y-97860591I-176775J176775D01*
G01*
X146939409Y-97224192D01*
G75*
G02*
X146939409Y-96870642I176775J176775D01*
G01*
X147310642Y-96499409D01*
G75*
G02*
X147664192Y-96499409I176775J-176775D01*
G01*
G37*
%TD*%
%TO.C,R5*%
G36*
G01*
X152000000Y-27079998D02*
X152000000Y-27980002D01*
G75*
G02*
X151750002Y-28230000I-249998J0D01*
G01*
X151224998Y-28230000D01*
G75*
G02*
X150975000Y-27980002I0J249998D01*
G01*
X150975000Y-27079998D01*
G75*
G02*
X151224998Y-26830000I249998J0D01*
G01*
X151750002Y-26830000D01*
G75*
G02*
X152000000Y-27079998I0J-249998D01*
G01*
G37*
G36*
G01*
X153825000Y-27079998D02*
X153825000Y-27980002D01*
G75*
G02*
X153575002Y-28230000I-249998J0D01*
G01*
X153049998Y-28230000D01*
G75*
G02*
X152800000Y-27980002I0J249998D01*
G01*
X152800000Y-27079998D01*
G75*
G02*
X153049998Y-26830000I249998J0D01*
G01*
X153575002Y-26830000D01*
G75*
G02*
X153825000Y-27079998I0J-249998D01*
G01*
G37*
%TD*%
%TO.C,R4*%
G36*
G01*
X141490000Y-27980002D02*
X141490000Y-27079998D01*
G75*
G02*
X141739998Y-26830000I249998J0D01*
G01*
X142265002Y-26830000D01*
G75*
G02*
X142515000Y-27079998I0J-249998D01*
G01*
X142515000Y-27980002D01*
G75*
G02*
X142265002Y-28230000I-249998J0D01*
G01*
X141739998Y-28230000D01*
G75*
G02*
X141490000Y-27980002I0J249998D01*
G01*
G37*
G36*
G01*
X139665000Y-27980002D02*
X139665000Y-27079998D01*
G75*
G02*
X139914998Y-26830000I249998J0D01*
G01*
X140440002Y-26830000D01*
G75*
G02*
X140690000Y-27079998I0J-249998D01*
G01*
X140690000Y-27980002D01*
G75*
G02*
X140440002Y-28230000I-249998J0D01*
G01*
X139914998Y-28230000D01*
G75*
G02*
X139665000Y-27980002I0J249998D01*
G01*
G37*
%TD*%
%TO.C,R3*%
G36*
G01*
X142339998Y-82830000D02*
X143240002Y-82830000D01*
G75*
G02*
X143490000Y-83079998I0J-249998D01*
G01*
X143490000Y-83605002D01*
G75*
G02*
X143240002Y-83855000I-249998J0D01*
G01*
X142339998Y-83855000D01*
G75*
G02*
X142090000Y-83605002I0J249998D01*
G01*
X142090000Y-83079998D01*
G75*
G02*
X142339998Y-82830000I249998J0D01*
G01*
G37*
G36*
G01*
X142339998Y-81005000D02*
X143240002Y-81005000D01*
G75*
G02*
X143490000Y-81254998I0J-249998D01*
G01*
X143490000Y-81780002D01*
G75*
G02*
X143240002Y-82030000I-249998J0D01*
G01*
X142339998Y-82030000D01*
G75*
G02*
X142090000Y-81780002I0J249998D01*
G01*
X142090000Y-81254998D01*
G75*
G02*
X142339998Y-81005000I249998J0D01*
G01*
G37*
%TD*%
%TO.C,R2*%
G36*
G01*
X148640002Y-44110000D02*
X147739998Y-44110000D01*
G75*
G02*
X147490000Y-43860002I0J249998D01*
G01*
X147490000Y-43334998D01*
G75*
G02*
X147739998Y-43085000I249998J0D01*
G01*
X148640002Y-43085000D01*
G75*
G02*
X148890000Y-43334998I0J-249998D01*
G01*
X148890000Y-43860002D01*
G75*
G02*
X148640002Y-44110000I-249998J0D01*
G01*
G37*
G36*
G01*
X148640002Y-45935000D02*
X147739998Y-45935000D01*
G75*
G02*
X147490000Y-45685002I0J249998D01*
G01*
X147490000Y-45159998D01*
G75*
G02*
X147739998Y-44910000I249998J0D01*
G01*
X148640002Y-44910000D01*
G75*
G02*
X148890000Y-45159998I0J-249998D01*
G01*
X148890000Y-45685002D01*
G75*
G02*
X148640002Y-45935000I-249998J0D01*
G01*
G37*
%TD*%
%TO.C,R1*%
G36*
G01*
X147739998Y-48310000D02*
X148640002Y-48310000D01*
G75*
G02*
X148890000Y-48559998I0J-249998D01*
G01*
X148890000Y-49085002D01*
G75*
G02*
X148640002Y-49335000I-249998J0D01*
G01*
X147739998Y-49335000D01*
G75*
G02*
X147490000Y-49085002I0J249998D01*
G01*
X147490000Y-48559998D01*
G75*
G02*
X147739998Y-48310000I249998J0D01*
G01*
G37*
G36*
G01*
X147739998Y-46485000D02*
X148640002Y-46485000D01*
G75*
G02*
X148890000Y-46734998I0J-249998D01*
G01*
X148890000Y-47260002D01*
G75*
G02*
X148640002Y-47510000I-249998J0D01*
G01*
X147739998Y-47510000D01*
G75*
G02*
X147490000Y-47260002I0J249998D01*
G01*
X147490000Y-46734998D01*
G75*
G02*
X147739998Y-46485000I249998J0D01*
G01*
G37*
%TD*%
%TO.C,F1*%
G36*
G01*
X144655000Y-45875000D02*
X145905000Y-45875000D01*
G75*
G02*
X146155000Y-46125000I0J-250000D01*
G01*
X146155000Y-46875000D01*
G75*
G02*
X145905000Y-47125000I-250000J0D01*
G01*
X144655000Y-47125000D01*
G75*
G02*
X144405000Y-46875000I0J250000D01*
G01*
X144405000Y-46125000D01*
G75*
G02*
X144655000Y-45875000I250000J0D01*
G01*
G37*
G36*
G01*
X144655000Y-43075000D02*
X145905000Y-43075000D01*
G75*
G02*
X146155000Y-43325000I0J-250000D01*
G01*
X146155000Y-44075000D01*
G75*
G02*
X145905000Y-44325000I-250000J0D01*
G01*
X144655000Y-44325000D01*
G75*
G02*
X144405000Y-44075000I0J250000D01*
G01*
X144405000Y-43325000D01*
G75*
G02*
X144655000Y-43075000I250000J0D01*
G01*
G37*
%TD*%
%TO.C,C5*%
G36*
G01*
X158090000Y-87415000D02*
X158090000Y-86465000D01*
G75*
G02*
X158340000Y-86215000I250000J0D01*
G01*
X158840000Y-86215000D01*
G75*
G02*
X159090000Y-86465000I0J-250000D01*
G01*
X159090000Y-87415000D01*
G75*
G02*
X158840000Y-87665000I-250000J0D01*
G01*
X158340000Y-87665000D01*
G75*
G02*
X158090000Y-87415000I0J250000D01*
G01*
G37*
G36*
G01*
X156190000Y-87415000D02*
X156190000Y-86465000D01*
G75*
G02*
X156440000Y-86215000I250000J0D01*
G01*
X156940000Y-86215000D01*
G75*
G02*
X157190000Y-86465000I0J-250000D01*
G01*
X157190000Y-87415000D01*
G75*
G02*
X156940000Y-87665000I-250000J0D01*
G01*
X156440000Y-87665000D01*
G75*
G02*
X156190000Y-87415000I0J250000D01*
G01*
G37*
%TD*%
%TO.C,C3*%
G36*
G01*
X156140000Y-95855000D02*
X156140000Y-94905000D01*
G75*
G02*
X156390000Y-94655000I250000J0D01*
G01*
X156890000Y-94655000D01*
G75*
G02*
X157140000Y-94905000I0J-250000D01*
G01*
X157140000Y-95855000D01*
G75*
G02*
X156890000Y-96105000I-250000J0D01*
G01*
X156390000Y-96105000D01*
G75*
G02*
X156140000Y-95855000I0J250000D01*
G01*
G37*
G36*
G01*
X154240000Y-95855000D02*
X154240000Y-94905000D01*
G75*
G02*
X154490000Y-94655000I250000J0D01*
G01*
X154990000Y-94655000D01*
G75*
G02*
X155240000Y-94905000I0J-250000D01*
G01*
X155240000Y-95855000D01*
G75*
G02*
X154990000Y-96105000I-250000J0D01*
G01*
X154490000Y-96105000D01*
G75*
G02*
X154240000Y-95855000I0J250000D01*
G01*
G37*
%TD*%
%TO.C,C2*%
G36*
G01*
X155230000Y-92775000D02*
X155230000Y-93725000D01*
G75*
G02*
X154980000Y-93975000I-250000J0D01*
G01*
X154480000Y-93975000D01*
G75*
G02*
X154230000Y-93725000I0J250000D01*
G01*
X154230000Y-92775000D01*
G75*
G02*
X154480000Y-92525000I250000J0D01*
G01*
X154980000Y-92525000D01*
G75*
G02*
X155230000Y-92775000I0J-250000D01*
G01*
G37*
G36*
G01*
X157130000Y-92775000D02*
X157130000Y-93725000D01*
G75*
G02*
X156880000Y-93975000I-250000J0D01*
G01*
X156380000Y-93975000D01*
G75*
G02*
X156130000Y-93725000I0J250000D01*
G01*
X156130000Y-92775000D01*
G75*
G02*
X156380000Y-92525000I250000J0D01*
G01*
X156880000Y-92525000D01*
G75*
G02*
X157130000Y-92775000I0J-250000D01*
G01*
G37*
%TD*%
%TO.C,C1*%
G36*
G01*
X145365000Y-82080000D02*
X144415000Y-82080000D01*
G75*
G02*
X144165000Y-81830000I0J250000D01*
G01*
X144165000Y-81330000D01*
G75*
G02*
X144415000Y-81080000I250000J0D01*
G01*
X145365000Y-81080000D01*
G75*
G02*
X145615000Y-81330000I0J-250000D01*
G01*
X145615000Y-81830000D01*
G75*
G02*
X145365000Y-82080000I-250000J0D01*
G01*
G37*
G36*
G01*
X145365000Y-83980000D02*
X144415000Y-83980000D01*
G75*
G02*
X144165000Y-83730000I0J250000D01*
G01*
X144165000Y-83230000D01*
G75*
G02*
X144415000Y-82980000I250000J0D01*
G01*
X145365000Y-82980000D01*
G75*
G02*
X145615000Y-83230000I0J-250000D01*
G01*
X145615000Y-83730000D01*
G75*
G02*
X145365000Y-83980000I-250000J0D01*
G01*
G37*
%TD*%
M02*
