M48
; DRILL file {KiCad 5.1.10} date Wed Oct  6 18:26:41 2021
; FORMAT={-:-/ absolute / inch / decimal}
; #@! TF.CreationDate,2021-10-06T18:26:41+02:00
; #@! TF.GenerationSoftware,Kicad,Pcbnew,5.1.10
; #@! TF.FileFunction,Plated,1,2,PTH
FMAT,2
INCH
T1C0.0157
T2C0.0236
T3C0.0590
%
G90
G05
T1
X4.5902Y-3.5031
X4.7535Y-3.5031
X5.5337Y-3.6589
X5.5843Y-3.6921
X5.6039Y-3.3417
X5.6236Y-1.7315
X5.628Y-3.6906
X5.6295Y-3.4776
X5.6295Y-3.5209
X5.6295Y-3.5642
X5.65Y-1.0697
X5.6571Y-3.7531
X5.6571Y-3.7531
X5.6748Y-3.6941
X5.7004Y-3.5957
X5.7087Y-1.0697
X5.7161Y-2.5799
X5.729Y-2.4747
X5.7366Y-1.6067
X5.7398Y-2.5406
X5.7445Y-3.128
X5.7752Y-3.5957
X5.7913Y-3.2094
X5.8411Y-3.7365
X5.8579Y-2.5406
X5.8728Y-1.3189
X5.8736Y-2.5799
X5.9425Y-1.7315
X6.0338Y-3.744
T3
X2.2512Y-1.2909
X2.2512Y-2.0409
X2.2512Y-2.7909
X2.2512Y-3.5409
X2.5012Y-1.1909
X2.5012Y-1.9409
X2.5012Y-2.6909
X2.5012Y-3.4409
X3.0012Y-1.2909
X3.0012Y-2.0409
X3.0012Y-2.7909
X3.0012Y-3.5409
X3.2512Y-1.1909
X3.2512Y-1.9409
X3.2512Y-2.6909
X3.2512Y-3.4409
X3.7512Y-1.2909
X3.7512Y-2.0409
X3.7512Y-2.7909
X3.7512Y-3.5409
X4.0012Y-1.1909
X4.0012Y-1.9409
X4.0012Y-2.6909
X4.0012Y-3.4409
X4.5012Y-1.2909
X4.5012Y-2.0409
X4.5012Y-2.7909
X4.7512Y-1.1909
X4.7512Y-1.9409
X4.7512Y-2.6909
X4.8762Y-3.5409
X5.1262Y-3.4409
X5.2512Y-1.2909
X5.2512Y-2.0409
X5.2512Y-2.7909
X5.5012Y-1.1909
X5.5012Y-1.9409
X5.5012Y-2.6909
X6.0012Y-1.2909
X6.0012Y-2.0409
X6.0012Y-2.7909
X6.2512Y-1.1909
X6.2512Y-1.9409
X6.2512Y-2.6909
X6.3762Y-3.5409
X6.6262Y-3.4409
X6.7512Y-1.2909
X6.7512Y-2.0409
X6.7512Y-2.7909
X7.0012Y-1.1909
X7.0012Y-1.9409
X7.0012Y-2.6909
X7.5012Y-1.2909
X7.5012Y-2.0409
X7.5012Y-2.7909
X7.5012Y-3.5409
X7.7512Y-1.1909
X7.7512Y-1.9409
X7.7512Y-2.6909
X7.7512Y-3.4409
X8.2512Y-1.2909
X8.2512Y-2.0409
X8.2512Y-2.7909
X8.2512Y-3.5409
X8.5012Y-1.1909
X8.5012Y-1.9409
X8.5012Y-2.6909
X8.5012Y-3.4409
X9.0012Y-1.2909
X9.0012Y-2.0409
X9.0012Y-2.7909
X9.0012Y-3.5402
X9.2512Y-1.1909
X9.2512Y-1.9409
X9.2512Y-2.6909
X9.2512Y-3.4402
T2
G00X5.6061Y-0.7753
M15
G01X5.6061Y-0.7989
M16
G05
G00X5.6061Y-0.93
M15
G01X5.6061Y-0.9733
M16
G05
G00X5.9463Y-0.7753
M15
G01X5.9463Y-0.7989
M16
G05
G00X5.9463Y-0.93
M15
G01X5.9463Y-0.9733
M16
G05
T0
M30
