M48
; DRILL file {KiCad (6.99.0-222-g367431f825)} date Thu 13 Jan 2022 02:33:29 PM CET
; FORMAT={-:-/ absolute / metric / decimal}
; #@! TF.CreationDate,2022-01-13T14:33:29+01:00
; #@! TF.GenerationSoftware,Kicad,Pcbnew,(6.99.0-222-g367431f825)
; #@! TF.FileFunction,NonPlated,1,2,NPTH
FMAT,2
METRIC
; #@! TA.AperFunction,NonPlated,NPTH,ComponentDrill
T1C0.650
; #@! TA.AperFunction,NonPlated,NPTH,ComponentDrill
T2C1.702
; #@! TA.AperFunction,NonPlated,NPTH,ComponentDrill
T3C3.000
; #@! TA.AperFunction,NonPlated,NPTH,ComponentDrill
T4C3.048
; #@! TA.AperFunction,NonPlated,NPTH,ComponentDrill
T5C3.988
%
G90
G05
T1
X143.825Y-23.642
X149.605Y-23.642
T2
X55.91Y-35.33
X55.91Y-54.38
X55.91Y-73.43
X55.91Y-92.48
X65.435Y-92.48
X66.07Y-35.33
X66.07Y-54.38
X66.07Y-73.43
X66.07Y-92.48
X74.96Y-35.33
X74.96Y-54.38
X74.96Y-73.43
X74.96Y-92.48
X75.595Y-92.48
X85.12Y-35.33
X85.12Y-54.38
X85.12Y-73.43
X85.12Y-92.48
X94.01Y-35.33
X94.01Y-54.38
X94.01Y-73.43
X94.01Y-92.48
X104.17Y-35.33
X104.17Y-54.38
X104.17Y-73.43
X104.17Y-92.48
X113.06Y-35.33
X113.06Y-54.38
X113.06Y-73.43
X115.441Y-92.48
X122.585Y-92.48
X123.22Y-35.33
X123.22Y-54.38
X123.22Y-73.43
X125.601Y-92.48
X132.11Y-35.33
X132.11Y-54.38
X132.11Y-73.43
X132.745Y-92.48
X141.635Y-92.48
X142.27Y-35.33
X142.27Y-54.38
X142.27Y-73.43
X151.16Y-35.33
X151.16Y-54.38
X151.16Y-73.43
X151.795Y-92.48
X160.685Y-92.48
X161.32Y-35.33
X161.32Y-54.38
X161.32Y-73.43
X167.829Y-92.48
X170.21Y-35.33
X170.21Y-54.38
X170.21Y-73.43
X170.845Y-92.48
X177.989Y-92.48
X180.37Y-35.33
X180.37Y-54.38
X180.37Y-73.43
X189.26Y-35.33
X189.26Y-54.38
X189.26Y-73.43
X189.26Y-92.48
X199.42Y-35.33
X199.42Y-54.38
X199.42Y-73.43
X199.42Y-92.48
X208.31Y-35.33
X208.31Y-54.38
X208.31Y-73.43
X208.31Y-92.48
X218.47Y-35.33
X218.47Y-54.38
X218.47Y-73.43
X218.47Y-92.48
X220.216Y-92.48
X227.36Y-35.33
X227.36Y-54.38
X227.36Y-73.43
X227.36Y-92.46
X230.376Y-92.48
X237.52Y-35.33
X237.52Y-54.38
X237.52Y-73.43
X237.52Y-92.46
T3
X58.45Y-40.41
X58.45Y-59.46
X58.45Y-78.51
X58.45Y-97.56
X64.8Y-37.87
X64.8Y-56.92
X64.8Y-75.97
X64.8Y-95.02
X67.975Y-97.56
X74.325Y-95.02
X77.5Y-40.41
X77.5Y-59.46
X77.5Y-78.51
X77.5Y-97.56
X83.85Y-37.87
X83.85Y-56.92
X83.85Y-75.97
X83.85Y-95.02
X96.55Y-40.41
X96.55Y-59.46
X96.55Y-78.51
X96.55Y-97.56
X102.9Y-37.87
X102.9Y-56.92
X102.9Y-75.97
X102.9Y-95.02
X115.6Y-40.41
X115.6Y-59.46
X115.6Y-78.51
X117.981Y-97.56
X121.95Y-37.87
X121.95Y-56.92
X121.95Y-75.97
X124.331Y-95.02
X125.125Y-97.56
X131.475Y-95.02
X134.65Y-40.41
X134.65Y-59.46
X134.65Y-78.51
X141.0Y-37.87
X141.0Y-56.92
X141.0Y-75.97
X144.175Y-97.56
X150.525Y-95.02
X153.7Y-40.41
X153.7Y-59.46
X153.7Y-78.51
X160.05Y-37.87
X160.05Y-56.92
X160.05Y-75.97
X163.225Y-97.56
X169.575Y-95.02
X170.369Y-97.56
X172.75Y-40.41
X172.75Y-59.46
X172.75Y-78.51
X176.719Y-95.02
X179.1Y-37.87
X179.1Y-56.92
X179.1Y-75.97
X191.8Y-40.41
X191.8Y-59.46
X191.8Y-78.51
X191.8Y-97.56
X198.15Y-37.87
X198.15Y-56.92
X198.15Y-75.97
X198.15Y-95.02
X210.85Y-40.41
X210.85Y-59.46
X210.85Y-78.51
X210.85Y-97.56
X217.2Y-37.87
X217.2Y-56.92
X217.2Y-75.97
X217.2Y-95.02
X222.756Y-97.56
X229.106Y-95.02
X229.9Y-40.41
X229.9Y-59.46
X229.9Y-78.51
X229.9Y-97.54
X236.25Y-37.87
X236.25Y-56.92
X236.25Y-75.97
X236.25Y-95.0
T4
X89.565Y-99.465
X115.759Y-99.465
X139.571Y-99.465
X153.859Y-99.465
X177.671Y-99.465
X203.865Y-99.465
T5
X60.99Y-35.33
X60.99Y-54.38
X60.99Y-73.43
X60.99Y-92.48
X70.515Y-92.48
X80.04Y-35.33
X80.04Y-54.38
X80.04Y-73.43
X80.04Y-92.48
X89.565Y-84.225
X99.09Y-35.33
X99.09Y-54.38
X99.09Y-73.43
X99.09Y-92.48
X115.759Y-84.225
X118.14Y-35.33
X118.14Y-54.38
X118.14Y-73.43
X120.521Y-92.48
X127.665Y-92.48
X137.19Y-35.33
X137.19Y-54.38
X137.19Y-73.43
X139.571Y-84.225
X146.715Y-92.48
X153.859Y-84.225
X156.24Y-35.33
X156.24Y-54.38
X156.24Y-73.43
X165.765Y-92.48
X172.909Y-92.48
X175.29Y-35.33
X175.29Y-54.38
X175.29Y-73.43
X177.671Y-84.225
X194.34Y-35.33
X194.34Y-54.38
X194.34Y-73.43
X194.34Y-92.48
X203.865Y-84.225
X213.39Y-35.33
X213.39Y-54.38
X213.39Y-73.43
X213.39Y-92.48
X225.296Y-92.48
X232.44Y-35.33
X232.44Y-54.38
X232.44Y-73.43
X232.44Y-92.46
T0
M30
