M48
; DRILL file {KiCad 7.0.8} date Thu 05 Oct 2023 16:55:06 CEST
; FORMAT={-:-/ absolute / metric / decimal}
; #@! TF.CreationDate,2023-10-05T16:55:06+02:00
; #@! TF.GenerationSoftware,Kicad,Pcbnew,7.0.8
; #@! TF.FileFunction,Plated,1,2,PTH
FMAT,2
METRIC
; #@! TA.AperFunction,Plated,PTH,ComponentDrill
T1C0.350
; #@! TA.AperFunction,Plated,PTH,ViaDrill
T2C0.400
; #@! TA.AperFunction,Plated,PTH,ComponentDrill
T3C0.600
; #@! TA.AperFunction,Plated,PTH,ComponentDrill
T4C0.800
; #@! TA.AperFunction,Plated,PTH,ComponentDrill
T5C1.000
; #@! TA.AperFunction,Plated,PTH,ComponentDrill
T6C1.500
; #@! TA.AperFunction,Plated,PTH,ComponentDrill
T7C3.000
%
G90
G05
T1
X144.912Y-59.87
X145.813Y-58.968
X145.813Y-60.772
X146.715Y-58.067
X146.715Y-59.87
X146.715Y-61.673
X147.617Y-58.968
X147.617Y-60.772
X148.518Y-59.87
T2
X88.58Y-68.16
X99.13Y-87.31
X114.61Y-97.25
X118.21Y-100.08
X122.412Y-59.493
X126.18Y-68.47
X126.295Y-62.152
X132.745Y-61.395
X133.38Y-60.623
X134.12Y-54.45
X135.24Y-37.316
X137.24Y-89.68
X138.99Y-62.07
X141.15Y-79.47
X141.49Y-59.79
X141.56Y-38.373
X142.27Y-84.89
X142.872Y-38.803
X143.548Y-70.903
X143.595Y-72.034
X143.673Y-59.373
X144.512Y-51.931
X144.512Y-51.931
X145.23Y-46.093
X145.296Y-52.55
X145.316Y-71.119
X145.81Y-72.81
X145.822Y-38.348
X146.115Y-39.9
X146.77Y-79.085
X147.209Y-54.7
X147.235Y-44.555
X147.409Y-67.969
X147.564Y-39.9
X147.609Y-53.754
X147.66Y-38.43
X147.78Y-72.87
X147.897Y-62.124
X148.242Y-83.518
X148.356Y-68.351
X148.42Y-34.7
X148.607Y-53.689
X148.92Y-42.687
X149.22Y-43.64
X149.332Y-68.762
X149.606Y-53.689
X149.7Y-89.87
X149.866Y-55.298
X149.98Y-39.41
X150.35Y-68.92
X150.386Y-38.496
X152.04Y-58.623
X152.42Y-79.5
X152.89Y-59.15
X153.76Y-27.23
X156.3Y-89.72
X157.188Y-43.559
X157.941Y-42.719
X158.08Y-37.26
X158.361Y-58.623
X158.86Y-84.77
X159.15Y-93.48
X160.62Y-59.023
X161.07Y-47.38
X161.31Y-59.94
X162.297Y-60.1
X163.296Y-60.1
X164.296Y-60.1
X164.34Y-49.41
X165.279Y-59.923
X168.63Y-63.7
X174.8Y-84.01
X180.29Y-51.29
X182.28Y-59.2
X182.407Y-60.191
X189.27Y-87.3
T4
X221.71Y-53.57
X221.71Y-55.57
X221.71Y-57.57
T5
X97.825Y-60.23
X100.365Y-60.23
X144.215Y-85.48
X144.215Y-99.98
X146.715Y-99.98
X149.215Y-85.48
X149.215Y-99.98
X170.22Y-63.73
X172.76Y-63.73
X175.3Y-63.73
X177.84Y-63.73
X180.38Y-63.73
X191.785Y-63.755
X194.325Y-63.755
X196.865Y-63.755
X225.44Y-32.83
X225.44Y-37.83
X239.94Y-32.83
X239.94Y-35.33
X239.94Y-37.83
T7
X57.18Y-32.79
X57.18Y-51.84
X57.18Y-70.89
X57.18Y-89.94
X63.53Y-30.25
X63.53Y-49.3
X63.53Y-68.35
X63.53Y-87.4
X67.975Y-97.56
X74.325Y-95.02
X76.23Y-32.79
X76.23Y-51.84
X76.23Y-70.89
X76.23Y-89.94
X82.58Y-30.25
X82.58Y-49.3
X82.58Y-68.35
X82.58Y-87.4
X95.28Y-32.79
X95.28Y-51.84
X95.28Y-70.89
X95.28Y-89.94
X101.63Y-30.25
X101.63Y-49.3
X101.63Y-68.35
X106.392Y-87.4
X114.33Y-32.79
X114.33Y-51.84
X114.33Y-70.89
X114.33Y-89.94
X120.362Y-97.56
X120.68Y-30.25
X120.68Y-49.3
X120.68Y-68.35
X120.68Y-87.4
X123.855Y-89.94
X126.712Y-95.02
X133.38Y-32.79
X133.38Y-51.84
X133.38Y-70.89
X139.73Y-30.25
X139.73Y-49.3
X139.73Y-68.35
X139.73Y-87.4
X142.905Y-89.94
X152.43Y-32.79
X152.43Y-51.84
X152.43Y-70.89
X158.78Y-30.25
X158.78Y-49.3
X158.78Y-68.35
X158.78Y-87.4
X161.955Y-89.94
X167.987Y-97.56
X171.48Y-32.79
X171.48Y-51.84
X171.48Y-70.89
X174.338Y-95.02
X177.83Y-30.25
X177.83Y-49.3
X177.83Y-68.35
X177.83Y-87.4
X185.767Y-89.94
X190.53Y-32.79
X190.53Y-51.84
X190.53Y-70.89
X192.117Y-87.4
X196.88Y-30.25
X196.88Y-49.3
X196.88Y-68.35
X196.88Y-87.4
X209.58Y-32.79
X209.58Y-51.84
X209.58Y-70.89
X209.58Y-89.94
X215.93Y-30.25
X215.93Y-49.3
X215.93Y-68.35
X215.93Y-87.4
X220.375Y-97.56
X226.725Y-95.02
X228.63Y-32.79
X228.63Y-51.84
X228.63Y-70.89
X228.63Y-89.94
X234.98Y-30.25
X234.98Y-49.3
X234.98Y-68.35
X234.98Y-87.4
T3
G00X142.395Y-19.692
M15
G01X142.395Y-20.293
M16
G05
G00X142.395Y-23.622
M15
G01X142.395Y-24.723
M16
G05
G00X151.035Y-19.692
M15
G01X151.035Y-20.293
M16
G05
G00X151.035Y-23.622
M15
G01X151.035Y-24.723
M16
G05
T6
G00X233.09Y-29.73
M15
G01X231.79Y-29.73
M16
G05
G00X233.09Y-40.93
M15
G01X231.79Y-40.93
M16
G05
T0
M30
