%TF.GenerationSoftware,KiCad,Pcbnew,7.0.8*%
%TF.CreationDate,2023-10-05T16:55:03+02:00*%
%TF.ProjectId,Endeavour-2,456e6465-6176-46f7-9572-2d322e6b6963,rev?*%
%TF.SameCoordinates,Original*%
%TF.FileFunction,Paste,Bot*%
%TF.FilePolarity,Positive*%
%FSLAX46Y46*%
G04 Gerber Fmt 4.6, Leading zero omitted, Abs format (unit mm)*
G04 Created by KiCad (PCBNEW 7.0.8) date 2023-10-05 16:55:03*
%MOMM*%
%LPD*%
G01*
G04 APERTURE LIST*
G04 Aperture macros list*
%AMRoundRect*
0 Rectangle with rounded corners*
0 $1 Rounding radius*
0 $2 $3 $4 $5 $6 $7 $8 $9 X,Y pos of 4 corners*
0 Add a 4 corners polygon primitive as box body*
4,1,4,$2,$3,$4,$5,$6,$7,$8,$9,$2,$3,0*
0 Add four circle primitives for the rounded corners*
1,1,$1+$1,$2,$3*
1,1,$1+$1,$4,$5*
1,1,$1+$1,$6,$7*
1,1,$1+$1,$8,$9*
0 Add four rect primitives between the rounded corners*
20,1,$1+$1,$2,$3,$4,$5,0*
20,1,$1+$1,$4,$5,$6,$7,0*
20,1,$1+$1,$6,$7,$8,$9,0*
20,1,$1+$1,$8,$9,$2,$3,0*%
%AMRotRect*
0 Rectangle, with rotation*
0 The origin of the aperture is its center*
0 $1 length*
0 $2 width*
0 $3 Rotation angle, in degrees counterclockwise*
0 Add horizontal line*
21,1,$1,$2,0,0,$3*%
G04 Aperture macros list end*
%ADD10R,0.600000X1.450000*%
%ADD11R,0.300000X1.450000*%
%ADD12RoundRect,0.250000X1.025000X1.000000X-1.025000X1.000000X-1.025000X-1.000000X1.025000X-1.000000X0*%
%ADD13RoundRect,0.250000X0.475000X-0.250000X0.475000X0.250000X-0.475000X0.250000X-0.475000X-0.250000X0*%
%ADD14RotRect,0.900000X0.800000X310.000000*%
%ADD15RotRect,0.900000X0.800000X80.000000*%
%ADD16RoundRect,0.250000X0.262500X0.450000X-0.262500X0.450000X-0.262500X-0.450000X0.262500X-0.450000X0*%
%ADD17RotRect,0.900000X0.800000X290.000000*%
%ADD18RotRect,1.400000X1.200000X45.000000*%
%ADD19RoundRect,0.250000X-1.025000X-1.000000X1.025000X-1.000000X1.025000X1.000000X-1.025000X1.000000X0*%
%ADD20R,0.800000X0.900000*%
%ADD21RoundRect,0.200000X1.075000X0.800000X-1.075000X0.800000X-1.075000X-0.800000X1.075000X-0.800000X0*%
%ADD22RoundRect,0.250000X-0.262500X-0.450000X0.262500X-0.450000X0.262500X0.450000X-0.262500X0.450000X0*%
%ADD23RoundRect,0.250000X-0.512652X-0.159099X-0.159099X-0.512652X0.512652X0.159099X0.159099X0.512652X0*%
%ADD24RoundRect,0.250000X-0.503814X-0.132583X-0.132583X-0.503814X0.503814X0.132583X0.132583X0.503814X0*%
%ADD25RoundRect,0.250000X-0.375000X-0.625000X0.375000X-0.625000X0.375000X0.625000X-0.375000X0.625000X0*%
%ADD26RotRect,0.900000X0.800000X120.000000*%
%ADD27RotRect,0.900000X0.800000X100.000000*%
%ADD28RotRect,0.900000X0.800000X320.000000*%
%ADD29RotRect,0.900000X0.800000X300.000000*%
%ADD30RoundRect,0.250000X-0.450000X0.262500X-0.450000X-0.262500X0.450000X-0.262500X0.450000X0.262500X0*%
%ADD31RoundRect,0.150000X-0.512500X-0.150000X0.512500X-0.150000X0.512500X0.150000X-0.512500X0.150000X0*%
%ADD32RotRect,0.900000X0.800000X220.000000*%
%ADD33RotRect,0.900000X0.800000X230.000000*%
%ADD34RotRect,0.900000X0.800000X250.000000*%
%ADD35RotRect,0.900000X0.800000X130.000000*%
%ADD36RotRect,0.900000X0.800000X60.000000*%
%ADD37R,1.700000X1.000000*%
%ADD38RoundRect,0.250000X0.250000X0.475000X-0.250000X0.475000X-0.250000X-0.475000X0.250000X-0.475000X0*%
%ADD39RoundRect,0.250000X-0.475000X0.250000X-0.475000X-0.250000X0.475000X-0.250000X0.475000X0.250000X0*%
%ADD40RotRect,0.900000X0.800000X240.000000*%
%ADD41RoundRect,0.250000X0.000000X0.413257X-0.413257X0.000000X0.000000X-0.413257X0.413257X0.000000X0*%
%ADD42RoundRect,0.050000X0.238649X0.309359X-0.309359X-0.238649X-0.238649X-0.309359X0.309359X0.238649X0*%
%ADD43RoundRect,0.050000X-0.238649X0.309359X-0.309359X0.238649X0.238649X-0.309359X0.309359X-0.238649X0*%
%ADD44RoundRect,0.250000X0.450000X-0.262500X0.450000X0.262500X-0.450000X0.262500X-0.450000X-0.262500X0*%
%ADD45RoundRect,0.150000X-0.150000X0.650000X-0.150000X-0.650000X0.150000X-0.650000X0.150000X0.650000X0*%
%ADD46RotRect,0.900000X0.800000X50.000000*%
G04 APERTURE END LIST*
D10*
%TO.C,J1*%
X143465000Y-25087500D03*
X144265000Y-25087500D03*
D11*
X145465000Y-25087500D03*
X146465000Y-25087500D03*
X146965000Y-25087500D03*
X147965000Y-25087500D03*
D10*
X149165000Y-25087500D03*
X149965000Y-25087500D03*
X149965000Y-25087500D03*
X149165000Y-25087500D03*
D11*
X148465000Y-25087500D03*
X147465000Y-25087500D03*
X145965000Y-25087500D03*
X144965000Y-25087500D03*
D10*
X144265000Y-25087500D03*
X143465000Y-25087500D03*
%TD*%
D12*
%TO.C,K20*%
X53630000Y-70890000D03*
X67080000Y-68350000D03*
%TD*%
D13*
%TO.C,C5*%
X123850000Y-62560000D03*
X123850000Y-60660000D03*
%TD*%
D14*
%TO.C,D10*%
X131189470Y-43154604D03*
X132644955Y-41933307D03*
X133202788Y-44076044D03*
%TD*%
D15*
%TO.C,D19*%
X143651919Y-82399774D03*
X141780784Y-82069842D03*
X143063648Y-80265192D03*
%TD*%
D12*
%TO.C,K18*%
X206030000Y-51840000D03*
X219480000Y-49300000D03*
%TD*%
D16*
%TO.C,R7*%
X145532500Y-27230000D03*
X143707500Y-27230000D03*
%TD*%
D17*
%TO.C,D2*%
X137925272Y-38875227D03*
X139710688Y-38225388D03*
X139502020Y-40429693D03*
%TD*%
D12*
%TO.C,K23*%
X110780000Y-70890000D03*
X124230000Y-68350000D03*
%TD*%
%TO.C,K9*%
X225080000Y-32790000D03*
X238530000Y-30250000D03*
%TD*%
D18*
%TO.C,Y0*%
X152551142Y-63496777D03*
X154106777Y-61941142D03*
X155308858Y-63143223D03*
X153753223Y-64698858D03*
%TD*%
D12*
%TO.C,K22*%
X91730000Y-70890000D03*
X105180000Y-68350000D03*
%TD*%
D19*
%TO.C,1.5u2*%
X177887500Y-95020000D03*
X164437500Y-97560000D03*
%TD*%
D20*
%TO.C,D3*%
X145765000Y-37140000D03*
X147665000Y-37140000D03*
X146715000Y-39140000D03*
%TD*%
D12*
%TO.C,1u8*%
X225080000Y-89940000D03*
X238530000Y-87400000D03*
%TD*%
D19*
%TO.C,1u_space1*%
X77875000Y-95020000D03*
X64425000Y-97560000D03*
%TD*%
D21*
%TO.C,2u2*%
X148880000Y-89940000D03*
D12*
X162330000Y-87400000D03*
%TD*%
%TO.C,K19*%
X225080000Y-51840000D03*
X238530000Y-49300000D03*
%TD*%
D20*
%TO.C,D8*%
X147665000Y-48630000D03*
X145765000Y-48630000D03*
X146715000Y-46630000D03*
%TD*%
D22*
%TO.C,R6*%
X148427500Y-27230000D03*
X150252500Y-27230000D03*
%TD*%
D23*
%TO.C,C3*%
X151030000Y-64870000D03*
X152373502Y-66213502D03*
%TD*%
D24*
%TO.C,R5*%
X149644765Y-66304765D03*
X150935235Y-67595235D03*
%TD*%
D12*
%TO.C,K5*%
X148880000Y-32790000D03*
X162330000Y-30250000D03*
%TD*%
D23*
%TO.C,C2*%
X155516498Y-60406498D03*
X156860000Y-61750000D03*
%TD*%
D13*
%TO.C,C11*%
X169790000Y-61180000D03*
X169790000Y-59280000D03*
%TD*%
D25*
%TO.C,F0*%
X152000000Y-27230000D03*
X154800000Y-27230000D03*
%TD*%
D26*
%TO.C,D16*%
X158572724Y-79271025D03*
X156927276Y-80221025D03*
X156750000Y-78013975D03*
%TD*%
D12*
%TO.C,2u4*%
X158405000Y-89940000D03*
D21*
X171855000Y-87400000D03*
%TD*%
D27*
%TO.C,D14*%
X165399216Y-75679842D03*
X163528081Y-76009774D03*
X164116352Y-73875192D03*
%TD*%
D28*
%TO.C,D9*%
X128463307Y-46104955D03*
X129684604Y-44649470D03*
X130606044Y-46662788D03*
%TD*%
D12*
%TO.C,K3*%
X110780000Y-32790000D03*
X124230000Y-30250000D03*
%TD*%
D13*
%TO.C,C7*%
X103220000Y-61180000D03*
X103220000Y-59280000D03*
%TD*%
D12*
%TO.C,1u6*%
X186980000Y-89940000D03*
X200430000Y-87400000D03*
%TD*%
%TO.C,K29*%
X225080000Y-70890000D03*
X238530000Y-68350000D03*
%TD*%
D19*
%TO.C,1u_space2*%
X230275000Y-95020000D03*
X216825000Y-97560000D03*
%TD*%
D12*
%TO.C,K12*%
X91730000Y-51840000D03*
X105180000Y-49300000D03*
%TD*%
%TO.C,K21*%
X72680000Y-70890000D03*
X86130000Y-68350000D03*
%TD*%
%TO.C,SPACE1*%
X139355000Y-89940000D03*
D21*
X152805000Y-87400000D03*
%TD*%
D29*
%TO.C,D1*%
X134367276Y-40712950D03*
X136012724Y-39762950D03*
X136190000Y-41970000D03*
%TD*%
D30*
%TO.C,R4*%
X142630000Y-44967500D03*
X142630000Y-46792500D03*
%TD*%
D20*
%TO.C,D18*%
X147660000Y-82590000D03*
X145760000Y-82590000D03*
X146710000Y-80590000D03*
%TD*%
D31*
%TO.C,U44*%
X145572500Y-43570000D03*
X145572500Y-42620000D03*
X145572500Y-41670000D03*
X147847500Y-41670000D03*
X147847500Y-42620000D03*
X147847500Y-43570000D03*
%TD*%
D13*
%TO.C,C4*%
X177880000Y-61180000D03*
X177880000Y-59280000D03*
%TD*%
D20*
%TO.C,D13*%
X145820000Y-74070000D03*
X147720000Y-74070000D03*
X146770000Y-76070000D03*
%TD*%
D13*
%TO.C,C12*%
X167750000Y-61180000D03*
X167750000Y-59280000D03*
%TD*%
D12*
%TO.C,K2*%
X91730000Y-32790000D03*
X105180000Y-30250000D03*
%TD*%
D13*
%TO.C,C17*%
X175860000Y-61180000D03*
X175860000Y-59280000D03*
%TD*%
D32*
%TO.C,D7*%
X163735396Y-44649470D03*
X164956693Y-46104955D03*
X162813956Y-46662788D03*
%TD*%
D12*
%TO.C,K17*%
X186980000Y-51840000D03*
X200430000Y-49300000D03*
%TD*%
%TO.C,K28*%
X206030000Y-70890000D03*
X219480000Y-68350000D03*
%TD*%
%TO.C,1u1*%
X53630000Y-89940000D03*
X67080000Y-87400000D03*
%TD*%
%TO.C,K24*%
X129830000Y-70890000D03*
X143280000Y-68350000D03*
%TD*%
%TO.C,K25*%
X148880000Y-70890000D03*
X162330000Y-68350000D03*
%TD*%
D30*
%TO.C,R3*%
X150780000Y-44967500D03*
X150780000Y-46792500D03*
%TD*%
D12*
%TO.C,1u7*%
X206030000Y-89940000D03*
X219480000Y-87400000D03*
%TD*%
D33*
%TO.C,D6*%
X160785045Y-41933307D03*
X162240530Y-43154604D03*
X160227212Y-44076044D03*
%TD*%
D12*
%TO.C,K13*%
X110780000Y-51840000D03*
X124230000Y-49300000D03*
%TD*%
%TO.C,K0*%
X53630000Y-32790000D03*
X67080000Y-30250000D03*
%TD*%
%TO.C,1u3*%
X91730000Y-89940000D03*
X105180000Y-87400000D03*
%TD*%
%TO.C,K26*%
X167930000Y-70890000D03*
X181380000Y-68350000D03*
%TD*%
D34*
%TO.C,D4*%
X153689312Y-38225388D03*
X155474728Y-38875227D03*
X153897980Y-40429693D03*
%TD*%
D12*
%TO.C,K8*%
X206030000Y-32790000D03*
X219480000Y-30250000D03*
%TD*%
D35*
%TO.C,D15*%
X161760530Y-76845396D03*
X160305045Y-78066693D03*
X159747212Y-75923956D03*
%TD*%
D12*
%TO.C,1u4_offset1*%
X96492500Y-89940000D03*
D21*
X109942500Y-87400000D03*
%TD*%
D36*
%TO.C,D20*%
X136492724Y-80221025D03*
X134847276Y-79271025D03*
X136670000Y-78013975D03*
%TD*%
D12*
%TO.C,K14*%
X129830000Y-51840000D03*
X143280000Y-49300000D03*
%TD*%
D21*
%TO.C,1u4*%
X182217500Y-89940000D03*
D12*
X195667500Y-87400000D03*
%TD*%
D37*
%TO.C,SW2*%
X235590000Y-57970000D03*
X229290000Y-57970000D03*
X235590000Y-61770000D03*
X229290000Y-61770000D03*
%TD*%
D20*
%TO.C,U4*%
X181660000Y-61230000D03*
X179760000Y-61230000D03*
X180710000Y-59230000D03*
%TD*%
D12*
%TO.C,1u2*%
X72680000Y-89940000D03*
X86130000Y-87400000D03*
%TD*%
D38*
%TO.C,C8*%
X100040000Y-57940000D03*
X98140000Y-57940000D03*
%TD*%
D12*
%TO.C,K15*%
X148880000Y-51840000D03*
X162330000Y-49300000D03*
%TD*%
D37*
%TO.C,SW0*%
X64140000Y-57970000D03*
X57840000Y-57970000D03*
X64140000Y-61770000D03*
X57840000Y-61770000D03*
%TD*%
D12*
%TO.C,K7*%
X186980000Y-32790000D03*
X200430000Y-30250000D03*
%TD*%
%TO.C,K6*%
X167930000Y-32790000D03*
X181380000Y-30250000D03*
%TD*%
D19*
%TO.C,1.5u1*%
X130262500Y-95020000D03*
X116812500Y-97560000D03*
%TD*%
D12*
%TO.C,K4*%
X129830000Y-32790000D03*
X143280000Y-30250000D03*
%TD*%
%TO.C,K16*%
X167930000Y-51840000D03*
X181380000Y-49300000D03*
%TD*%
D30*
%TO.C,R1*%
X123850000Y-57245000D03*
X123850000Y-59070000D03*
%TD*%
D12*
%TO.C,K27*%
X186980000Y-70890000D03*
X200430000Y-68350000D03*
%TD*%
D21*
%TO.C,2u3*%
X129830000Y-89940000D03*
D12*
X143280000Y-87400000D03*
%TD*%
D39*
%TO.C,C1*%
X183570000Y-59280000D03*
X183570000Y-61180000D03*
%TD*%
D40*
%TO.C,D5*%
X157397276Y-39762950D03*
X159042724Y-40712950D03*
X157220000Y-41970000D03*
%TD*%
D13*
%TO.C,C9*%
X171810000Y-61180000D03*
X171810000Y-59280000D03*
%TD*%
D41*
%TO.C,U3*%
X147616561Y-59870000D03*
X146715000Y-58968439D03*
X146715000Y-60771561D03*
X145813439Y-59870000D03*
D42*
X147307202Y-55600843D03*
X147590045Y-55883686D03*
X147872887Y-56166528D03*
X148155730Y-56449371D03*
X148438573Y-56732214D03*
X148721415Y-57015056D03*
X149004258Y-57297899D03*
X149287101Y-57580742D03*
X149569944Y-57863585D03*
X149852786Y-58146427D03*
X150135629Y-58429270D03*
X150418472Y-58712113D03*
X150701314Y-58994955D03*
X150984157Y-59277798D03*
D43*
X150984157Y-60462202D03*
X150701314Y-60745045D03*
X150418472Y-61027887D03*
X150135629Y-61310730D03*
X149852786Y-61593573D03*
X149569944Y-61876415D03*
X149287101Y-62159258D03*
X149004258Y-62442101D03*
X148721415Y-62724944D03*
X148438573Y-63007786D03*
X148155730Y-63290629D03*
X147872887Y-63573472D03*
X147590045Y-63856314D03*
X147307202Y-64139157D03*
D42*
X146122798Y-64139157D03*
X145839955Y-63856314D03*
X145557113Y-63573472D03*
X145274270Y-63290629D03*
X144991427Y-63007786D03*
X144708585Y-62724944D03*
X144425742Y-62442101D03*
X144142899Y-62159258D03*
X143860056Y-61876415D03*
X143577214Y-61593573D03*
X143294371Y-61310730D03*
X143011528Y-61027887D03*
X142728686Y-60745045D03*
X142445843Y-60462202D03*
D43*
X142445843Y-59277798D03*
X142728686Y-58994955D03*
X143011528Y-58712113D03*
X143294371Y-58429270D03*
X143577214Y-58146427D03*
X143860056Y-57863585D03*
X144142899Y-57580742D03*
X144425742Y-57297899D03*
X144708585Y-57015056D03*
X144991427Y-56732214D03*
X145274270Y-56449371D03*
X145557113Y-56166528D03*
X145839955Y-55883686D03*
X146122798Y-55600843D03*
%TD*%
D13*
%TO.C,C10*%
X139890000Y-63980000D03*
X139890000Y-62080000D03*
%TD*%
D44*
%TO.C,R8*%
X226630000Y-61802500D03*
X226630000Y-59977500D03*
%TD*%
D15*
%TO.C,D12*%
X129890000Y-75990000D03*
X128018865Y-75660068D03*
X129301729Y-73855418D03*
%TD*%
D12*
%TO.C,2u_1.25option1*%
X120305000Y-89940000D03*
D21*
X133755000Y-87400000D03*
%TD*%
D12*
%TO.C,K11*%
X72680000Y-51840000D03*
X86130000Y-49300000D03*
%TD*%
D21*
%TO.C,1.5u3*%
X167930000Y-89940000D03*
X181380000Y-87400000D03*
%TD*%
D27*
%TO.C,D17*%
X151649216Y-82069842D03*
X149778081Y-82399774D03*
X150366352Y-80265192D03*
%TD*%
D13*
%TO.C,C6*%
X94970000Y-61180000D03*
X94970000Y-59280000D03*
%TD*%
D45*
%TO.C,U2*%
X125805000Y-56270000D03*
X127075000Y-56270000D03*
X128345000Y-56270000D03*
X129615000Y-56270000D03*
X129615000Y-63470000D03*
X128345000Y-63470000D03*
X127075000Y-63470000D03*
X125805000Y-63470000D03*
%TD*%
D12*
%TO.C,K1*%
X72680000Y-32790000D03*
X86130000Y-30250000D03*
%TD*%
D13*
%TO.C,C14*%
X137880000Y-63980000D03*
X137880000Y-62080000D03*
%TD*%
D46*
%TO.C,D11*%
X133134955Y-78046693D03*
X131679470Y-76825396D03*
X133692788Y-75903956D03*
%TD*%
D21*
%TO.C,2u1*%
X110780000Y-89940000D03*
D12*
X124230000Y-87400000D03*
%TD*%
D13*
%TO.C,C13*%
X173840000Y-61180000D03*
X173840000Y-59280000D03*
%TD*%
D12*
%TO.C,K10*%
X53630000Y-51840000D03*
X67080000Y-49300000D03*
%TD*%
M02*
