%TF.GenerationSoftware,KiCad,Pcbnew,7.0.8*%
%TF.CreationDate,2023-10-05T16:55:04+02:00*%
%TF.ProjectId,Endeavour-2,456e6465-6176-46f7-9572-2d322e6b6963,rev?*%
%TF.SameCoordinates,Original*%
%TF.FileFunction,Soldermask,Bot*%
%TF.FilePolarity,Negative*%
%FSLAX46Y46*%
G04 Gerber Fmt 4.6, Leading zero omitted, Abs format (unit mm)*
G04 Created by KiCad (PCBNEW 7.0.8) date 2023-10-05 16:55:04*
%MOMM*%
%LPD*%
G01*
G04 APERTURE LIST*
G04 Aperture macros list*
%AMRoundRect*
0 Rectangle with rounded corners*
0 $1 Rounding radius*
0 $2 $3 $4 $5 $6 $7 $8 $9 X,Y pos of 4 corners*
0 Add a 4 corners polygon primitive as box body*
4,1,4,$2,$3,$4,$5,$6,$7,$8,$9,$2,$3,0*
0 Add four circle primitives for the rounded corners*
1,1,$1+$1,$2,$3*
1,1,$1+$1,$4,$5*
1,1,$1+$1,$6,$7*
1,1,$1+$1,$8,$9*
0 Add four rect primitives between the rounded corners*
20,1,$1+$1,$2,$3,$4,$5,0*
20,1,$1+$1,$4,$5,$6,$7,0*
20,1,$1+$1,$6,$7,$8,$9,0*
20,1,$1+$1,$8,$9,$2,$3,0*%
%AMRotRect*
0 Rectangle, with rotation*
0 The origin of the aperture is its center*
0 $1 length*
0 $2 width*
0 $3 Rotation angle, in degrees counterclockwise*
0 Add horizontal line*
21,1,$1,$2,0,0,$3*%
G04 Aperture macros list end*
%ADD10C,3.048000*%
%ADD11C,3.987800*%
%ADD12C,0.650000*%
%ADD13R,0.600000X1.450000*%
%ADD14R,0.300000X1.450000*%
%ADD15O,1.000000X1.600000*%
%ADD16O,1.000000X2.100000*%
%ADD17C,1.750000*%
%ADD18C,3.600000*%
%ADD19RoundRect,0.250000X1.025000X1.000000X-1.025000X1.000000X-1.025000X-1.000000X1.025000X-1.000000X0*%
%ADD20RoundRect,0.250000X0.475000X-0.250000X0.475000X0.250000X-0.475000X0.250000X-0.475000X-0.250000X0*%
%ADD21RotRect,0.900000X0.800000X310.000000*%
%ADD22RotRect,0.900000X0.800000X80.000000*%
%ADD23RoundRect,0.250000X0.262500X0.450000X-0.262500X0.450000X-0.262500X-0.450000X0.262500X-0.450000X0*%
%ADD24RotRect,0.900000X0.800000X290.000000*%
%ADD25RotRect,1.400000X1.200000X45.000000*%
%ADD26RoundRect,0.250000X-1.025000X-1.000000X1.025000X-1.000000X1.025000X1.000000X-1.025000X1.000000X0*%
%ADD27R,0.800000X0.900000*%
%ADD28C,3.000000*%
%ADD29RoundRect,0.200000X1.075000X0.800000X-1.075000X0.800000X-1.075000X-0.800000X1.075000X-0.800000X0*%
%ADD30RoundRect,0.250000X-0.262500X-0.450000X0.262500X-0.450000X0.262500X0.450000X-0.262500X0.450000X0*%
%ADD31RoundRect,0.250000X-0.512652X-0.159099X-0.159099X-0.512652X0.512652X0.159099X0.159099X0.512652X0*%
%ADD32RoundRect,0.250000X-0.503814X-0.132583X-0.132583X-0.503814X0.503814X0.132583X0.132583X0.503814X0*%
%ADD33R,1.350000X1.350000*%
%ADD34O,1.350000X1.350000*%
%ADD35RoundRect,0.250000X-0.375000X-0.625000X0.375000X-0.625000X0.375000X0.625000X-0.375000X0.625000X0*%
%ADD36RotRect,0.900000X0.800000X120.000000*%
%ADD37RotRect,0.900000X0.800000X100.000000*%
%ADD38RotRect,0.900000X0.800000X320.000000*%
%ADD39RotRect,0.900000X0.800000X300.000000*%
%ADD40RoundRect,0.250000X-0.450000X0.262500X-0.450000X-0.262500X0.450000X-0.262500X0.450000X0.262500X0*%
%ADD41RoundRect,0.150000X-0.512500X-0.150000X0.512500X-0.150000X0.512500X0.150000X-0.512500X0.150000X0*%
%ADD42RotRect,0.900000X0.800000X220.000000*%
%ADD43R,1.700000X1.700000*%
%ADD44O,1.700000X1.700000*%
%ADD45RotRect,0.900000X0.800000X230.000000*%
%ADD46RotRect,0.900000X0.800000X250.000000*%
%ADD47RotRect,0.900000X0.800000X130.000000*%
%ADD48RotRect,0.900000X0.800000X60.000000*%
%ADD49R,1.700000X1.000000*%
%ADD50RoundRect,0.250000X0.250000X0.475000X-0.250000X0.475000X-0.250000X-0.475000X0.250000X-0.475000X0*%
%ADD51C,1.000000*%
%ADD52RoundRect,0.250000X-0.475000X0.250000X-0.475000X-0.250000X0.475000X-0.250000X0.475000X0.250000X0*%
%ADD53RotRect,0.900000X0.800000X240.000000*%
%ADD54RoundRect,0.050000X0.238649X0.309359X-0.309359X-0.238649X-0.238649X-0.309359X0.309359X0.238649X0*%
%ADD55RoundRect,0.050000X-0.238649X0.309359X-0.309359X0.238649X0.238649X-0.309359X0.309359X-0.238649X0*%
%ADD56RoundRect,0.144000X0.000000X2.059095X-2.059095X0.000000X0.000000X-2.059095X2.059095X0.000000X0*%
%ADD57RoundRect,0.250000X0.450000X-0.262500X0.450000X0.262500X-0.450000X0.262500X-0.450000X-0.262500X0*%
%ADD58RoundRect,0.150000X-0.150000X0.650000X-0.150000X-0.650000X0.150000X-0.650000X0.150000X0.650000X0*%
%ADD59RotRect,0.900000X0.800000X50.000000*%
G04 APERTURE END LIST*
D10*
%TO.C,REF\u002A\u002A*%
X139571250Y-99465000D03*
D11*
X139571250Y-84225000D03*
D10*
X115758750Y-99465000D03*
D11*
X115758750Y-84225000D03*
%TD*%
D10*
%TO.C,REF\u002A\u002A*%
X177671250Y-99465000D03*
D11*
X177671250Y-84225000D03*
D10*
X153858750Y-99465000D03*
D11*
X153858750Y-84225000D03*
%TD*%
D12*
%TO.C,J1*%
X143825000Y-23642500D03*
X149605000Y-23642500D03*
D13*
X143465000Y-25087500D03*
X144265000Y-25087500D03*
D14*
X145465000Y-25087500D03*
X146465000Y-25087500D03*
X146965000Y-25087500D03*
X147965000Y-25087500D03*
D13*
X149165000Y-25087500D03*
X149965000Y-25087500D03*
X149965000Y-25087500D03*
X149165000Y-25087500D03*
D14*
X148465000Y-25087500D03*
X147465000Y-25087500D03*
X145965000Y-25087500D03*
X144965000Y-25087500D03*
D13*
X144265000Y-25087500D03*
X143465000Y-25087500D03*
D15*
X142395000Y-19992500D03*
D16*
X142395000Y-24172500D03*
D15*
X151035000Y-19992500D03*
D16*
X151035000Y-24172500D03*
%TD*%
D17*
%TO.C,K20*%
X66070000Y-73430000D03*
D11*
X60990000Y-73430000D03*
D17*
X55910000Y-73430000D03*
D18*
X57180000Y-70890000D03*
D19*
X53630000Y-70890000D03*
X67080000Y-68350000D03*
D18*
X63530000Y-68350000D03*
%TD*%
D20*
%TO.C,C5*%
X123850000Y-62560000D03*
X123850000Y-60660000D03*
%TD*%
D21*
%TO.C,D10*%
X131189470Y-43154604D03*
X132644955Y-41933307D03*
X133202788Y-44076044D03*
%TD*%
D22*
%TO.C,D19*%
X143651919Y-82399774D03*
X141780784Y-82069842D03*
X143063648Y-80265192D03*
%TD*%
D17*
%TO.C,K18*%
X218470000Y-54380000D03*
D11*
X213390000Y-54380000D03*
D17*
X208310000Y-54380000D03*
D18*
X209580000Y-51840000D03*
D19*
X206030000Y-51840000D03*
X219480000Y-49300000D03*
D18*
X215930000Y-49300000D03*
%TD*%
D23*
%TO.C,R7*%
X145532500Y-27230000D03*
X143707500Y-27230000D03*
%TD*%
D24*
%TO.C,D2*%
X137925272Y-38875227D03*
X139710688Y-38225388D03*
X139502020Y-40429693D03*
%TD*%
D17*
%TO.C,K23*%
X123220000Y-73430000D03*
D11*
X118140000Y-73430000D03*
D17*
X113060000Y-73430000D03*
D18*
X114330000Y-70890000D03*
D19*
X110780000Y-70890000D03*
X124230000Y-68350000D03*
D18*
X120680000Y-68350000D03*
%TD*%
D17*
%TO.C,K9*%
X237520000Y-35330000D03*
D11*
X232440000Y-35330000D03*
D17*
X227360000Y-35330000D03*
D18*
X228630000Y-32790000D03*
D19*
X225080000Y-32790000D03*
X238530000Y-30250000D03*
D18*
X234980000Y-30250000D03*
%TD*%
D25*
%TO.C,Y0*%
X152551142Y-63496777D03*
X154106777Y-61941142D03*
X155308858Y-63143223D03*
X153753223Y-64698858D03*
%TD*%
D17*
%TO.C,K22*%
X104170000Y-73430000D03*
D11*
X99090000Y-73430000D03*
D17*
X94010000Y-73430000D03*
D18*
X95280000Y-70890000D03*
D19*
X91730000Y-70890000D03*
X105180000Y-68350000D03*
D18*
X101630000Y-68350000D03*
%TD*%
D17*
%TO.C,1.5u2*%
X165447500Y-92480000D03*
D11*
X170527500Y-92480000D03*
D17*
X175607500Y-92480000D03*
D18*
X174337500Y-95020000D03*
D26*
X177887500Y-95020000D03*
X164437500Y-97560000D03*
D18*
X167987500Y-97560000D03*
%TD*%
D27*
%TO.C,D3*%
X145765000Y-37140000D03*
X147665000Y-37140000D03*
X146715000Y-39140000D03*
%TD*%
D17*
%TO.C,1u8*%
X237520000Y-92480000D03*
D11*
X232440000Y-92480000D03*
D17*
X227360000Y-92480000D03*
D18*
X228630000Y-89940000D03*
D19*
X225080000Y-89940000D03*
X238530000Y-87400000D03*
D18*
X234980000Y-87400000D03*
%TD*%
D17*
%TO.C,1u_space1*%
X65435000Y-92480000D03*
D11*
X70515000Y-92480000D03*
D17*
X75595000Y-92480000D03*
D18*
X74325000Y-95020000D03*
D26*
X77875000Y-95020000D03*
X64425000Y-97560000D03*
D18*
X67975000Y-97560000D03*
%TD*%
D17*
%TO.C,2u2*%
X161320000Y-92480000D03*
D11*
X156240000Y-92480000D03*
D28*
X152430000Y-89940000D03*
D17*
X151160000Y-92480000D03*
D29*
X148880000Y-89940000D03*
D19*
X162330000Y-87400000D03*
D18*
X158780000Y-87400000D03*
%TD*%
D17*
%TO.C,K19*%
X237520000Y-54380000D03*
D11*
X232440000Y-54380000D03*
D17*
X227360000Y-54380000D03*
D18*
X228630000Y-51840000D03*
D19*
X225080000Y-51840000D03*
X238530000Y-49300000D03*
D18*
X234980000Y-49300000D03*
%TD*%
D27*
%TO.C,D8*%
X147665000Y-48630000D03*
X145765000Y-48630000D03*
X146715000Y-46630000D03*
%TD*%
D30*
%TO.C,R6*%
X148427500Y-27230000D03*
X150252500Y-27230000D03*
%TD*%
D31*
%TO.C,C3*%
X151030000Y-64870000D03*
X152373502Y-66213502D03*
%TD*%
D32*
%TO.C,R5*%
X149644765Y-66304765D03*
X150935235Y-67595235D03*
%TD*%
D17*
%TO.C,K5*%
X161320000Y-35330000D03*
D11*
X156240000Y-35330000D03*
D17*
X151160000Y-35330000D03*
D18*
X152430000Y-32790000D03*
D19*
X148880000Y-32790000D03*
X162330000Y-30250000D03*
D18*
X158780000Y-30250000D03*
%TD*%
D31*
%TO.C,C2*%
X155516498Y-60406498D03*
X156860000Y-61750000D03*
%TD*%
D20*
%TO.C,C11*%
X169790000Y-61180000D03*
X169790000Y-59280000D03*
%TD*%
D33*
%TO.C,J2*%
X221710000Y-57570000D03*
D34*
X221710000Y-55570000D03*
X221710000Y-53570000D03*
%TD*%
D35*
%TO.C,F0*%
X152000000Y-27230000D03*
X154800000Y-27230000D03*
%TD*%
D36*
%TO.C,D16*%
X158572724Y-79271025D03*
X156927276Y-80221025D03*
X156750000Y-78013975D03*
%TD*%
D17*
%TO.C,2u4*%
X170845000Y-92480000D03*
D28*
X168305000Y-87400000D03*
D11*
X165765000Y-92480000D03*
D17*
X160685000Y-92480000D03*
D18*
X161955000Y-89940000D03*
D19*
X158405000Y-89940000D03*
D29*
X171855000Y-87400000D03*
%TD*%
D37*
%TO.C,D14*%
X165399216Y-75679842D03*
X163528081Y-76009774D03*
X164116352Y-73875192D03*
%TD*%
D38*
%TO.C,D9*%
X128463307Y-46104955D03*
X129684604Y-44649470D03*
X130606044Y-46662788D03*
%TD*%
D17*
%TO.C,K3*%
X123220000Y-35330000D03*
D11*
X118140000Y-35330000D03*
D17*
X113060000Y-35330000D03*
D18*
X114330000Y-32790000D03*
D19*
X110780000Y-32790000D03*
X124230000Y-30250000D03*
D18*
X120680000Y-30250000D03*
%TD*%
D20*
%TO.C,C7*%
X103220000Y-61180000D03*
X103220000Y-59280000D03*
%TD*%
D17*
%TO.C,1u6*%
X199420000Y-92480000D03*
D11*
X194340000Y-92480000D03*
D28*
X190530000Y-89940000D03*
D17*
X189260000Y-92480000D03*
D19*
X186980000Y-89940000D03*
X200430000Y-87400000D03*
D18*
X196880000Y-87400000D03*
%TD*%
D17*
%TO.C,K29*%
X237520000Y-73430000D03*
D11*
X232440000Y-73430000D03*
D17*
X227360000Y-73430000D03*
D18*
X228630000Y-70890000D03*
D19*
X225080000Y-70890000D03*
X238530000Y-68350000D03*
D18*
X234980000Y-68350000D03*
%TD*%
D17*
%TO.C,1u_space2*%
X217835000Y-92480000D03*
D11*
X222915000Y-92480000D03*
D17*
X227995000Y-92480000D03*
D18*
X226725000Y-95020000D03*
D26*
X230275000Y-95020000D03*
X216825000Y-97560000D03*
D18*
X220375000Y-97560000D03*
%TD*%
D17*
%TO.C,K12*%
X104170000Y-54380000D03*
D11*
X99090000Y-54380000D03*
D17*
X94010000Y-54380000D03*
D18*
X95280000Y-51840000D03*
D19*
X91730000Y-51840000D03*
X105180000Y-49300000D03*
D18*
X101630000Y-49300000D03*
%TD*%
D17*
%TO.C,K21*%
X85120000Y-73430000D03*
D11*
X80040000Y-73430000D03*
D17*
X74960000Y-73430000D03*
D18*
X76230000Y-70890000D03*
D19*
X72680000Y-70890000D03*
X86130000Y-68350000D03*
D18*
X82580000Y-68350000D03*
%TD*%
D17*
%TO.C,SPACE1*%
X151795000Y-92480000D03*
D28*
X149255000Y-87400000D03*
D11*
X146715000Y-92480000D03*
D17*
X141635000Y-92480000D03*
D18*
X142905000Y-89940000D03*
D19*
X139355000Y-89940000D03*
D29*
X152805000Y-87400000D03*
%TD*%
D39*
%TO.C,D1*%
X134367276Y-40712950D03*
X136012724Y-39762950D03*
X136190000Y-41970000D03*
%TD*%
D40*
%TO.C,R4*%
X142630000Y-44967500D03*
X142630000Y-46792500D03*
%TD*%
D27*
%TO.C,D18*%
X147660000Y-82590000D03*
X145760000Y-82590000D03*
X146710000Y-80590000D03*
%TD*%
D41*
%TO.C,U44*%
X145572500Y-43570000D03*
X145572500Y-42620000D03*
X145572500Y-41670000D03*
X147847500Y-41670000D03*
X147847500Y-42620000D03*
X147847500Y-43570000D03*
%TD*%
D20*
%TO.C,C4*%
X177880000Y-61180000D03*
X177880000Y-59280000D03*
%TD*%
D27*
%TO.C,D13*%
X145820000Y-74070000D03*
X147720000Y-74070000D03*
X146770000Y-76070000D03*
%TD*%
D20*
%TO.C,C12*%
X167750000Y-61180000D03*
X167750000Y-59280000D03*
%TD*%
D17*
%TO.C,K2*%
X104170000Y-35330000D03*
D11*
X99090000Y-35330000D03*
D17*
X94010000Y-35330000D03*
D18*
X95280000Y-32790000D03*
D19*
X91730000Y-32790000D03*
X105180000Y-30250000D03*
D18*
X101630000Y-30250000D03*
%TD*%
D20*
%TO.C,C17*%
X175860000Y-61180000D03*
X175860000Y-59280000D03*
%TD*%
D42*
%TO.C,D7*%
X163735396Y-44649470D03*
X164956693Y-46104955D03*
X162813956Y-46662788D03*
%TD*%
D17*
%TO.C,K17*%
X199420000Y-54380000D03*
D11*
X194340000Y-54380000D03*
D17*
X189260000Y-54380000D03*
D18*
X190530000Y-51840000D03*
D19*
X186980000Y-51840000D03*
X200430000Y-49300000D03*
D18*
X196880000Y-49300000D03*
%TD*%
D17*
%TO.C,K28*%
X218470000Y-73430000D03*
D11*
X213390000Y-73430000D03*
D17*
X208310000Y-73430000D03*
D18*
X209580000Y-70890000D03*
D19*
X206030000Y-70890000D03*
X219480000Y-68350000D03*
D18*
X215930000Y-68350000D03*
%TD*%
D17*
%TO.C,1u1*%
X66070000Y-92480000D03*
D11*
X60990000Y-92480000D03*
D17*
X55910000Y-92480000D03*
D18*
X57180000Y-89940000D03*
D19*
X53630000Y-89940000D03*
X67080000Y-87400000D03*
D18*
X63530000Y-87400000D03*
%TD*%
D17*
%TO.C,K24*%
X142270000Y-73430000D03*
D11*
X137190000Y-73430000D03*
D17*
X132110000Y-73430000D03*
D18*
X133380000Y-70890000D03*
D19*
X129830000Y-70890000D03*
X143280000Y-68350000D03*
D18*
X139730000Y-68350000D03*
%TD*%
D17*
%TO.C,K25*%
X161320000Y-73430000D03*
D11*
X156240000Y-73430000D03*
D17*
X151160000Y-73430000D03*
D18*
X152430000Y-70890000D03*
D19*
X148880000Y-70890000D03*
X162330000Y-68350000D03*
D18*
X158780000Y-68350000D03*
%TD*%
D43*
%TO.C,J0*%
X180380000Y-63730000D03*
D44*
X177840000Y-63730000D03*
X175300000Y-63730000D03*
X172760000Y-63730000D03*
X170220000Y-63730000D03*
%TD*%
D40*
%TO.C,R3*%
X150780000Y-44967500D03*
X150780000Y-46792500D03*
%TD*%
D17*
%TO.C,1u7*%
X218470000Y-92480000D03*
D11*
X213390000Y-92480000D03*
D17*
X208310000Y-92480000D03*
D18*
X209580000Y-89940000D03*
D19*
X206030000Y-89940000D03*
X219480000Y-87400000D03*
D18*
X215930000Y-87400000D03*
%TD*%
D45*
%TO.C,D6*%
X160785045Y-41933307D03*
X162240530Y-43154604D03*
X160227212Y-44076044D03*
%TD*%
D17*
%TO.C,K13*%
X123220000Y-54380000D03*
D11*
X118140000Y-54380000D03*
D17*
X113060000Y-54380000D03*
D18*
X114330000Y-51840000D03*
D19*
X110780000Y-51840000D03*
X124230000Y-49300000D03*
D18*
X120680000Y-49300000D03*
%TD*%
D17*
%TO.C,K0*%
X66070000Y-35330000D03*
D11*
X60990000Y-35330000D03*
D17*
X55910000Y-35330000D03*
D18*
X57180000Y-32790000D03*
D19*
X53630000Y-32790000D03*
X67080000Y-30250000D03*
D18*
X63530000Y-30250000D03*
%TD*%
D17*
%TO.C,1u3*%
X104170000Y-92480000D03*
D28*
X101630000Y-87400000D03*
D11*
X99090000Y-92480000D03*
D17*
X94010000Y-92480000D03*
D18*
X95280000Y-89940000D03*
D19*
X91730000Y-89940000D03*
X105180000Y-87400000D03*
%TD*%
D17*
%TO.C,K26*%
X180370000Y-73430000D03*
D11*
X175290000Y-73430000D03*
D17*
X170210000Y-73430000D03*
D18*
X171480000Y-70890000D03*
D19*
X167930000Y-70890000D03*
X181380000Y-68350000D03*
D18*
X177830000Y-68350000D03*
%TD*%
D46*
%TO.C,D4*%
X153689312Y-38225388D03*
X155474728Y-38875227D03*
X153897980Y-40429693D03*
%TD*%
D17*
%TO.C,K8*%
X218470000Y-35330000D03*
D11*
X213390000Y-35330000D03*
D17*
X208310000Y-35330000D03*
D18*
X209580000Y-32790000D03*
D19*
X206030000Y-32790000D03*
X219480000Y-30250000D03*
D18*
X215930000Y-30250000D03*
%TD*%
D47*
%TO.C,D15*%
X161760530Y-76845396D03*
X160305045Y-78066693D03*
X159747212Y-75923956D03*
%TD*%
D17*
%TO.C,1u4_offset1*%
X108932500Y-92480000D03*
D11*
X103852500Y-92480000D03*
D28*
X100042500Y-89940000D03*
D17*
X98772500Y-92480000D03*
D19*
X96492500Y-89940000D03*
D29*
X109942500Y-87400000D03*
D18*
X106392500Y-87400000D03*
%TD*%
D48*
%TO.C,D20*%
X136492724Y-80221025D03*
X134847276Y-79271025D03*
X136670000Y-78013975D03*
%TD*%
D17*
%TO.C,K14*%
X142270000Y-54380000D03*
D11*
X137190000Y-54380000D03*
D17*
X132110000Y-54380000D03*
D18*
X133380000Y-51840000D03*
D19*
X129830000Y-51840000D03*
X143280000Y-49300000D03*
D18*
X139730000Y-49300000D03*
%TD*%
D17*
%TO.C,1u4*%
X194657500Y-92480000D03*
D11*
X189577500Y-92480000D03*
D17*
X184497500Y-92480000D03*
D18*
X185767500Y-89940000D03*
D29*
X182217500Y-89940000D03*
D19*
X195667500Y-87400000D03*
D18*
X192117500Y-87400000D03*
%TD*%
D49*
%TO.C,SW2*%
X235590000Y-57970000D03*
X229290000Y-57970000D03*
X235590000Y-61770000D03*
X229290000Y-61770000D03*
%TD*%
D27*
%TO.C,U4*%
X181660000Y-61230000D03*
X179760000Y-61230000D03*
X180710000Y-59230000D03*
%TD*%
D17*
%TO.C,1u2*%
X85120000Y-92480000D03*
D11*
X80040000Y-92480000D03*
D17*
X74960000Y-92480000D03*
D18*
X76230000Y-89940000D03*
D19*
X72680000Y-89940000D03*
X86130000Y-87400000D03*
D18*
X82580000Y-87400000D03*
%TD*%
D43*
%TO.C,J3*%
X196865000Y-63755000D03*
D44*
X194325000Y-63755000D03*
X191785000Y-63755000D03*
%TD*%
D50*
%TO.C,C8*%
X100040000Y-57940000D03*
X98140000Y-57940000D03*
%TD*%
D17*
%TO.C,K15*%
X161320000Y-54380000D03*
D11*
X156240000Y-54380000D03*
D17*
X151160000Y-54380000D03*
D18*
X152430000Y-51840000D03*
D19*
X148880000Y-51840000D03*
X162330000Y-49300000D03*
D18*
X158780000Y-49300000D03*
%TD*%
D49*
%TO.C,SW0*%
X64140000Y-57970000D03*
X57840000Y-57970000D03*
X64140000Y-61770000D03*
X57840000Y-61770000D03*
%TD*%
D17*
%TO.C,K7*%
X199420000Y-35330000D03*
D11*
X194340000Y-35330000D03*
D17*
X189260000Y-35330000D03*
D18*
X190530000Y-32790000D03*
D19*
X186980000Y-32790000D03*
X200430000Y-30250000D03*
D18*
X196880000Y-30250000D03*
%TD*%
D17*
%TO.C,K6*%
X180370000Y-35330000D03*
D11*
X175290000Y-35330000D03*
D17*
X170210000Y-35330000D03*
D18*
X171480000Y-32790000D03*
D19*
X167930000Y-32790000D03*
X181380000Y-30250000D03*
D18*
X177830000Y-30250000D03*
%TD*%
D51*
%TO.C,SW1*%
X152315000Y-92480000D03*
X141115000Y-92480000D03*
%TD*%
D17*
%TO.C,1.5u1*%
X117822500Y-92480000D03*
D11*
X122902500Y-92480000D03*
D17*
X127982500Y-92480000D03*
D18*
X126712500Y-95020000D03*
D26*
X130262500Y-95020000D03*
X116812500Y-97560000D03*
D18*
X120362500Y-97560000D03*
%TD*%
D17*
%TO.C,K4*%
X142270000Y-35330000D03*
D11*
X137190000Y-35330000D03*
D17*
X132110000Y-35330000D03*
D18*
X133380000Y-32790000D03*
D19*
X129830000Y-32790000D03*
X143280000Y-30250000D03*
D18*
X139730000Y-30250000D03*
%TD*%
D17*
%TO.C,K16*%
X180370000Y-54380000D03*
D11*
X175290000Y-54380000D03*
D17*
X170210000Y-54380000D03*
D18*
X171480000Y-51840000D03*
D19*
X167930000Y-51840000D03*
X181380000Y-49300000D03*
D18*
X177830000Y-49300000D03*
%TD*%
D40*
%TO.C,R1*%
X123850000Y-57245000D03*
X123850000Y-59070000D03*
%TD*%
D17*
%TO.C,K27*%
X199420000Y-73430000D03*
D11*
X194340000Y-73430000D03*
D17*
X189260000Y-73430000D03*
D18*
X190530000Y-70890000D03*
D19*
X186980000Y-70890000D03*
X200430000Y-68350000D03*
D18*
X196880000Y-68350000D03*
%TD*%
D17*
%TO.C,2u3*%
X142270000Y-92480000D03*
D11*
X137190000Y-92480000D03*
D28*
X133380000Y-89940000D03*
D17*
X132110000Y-92480000D03*
D29*
X129830000Y-89940000D03*
D19*
X143280000Y-87400000D03*
D18*
X139730000Y-87400000D03*
%TD*%
D52*
%TO.C,C1*%
X183570000Y-59280000D03*
X183570000Y-61180000D03*
%TD*%
D53*
%TO.C,D5*%
X157397276Y-39762950D03*
X159042724Y-40712950D03*
X157220000Y-41970000D03*
%TD*%
D20*
%TO.C,C9*%
X171810000Y-61180000D03*
X171810000Y-59280000D03*
%TD*%
D54*
%TO.C,U3*%
X147307202Y-55600843D03*
X147590045Y-55883686D03*
X147872887Y-56166528D03*
X148155730Y-56449371D03*
X148438573Y-56732214D03*
X148721415Y-57015056D03*
X149004258Y-57297899D03*
X149287101Y-57580742D03*
X149569944Y-57863585D03*
X149852786Y-58146427D03*
X150135629Y-58429270D03*
X150418472Y-58712113D03*
X150701314Y-58994955D03*
X150984157Y-59277798D03*
D55*
X150984157Y-60462202D03*
X150701314Y-60745045D03*
X150418472Y-61027887D03*
X150135629Y-61310730D03*
X149852786Y-61593573D03*
X149569944Y-61876415D03*
X149287101Y-62159258D03*
X149004258Y-62442101D03*
X148721415Y-62724944D03*
X148438573Y-63007786D03*
X148155730Y-63290629D03*
X147872887Y-63573472D03*
X147590045Y-63856314D03*
X147307202Y-64139157D03*
D54*
X146122798Y-64139157D03*
X145839955Y-63856314D03*
X145557113Y-63573472D03*
X145274270Y-63290629D03*
X144991427Y-63007786D03*
X144708585Y-62724944D03*
X144425742Y-62442101D03*
X144142899Y-62159258D03*
X143860056Y-61876415D03*
X143577214Y-61593573D03*
X143294371Y-61310730D03*
X143011528Y-61027887D03*
X142728686Y-60745045D03*
X142445843Y-60462202D03*
D55*
X142445843Y-59277798D03*
X142728686Y-58994955D03*
X143011528Y-58712113D03*
X143294371Y-58429270D03*
X143577214Y-58146427D03*
X143860056Y-57863585D03*
X144142899Y-57580742D03*
X144425742Y-57297899D03*
X144708585Y-57015056D03*
X144991427Y-56732214D03*
X145274270Y-56449371D03*
X145557113Y-56166528D03*
X145839955Y-55883686D03*
X146122798Y-55600843D03*
D56*
X146715000Y-59870000D03*
%TD*%
D20*
%TO.C,C10*%
X139890000Y-63980000D03*
X139890000Y-62080000D03*
%TD*%
D57*
%TO.C,R8*%
X226630000Y-61802500D03*
X226630000Y-59977500D03*
%TD*%
D22*
%TO.C,D12*%
X129890000Y-75990000D03*
X128018865Y-75660068D03*
X129301729Y-73855418D03*
%TD*%
D17*
%TO.C,2u_1.25option1*%
X132745000Y-92480000D03*
D28*
X130205000Y-87400000D03*
D11*
X127665000Y-92480000D03*
D17*
X122585000Y-92480000D03*
D18*
X123855000Y-89940000D03*
D19*
X120305000Y-89940000D03*
D29*
X133755000Y-87400000D03*
%TD*%
D43*
%TO.C,J4*%
X100365000Y-60230000D03*
D44*
X97825000Y-60230000D03*
%TD*%
D17*
%TO.C,K11*%
X85120000Y-54380000D03*
D11*
X80040000Y-54380000D03*
D17*
X74960000Y-54380000D03*
D18*
X76230000Y-51840000D03*
D19*
X72680000Y-51840000D03*
X86130000Y-49300000D03*
D18*
X82580000Y-49300000D03*
%TD*%
D17*
%TO.C,1.5u3*%
X180370000Y-92480000D03*
D11*
X175290000Y-92480000D03*
D28*
X171480000Y-89940000D03*
D17*
X170210000Y-92480000D03*
D29*
X167930000Y-89940000D03*
X181380000Y-87400000D03*
D18*
X177830000Y-87400000D03*
%TD*%
D37*
%TO.C,D17*%
X151649216Y-82069842D03*
X149778081Y-82399774D03*
X150366352Y-80265192D03*
%TD*%
D20*
%TO.C,C6*%
X94970000Y-61180000D03*
X94970000Y-59280000D03*
%TD*%
D58*
%TO.C,U2*%
X125805000Y-56270000D03*
X127075000Y-56270000D03*
X128345000Y-56270000D03*
X129615000Y-56270000D03*
X129615000Y-63470000D03*
X128345000Y-63470000D03*
X127075000Y-63470000D03*
X125805000Y-63470000D03*
%TD*%
D17*
%TO.C,K1*%
X85120000Y-35330000D03*
D11*
X80040000Y-35330000D03*
D17*
X74960000Y-35330000D03*
D18*
X76230000Y-32790000D03*
D19*
X72680000Y-32790000D03*
X86130000Y-30250000D03*
D18*
X82580000Y-30250000D03*
%TD*%
D20*
%TO.C,C14*%
X137880000Y-63980000D03*
X137880000Y-62080000D03*
%TD*%
D59*
%TO.C,D11*%
X133134955Y-78046693D03*
X131679470Y-76825396D03*
X133692788Y-75903956D03*
%TD*%
D17*
%TO.C,2u1*%
X123220000Y-92480000D03*
D11*
X118140000Y-92480000D03*
D17*
X113060000Y-92480000D03*
D18*
X114330000Y-89940000D03*
D29*
X110780000Y-89940000D03*
D19*
X124230000Y-87400000D03*
D18*
X120680000Y-87400000D03*
%TD*%
D20*
%TO.C,C13*%
X173840000Y-61180000D03*
X173840000Y-59280000D03*
%TD*%
D17*
%TO.C,K10*%
X66070000Y-54380000D03*
D11*
X60990000Y-54380000D03*
D17*
X55910000Y-54380000D03*
D18*
X57180000Y-51840000D03*
D19*
X53630000Y-51840000D03*
X67080000Y-49300000D03*
D18*
X63530000Y-49300000D03*
%TD*%
M02*
