M48
; DRILL file {KiCad 7.0.8} date Thu 05 Oct 2023 16:55:06 CEST
; FORMAT={-:-/ absolute / metric / decimal}
; #@! TF.CreationDate,2023-10-05T16:55:06+02:00
; #@! TF.GenerationSoftware,Kicad,Pcbnew,7.0.8
; #@! TF.FileFunction,NonPlated,1,2,NPTH
FMAT,2
METRIC
; #@! TA.AperFunction,NonPlated,NPTH,ComponentDrill
T1C0.650
; #@! TA.AperFunction,NonPlated,NPTH,ComponentDrill
T2C1.500
; #@! TA.AperFunction,NonPlated,NPTH,ComponentDrill
T3C1.750
; #@! TA.AperFunction,NonPlated,NPTH,ComponentDrill
T4C3.000
; #@! TA.AperFunction,NonPlated,NPTH,ComponentDrill
T5C3.048
; #@! TA.AperFunction,NonPlated,NPTH,ComponentDrill
T6C3.988
%
G90
G05
T1
X143.825Y-23.642
X149.605Y-23.642
T3
X55.91Y-35.33
X55.91Y-54.38
X55.91Y-73.43
X55.91Y-92.48
X65.435Y-92.48
X66.07Y-35.33
X66.07Y-54.38
X66.07Y-73.43
X66.07Y-92.48
X74.96Y-35.33
X74.96Y-54.38
X74.96Y-73.43
X74.96Y-92.48
X75.595Y-92.48
X85.12Y-35.33
X85.12Y-54.38
X85.12Y-73.43
X85.12Y-92.48
X94.01Y-35.33
X94.01Y-54.38
X94.01Y-73.43
X94.01Y-92.48
X98.772Y-92.48
X104.17Y-35.33
X104.17Y-54.38
X104.17Y-73.43
X104.17Y-92.48
X108.932Y-92.48
X113.06Y-35.33
X113.06Y-54.38
X113.06Y-73.43
X113.06Y-92.48
X117.822Y-92.48
X122.585Y-92.48
X123.22Y-35.33
X123.22Y-54.38
X123.22Y-73.43
X123.22Y-92.48
X127.982Y-92.48
X132.11Y-35.33
X132.11Y-54.38
X132.11Y-73.43
X132.11Y-92.48
X132.745Y-92.48
X141.635Y-92.48
X142.27Y-35.33
X142.27Y-54.38
X142.27Y-73.43
X142.27Y-92.48
X151.16Y-35.33
X151.16Y-54.38
X151.16Y-73.43
X151.16Y-92.48
X151.795Y-92.48
X160.685Y-92.48
X161.32Y-35.33
X161.32Y-54.38
X161.32Y-73.43
X161.32Y-92.48
X165.447Y-92.48
X170.21Y-35.33
X170.21Y-54.38
X170.21Y-73.43
X170.21Y-92.48
X170.845Y-92.48
X175.607Y-92.48
X180.37Y-35.33
X180.37Y-54.38
X180.37Y-73.43
X180.37Y-92.48
X184.498Y-92.48
X189.26Y-35.33
X189.26Y-54.38
X189.26Y-73.43
X189.26Y-92.48
X194.657Y-92.48
X199.42Y-35.33
X199.42Y-54.38
X199.42Y-73.43
X199.42Y-92.48
X208.31Y-35.33
X208.31Y-54.38
X208.31Y-73.43
X208.31Y-92.48
X217.835Y-92.48
X218.47Y-35.33
X218.47Y-54.38
X218.47Y-73.43
X218.47Y-92.48
X227.36Y-35.33
X227.36Y-54.38
X227.36Y-73.43
X227.36Y-92.48
X227.995Y-92.48
X237.52Y-35.33
X237.52Y-54.38
X237.52Y-73.43
X237.52Y-92.48
T4
X100.042Y-89.94
X101.63Y-87.4
X130.205Y-87.4
X133.38Y-89.94
X149.255Y-87.4
X152.43Y-89.94
X168.305Y-87.4
X171.48Y-89.94
X190.53Y-89.94
T5
X115.759Y-99.465
X139.571Y-99.465
X153.859Y-99.465
X177.671Y-99.465
T6
X60.99Y-35.33
X60.99Y-54.38
X60.99Y-73.43
X60.99Y-92.48
X70.515Y-92.48
X80.04Y-35.33
X80.04Y-54.38
X80.04Y-73.43
X80.04Y-92.48
X99.09Y-35.33
X99.09Y-54.38
X99.09Y-73.43
X99.09Y-92.48
X103.852Y-92.48
X115.759Y-84.225
X118.14Y-35.33
X118.14Y-54.38
X118.14Y-73.43
X118.14Y-92.48
X122.902Y-92.48
X127.665Y-92.48
X137.19Y-35.33
X137.19Y-54.38
X137.19Y-73.43
X137.19Y-92.48
X139.571Y-84.225
X146.715Y-92.48
X153.859Y-84.225
X156.24Y-35.33
X156.24Y-54.38
X156.24Y-73.43
X156.24Y-92.48
X165.765Y-92.48
X170.528Y-92.48
X175.29Y-35.33
X175.29Y-54.38
X175.29Y-73.43
X175.29Y-92.48
X177.671Y-84.225
X189.577Y-92.48
X194.34Y-35.33
X194.34Y-54.38
X194.34Y-73.43
X194.34Y-92.48
X213.39Y-35.33
X213.39Y-54.38
X213.39Y-73.43
X213.39Y-92.48
X222.915Y-92.48
X232.44Y-35.33
X232.44Y-54.38
X232.44Y-73.43
X232.44Y-92.48
T2
G00X141.115Y-93.13
M15
G01X141.115Y-91.83
M16
G05
G00X152.315Y-93.13
M15
G01X152.315Y-91.83
M16
G05
T0
M30
