%TF.GenerationSoftware,KiCad,Pcbnew,5.1.10*%
%TF.CreationDate,2021-10-06T18:26:39+02:00*%
%TF.ProjectId,ortho-qaz,6f727468-6f2d-4716-917a-2e6b69636164,rev?*%
%TF.SameCoordinates,Original*%
%TF.FileFunction,Copper,L1,Top*%
%TF.FilePolarity,Positive*%
%FSLAX46Y46*%
G04 Gerber Fmt 4.6, Leading zero omitted, Abs format (unit mm)*
G04 Created by KiCad (PCBNEW 5.1.10) date 2021-10-06 18:26:39*
%MOMM*%
%LPD*%
G01*
G04 APERTURE LIST*
%TA.AperFunction,ComponentPad*%
%ADD10C,2.286000*%
%TD*%
%TA.AperFunction,ComponentPad*%
%ADD11O,1.000000X2.100000*%
%TD*%
%TA.AperFunction,ComponentPad*%
%ADD12O,1.000000X1.600000*%
%TD*%
%TA.AperFunction,ViaPad*%
%ADD13C,0.800000*%
%TD*%
%TA.AperFunction,Conductor*%
%ADD14C,0.250000*%
%TD*%
G04 APERTURE END LIST*
D10*
%TO.P,K26,2*%
%TO.N,Net-(D26-Pad2)*%
X171480000Y-70890000D03*
%TO.P,K26,1*%
%TO.N,col6*%
X177830000Y-68350000D03*
%TD*%
%TO.P,K24,2*%
%TO.N,Net-(D24-Pad2)*%
X133380000Y-70890000D03*
%TO.P,K24,1*%
%TO.N,col4*%
X139730000Y-68350000D03*
%TD*%
%TO.P,K39,2*%
%TO.N,Net-(D39-Pad2)*%
X228630000Y-89920000D03*
%TO.P,K39,1*%
%TO.N,col9*%
X234980000Y-87380000D03*
%TD*%
%TO.P,K38,2*%
%TO.N,Net-(D38-Pad2)*%
X209580000Y-89940000D03*
%TO.P,K38,1*%
%TO.N,col8*%
X215930000Y-87400000D03*
%TD*%
%TO.P,K37,2*%
%TO.N,Net-(D37-Pad2)*%
X190530000Y-89940000D03*
%TO.P,K37,1*%
%TO.N,col7*%
X196880000Y-87400000D03*
%TD*%
%TO.P,K35,2*%
%TO.N,Net-(D35-Pad2)*%
X161955000Y-89940000D03*
%TO.P,K35,1*%
%TO.N,col5*%
X168305000Y-87400000D03*
%TD*%
%TO.P,K33,2*%
%TO.N,Net-(D33-Pad2)*%
X123855000Y-89940000D03*
%TO.P,K33,1*%
%TO.N,col3*%
X130205000Y-87400000D03*
%TD*%
%TO.P,K32,2*%
%TO.N,Net-(D32-Pad2)*%
X95280000Y-89940000D03*
%TO.P,K32,1*%
%TO.N,col2*%
X101630000Y-87400000D03*
%TD*%
%TO.P,K31,2*%
%TO.N,Net-(D31-Pad2)*%
X76230000Y-89940000D03*
%TO.P,K31,1*%
%TO.N,col1*%
X82580000Y-87400000D03*
%TD*%
%TO.P,K30,2*%
%TO.N,Net-(D30-Pad2)*%
X57180000Y-89940000D03*
%TO.P,K30,1*%
%TO.N,col0*%
X63530000Y-87400000D03*
%TD*%
%TO.P,K29,2*%
%TO.N,Net-(D29-Pad2)*%
X228630000Y-70890000D03*
%TO.P,K29,1*%
%TO.N,col9*%
X234980000Y-68350000D03*
%TD*%
%TO.P,K28,2*%
%TO.N,Net-(D28-Pad2)*%
X209580000Y-70890000D03*
%TO.P,K28,1*%
%TO.N,col8*%
X215930000Y-68350000D03*
%TD*%
%TO.P,K27,2*%
%TO.N,Net-(D27-Pad2)*%
X190530000Y-70890000D03*
%TO.P,K27,1*%
%TO.N,col7*%
X196880000Y-68350000D03*
%TD*%
%TO.P,K25,2*%
%TO.N,Net-(D25-Pad2)*%
X152430000Y-70890000D03*
%TO.P,K25,1*%
%TO.N,col5*%
X158780000Y-68350000D03*
%TD*%
%TO.P,K23,2*%
%TO.N,Net-(D23-Pad2)*%
X114330000Y-70890000D03*
%TO.P,K23,1*%
%TO.N,col3*%
X120680000Y-68350000D03*
%TD*%
%TO.P,K22,2*%
%TO.N,Net-(D22-Pad2)*%
X95280000Y-70890000D03*
%TO.P,K22,1*%
%TO.N,col2*%
X101630000Y-68350000D03*
%TD*%
%TO.P,K21,2*%
%TO.N,Net-(D21-Pad2)*%
X76230000Y-70890000D03*
%TO.P,K21,1*%
%TO.N,col1*%
X82580000Y-68350000D03*
%TD*%
%TO.P,K20,2*%
%TO.N,Net-(D20-Pad2)*%
X57180000Y-70890000D03*
%TO.P,K20,1*%
%TO.N,col0*%
X63530000Y-68350000D03*
%TD*%
%TO.P,K19,2*%
%TO.N,Net-(D19-Pad2)*%
X228630000Y-51840000D03*
%TO.P,K19,1*%
%TO.N,col9*%
X234980000Y-49300000D03*
%TD*%
%TO.P,K18,2*%
%TO.N,Net-(D18-Pad2)*%
X209580000Y-51840000D03*
%TO.P,K18,1*%
%TO.N,col8*%
X215930000Y-49300000D03*
%TD*%
%TO.P,K17,2*%
%TO.N,Net-(D17-Pad2)*%
X190530000Y-51840000D03*
%TO.P,K17,1*%
%TO.N,col7*%
X196880000Y-49300000D03*
%TD*%
%TO.P,K16,2*%
%TO.N,Net-(D16-Pad2)*%
X171480000Y-51840000D03*
%TO.P,K16,1*%
%TO.N,col6*%
X177830000Y-49300000D03*
%TD*%
%TO.P,K15,2*%
%TO.N,Net-(D15-Pad2)*%
X152430000Y-51840000D03*
%TO.P,K15,1*%
%TO.N,col5*%
X158780000Y-49300000D03*
%TD*%
%TO.P,K14,2*%
%TO.N,Net-(D14-Pad2)*%
X133380000Y-51840000D03*
%TO.P,K14,1*%
%TO.N,col4*%
X139730000Y-49300000D03*
%TD*%
%TO.P,K13,2*%
%TO.N,Net-(D13-Pad2)*%
X114330000Y-51840000D03*
%TO.P,K13,1*%
%TO.N,col3*%
X120680000Y-49300000D03*
%TD*%
%TO.P,K12,2*%
%TO.N,Net-(D12-Pad2)*%
X95280000Y-51840000D03*
%TO.P,K12,1*%
%TO.N,col2*%
X101630000Y-49300000D03*
%TD*%
%TO.P,K11,2*%
%TO.N,Net-(D11-Pad2)*%
X76230000Y-51840000D03*
%TO.P,K11,1*%
%TO.N,col1*%
X82580000Y-49300000D03*
%TD*%
%TO.P,K10,2*%
%TO.N,Net-(D10-Pad2)*%
X57180000Y-51840000D03*
%TO.P,K10,1*%
%TO.N,col0*%
X63530000Y-49300000D03*
%TD*%
%TO.P,K9,2*%
%TO.N,Net-(D9-Pad2)*%
X228630000Y-32790000D03*
%TO.P,K9,1*%
%TO.N,col9*%
X234980000Y-30250000D03*
%TD*%
%TO.P,K8,2*%
%TO.N,Net-(D8-Pad2)*%
X209580000Y-32790000D03*
%TO.P,K8,1*%
%TO.N,col8*%
X215930000Y-30250000D03*
%TD*%
%TO.P,K7,2*%
%TO.N,Net-(D7-Pad2)*%
X190530000Y-32790000D03*
%TO.P,K7,1*%
%TO.N,col7*%
X196880000Y-30250000D03*
%TD*%
%TO.P,K6,2*%
%TO.N,Net-(D6-Pad2)*%
X171480000Y-32790000D03*
%TO.P,K6,1*%
%TO.N,col6*%
X177830000Y-30250000D03*
%TD*%
%TO.P,K5,2*%
%TO.N,Net-(D5-Pad2)*%
X152430000Y-32790000D03*
%TO.P,K5,1*%
%TO.N,col5*%
X158780000Y-30250000D03*
%TD*%
%TO.P,K4,2*%
%TO.N,Net-(D4-Pad2)*%
X133380000Y-32790000D03*
%TO.P,K4,1*%
%TO.N,col4*%
X139730000Y-30250000D03*
%TD*%
%TO.P,K3,2*%
%TO.N,Net-(D3-Pad2)*%
X114330000Y-32790000D03*
%TO.P,K3,1*%
%TO.N,col3*%
X120680000Y-30250000D03*
%TD*%
%TO.P,K2,2*%
%TO.N,Net-(D2-Pad2)*%
X95280000Y-32790000D03*
%TO.P,K2,1*%
%TO.N,col2*%
X101630000Y-30250000D03*
%TD*%
%TO.P,K1,2*%
%TO.N,Net-(D1-Pad2)*%
X76230000Y-32790000D03*
%TO.P,K1,1*%
%TO.N,col1*%
X82580000Y-30250000D03*
%TD*%
%TO.P,K0,2*%
%TO.N,Net-(D0-Pad2)*%
X57180000Y-32790000D03*
%TO.P,K0,1*%
%TO.N,col0*%
X63530000Y-30250000D03*
%TD*%
D11*
%TO.P,J1,S1*%
%TO.N,GND*%
X151035000Y-24172500D03*
X142395000Y-24172500D03*
D12*
X142395000Y-19992500D03*
X151035000Y-19992500D03*
%TD*%
D13*
%TO.N,GND*%
X149170000Y-33500000D03*
X148363528Y-94906472D03*
X145710000Y-40810000D03*
X153257501Y-95097501D03*
X120740000Y-88980000D03*
%TO.N,+5*%
X147099990Y-81520010D03*
X144790000Y-91330000D03*
X146690000Y-91330000D03*
X145909980Y-79449980D03*
%TO.N,row0*%
X145517180Y-62857180D03*
X142990000Y-88330000D03*
X150940000Y-43980000D03*
X142840000Y-43980000D03*
%TO.N,row1*%
X148790000Y-64530000D03*
X145790000Y-64530000D03*
X142990000Y-89430000D03*
%TO.N,row2*%
X149190000Y-65530000D03*
X145190000Y-65530000D03*
X142990000Y-90530000D03*
%TO.N,Net-(J1-PadA5)*%
X145000000Y-27170000D03*
X143510000Y-27170000D03*
%TO.N,col5*%
X140555000Y-92935000D03*
%TO.N,col6*%
X141840497Y-93780497D03*
%TO.N,col7*%
X143690000Y-95330000D03*
X143690000Y-95330000D03*
%TO.N,col8*%
X144140000Y-93830000D03*
%TO.N,col9*%
X142951998Y-93741998D03*
%TO.N,Net-(R3-Pad2)*%
X142340000Y-84880000D03*
X116590000Y-88980000D03*
%TD*%
D14*
%TO.N,GND*%
X153066472Y-94906472D02*
X153257501Y-95097501D01*
X148363528Y-94906472D02*
X153066472Y-94906472D01*
X148462893Y-38057106D02*
X145710000Y-40810000D01*
X148462893Y-38057106D02*
X148544599Y-37971285D01*
X148544599Y-37971285D02*
X148621997Y-37881559D01*
X148621997Y-37881559D02*
X148694900Y-37788144D01*
X148694900Y-37788144D02*
X148763130Y-37691264D01*
X148763130Y-37691264D02*
X148826525Y-37591152D01*
X148826525Y-37591152D02*
X148884931Y-37488051D01*
X148884931Y-37488051D02*
X148938208Y-37382208D01*
X148938208Y-37382208D02*
X148986228Y-37273878D01*
X148986228Y-37273878D02*
X149028874Y-37163323D01*
X149028874Y-37163323D02*
X149066044Y-37050808D01*
X149066044Y-37050808D02*
X149097648Y-36936605D01*
X149097648Y-36936605D02*
X149123611Y-36820989D01*
X149123611Y-36820989D02*
X149143869Y-36704238D01*
X149143869Y-36704238D02*
X149158374Y-36586634D01*
X149158374Y-36586634D02*
X149167091Y-36468459D01*
X149167091Y-36468459D02*
X149170000Y-36350000D01*
X149170000Y-36350000D02*
X149170000Y-33500000D01*
X149877106Y-25330393D02*
X151035000Y-24172500D01*
X149877106Y-25330393D02*
X149795398Y-25416212D01*
X149795398Y-25416212D02*
X149718000Y-25505938D01*
X149718000Y-25505938D02*
X149645098Y-25599354D01*
X149645098Y-25599354D02*
X149576867Y-25696234D01*
X149576867Y-25696234D02*
X149513472Y-25796345D01*
X149513472Y-25796345D02*
X149455066Y-25899447D01*
X149455066Y-25899447D02*
X149401789Y-26005290D01*
X149401789Y-26005290D02*
X149353770Y-26113620D01*
X149353770Y-26113620D02*
X149311124Y-26224175D01*
X149311124Y-26224175D02*
X149273954Y-26336690D01*
X149273954Y-26336690D02*
X149242350Y-26450893D01*
X149242350Y-26450893D02*
X149216387Y-26566510D01*
X149216387Y-26566510D02*
X149196129Y-26683261D01*
X149196129Y-26683261D02*
X149181624Y-26800865D01*
X149181624Y-26800865D02*
X149172907Y-26919040D01*
X149172907Y-26919040D02*
X149170000Y-27037500D01*
X149170000Y-27037500D02*
X149170000Y-33500000D01*
X146313528Y-94906472D02*
X148363528Y-94906472D01*
X146313528Y-94906472D02*
X146195068Y-94909379D01*
X146195068Y-94909379D02*
X146076893Y-94918096D01*
X146076893Y-94918096D02*
X145959289Y-94932601D01*
X145959289Y-94932601D02*
X145842538Y-94952859D01*
X145842538Y-94952859D02*
X145726921Y-94978822D01*
X145726921Y-94978822D02*
X145612718Y-95010426D01*
X145612718Y-95010426D02*
X145500203Y-95047596D01*
X145500203Y-95047596D02*
X145389648Y-95090242D01*
X145389648Y-95090242D02*
X145281318Y-95138261D01*
X145281318Y-95138261D02*
X145175475Y-95191538D01*
X145175475Y-95191538D02*
X145072374Y-95249944D01*
X145072374Y-95249944D02*
X144972262Y-95313339D01*
X144972262Y-95313339D02*
X144875382Y-95381570D01*
X144875382Y-95381570D02*
X144781966Y-95454472D01*
X144781966Y-95454472D02*
X144692241Y-95531870D01*
X144692241Y-95531870D02*
X144606421Y-95613578D01*
X143190000Y-96730000D02*
X143225537Y-96729126D01*
X143225537Y-96729126D02*
X143260990Y-96726511D01*
X143260990Y-96726511D02*
X143296271Y-96722160D01*
X143296271Y-96722160D02*
X143331296Y-96716082D01*
X143331296Y-96716082D02*
X143365981Y-96708293D01*
X143365981Y-96708293D02*
X143400242Y-96698812D01*
X143400242Y-96698812D02*
X143433996Y-96687661D01*
X143433996Y-96687661D02*
X143467163Y-96674867D01*
X143467163Y-96674867D02*
X143499662Y-96660461D01*
X143499662Y-96660461D02*
X143531414Y-96644478D01*
X143531414Y-96644478D02*
X143562345Y-96626956D01*
X143562345Y-96626956D02*
X143592378Y-96607938D01*
X143592378Y-96607938D02*
X143621442Y-96587469D01*
X143621442Y-96587469D02*
X143649467Y-96565598D01*
X143649467Y-96565598D02*
X143676384Y-96542378D01*
X143676384Y-96542378D02*
X143702131Y-96517867D01*
X143702131Y-96517867D02*
X144606421Y-95613578D01*
X142377867Y-96517867D02*
X142403613Y-96542379D01*
X142403613Y-96542379D02*
X142430530Y-96565598D01*
X142430530Y-96565598D02*
X142458555Y-96587469D01*
X142458555Y-96587469D02*
X142487619Y-96607938D01*
X142487619Y-96607938D02*
X142517653Y-96626957D01*
X142517653Y-96626957D02*
X142548583Y-96644479D01*
X142548583Y-96644479D02*
X142580336Y-96660462D01*
X142580336Y-96660462D02*
X142612835Y-96674868D01*
X142612835Y-96674868D02*
X142646002Y-96687661D01*
X142646002Y-96687661D02*
X142679756Y-96698812D01*
X142679756Y-96698812D02*
X142714017Y-96708294D01*
X142714017Y-96708294D02*
X142748702Y-96716082D01*
X142748702Y-96716082D02*
X142783728Y-96722160D01*
X142783728Y-96722160D02*
X142819009Y-96726511D01*
X142819009Y-96726511D02*
X142854461Y-96729127D01*
X142854461Y-96729127D02*
X142890000Y-96730000D01*
X142890000Y-96730000D02*
X143190000Y-96730000D01*
X134440010Y-89580009D02*
X134558471Y-89582916D01*
X134558471Y-89582916D02*
X134676648Y-89591632D01*
X134676648Y-89591632D02*
X134794254Y-89606135D01*
X134794254Y-89606135D02*
X134911007Y-89626391D01*
X134911007Y-89626391D02*
X135026626Y-89652350D01*
X135026626Y-89652350D02*
X135140832Y-89683951D01*
X135140832Y-89683951D02*
X135253350Y-89721116D01*
X135253350Y-89721116D02*
X135363910Y-89763757D01*
X135363910Y-89763757D02*
X135472244Y-89811771D01*
X135472244Y-89811771D02*
X135578092Y-89865042D01*
X135578092Y-89865042D02*
X135681200Y-89923441D01*
X135681200Y-89923441D02*
X135781317Y-89986829D01*
X135781317Y-89986829D02*
X135878205Y-90055053D01*
X135878205Y-90055053D02*
X135971629Y-90127947D01*
X135971629Y-90127947D02*
X136061364Y-90205338D01*
X136061364Y-90205338D02*
X136147116Y-90287116D01*
X136147116Y-90287116D02*
X142377867Y-96517867D01*
X126696492Y-88872902D02*
X126782312Y-88954608D01*
X126782312Y-88954608D02*
X126872038Y-89032006D01*
X126872038Y-89032006D02*
X126965453Y-89104909D01*
X126965453Y-89104909D02*
X127062334Y-89173139D01*
X127062334Y-89173139D02*
X127162445Y-89236534D01*
X127162445Y-89236534D02*
X127265546Y-89294940D01*
X127265546Y-89294940D02*
X127371389Y-89348217D01*
X127371389Y-89348217D02*
X127479719Y-89396236D01*
X127479719Y-89396236D02*
X127590275Y-89438882D01*
X127590275Y-89438882D02*
X127702789Y-89476052D01*
X127702789Y-89476052D02*
X127816993Y-89507656D01*
X127816993Y-89507656D02*
X127932609Y-89533619D01*
X127932609Y-89533619D02*
X128049360Y-89553877D01*
X128049360Y-89553877D02*
X128166964Y-89568382D01*
X128166964Y-89568382D02*
X128285139Y-89577099D01*
X128285139Y-89577099D02*
X128403599Y-89580009D01*
X128403599Y-89580009D02*
X134440010Y-89580009D01*
X124703600Y-87880010D02*
X124822059Y-87882918D01*
X124822059Y-87882918D02*
X124940234Y-87891635D01*
X124940234Y-87891635D02*
X125057838Y-87906140D01*
X125057838Y-87906140D02*
X125174589Y-87926398D01*
X125174589Y-87926398D02*
X125290205Y-87952360D01*
X125290205Y-87952360D02*
X125404408Y-87983965D01*
X125404408Y-87983965D02*
X125516923Y-88021135D01*
X125516923Y-88021135D02*
X125627478Y-88063780D01*
X125627478Y-88063780D02*
X125735808Y-88111800D01*
X125735808Y-88111800D02*
X125841651Y-88165077D01*
X125841651Y-88165077D02*
X125944753Y-88223483D01*
X125944753Y-88223483D02*
X126044864Y-88286878D01*
X126044864Y-88286878D02*
X126141744Y-88355108D01*
X126141744Y-88355108D02*
X126235159Y-88428010D01*
X126235159Y-88428010D02*
X126324885Y-88505408D01*
X126324885Y-88505408D02*
X126410706Y-88587116D01*
X126410706Y-88587116D02*
X126696492Y-88872902D01*
X121839990Y-87880010D02*
X120740000Y-88980000D01*
X120740000Y-88980000D02*
X120740000Y-88980000D01*
X121839990Y-87880010D02*
X124703600Y-87880010D01*
%TO.N,+5*%
X145590000Y-91330000D02*
X144790000Y-91330000D01*
X144790000Y-91330000D02*
X144790000Y-91330000D01*
X146790000Y-91330000D02*
X146690000Y-91330000D01*
X146690000Y-91330000D02*
X144790000Y-91330000D01*
X146887857Y-91232142D02*
X146790000Y-91330000D01*
X146887857Y-91232142D02*
X146912368Y-91206395D01*
X146912368Y-91206395D02*
X146935588Y-91179477D01*
X146935588Y-91179477D02*
X146957458Y-91151453D01*
X146957458Y-91151453D02*
X146977928Y-91122389D01*
X146977928Y-91122389D02*
X146996946Y-91092355D01*
X146996946Y-91092355D02*
X147014468Y-91061425D01*
X147014468Y-91061425D02*
X147030451Y-91029672D01*
X147030451Y-91029672D02*
X147044857Y-90997173D01*
X147044857Y-90997173D02*
X147057651Y-90964007D01*
X147057651Y-90964007D02*
X147068802Y-90930252D01*
X147068802Y-90930252D02*
X147078283Y-90895991D01*
X147078283Y-90895991D02*
X147086072Y-90861306D01*
X147086072Y-90861306D02*
X147092150Y-90826281D01*
X147092150Y-90826281D02*
X147096501Y-90791000D01*
X147096501Y-90791000D02*
X147099116Y-90755547D01*
X147099116Y-90755547D02*
X147099990Y-90720010D01*
X147099990Y-90720010D02*
X147099990Y-81520010D01*
X145909980Y-79449980D02*
X145909980Y-79449980D01*
X146263533Y-80683553D02*
X147099990Y-81520010D01*
X146263533Y-80683553D02*
X146071701Y-80433553D01*
X146071701Y-80433553D02*
X145951110Y-80142422D01*
X145951110Y-80142422D02*
X145909980Y-79830000D01*
X145909980Y-79830000D02*
X145909980Y-79449980D01*
%TO.N,row0*%
X145544360Y-62830000D02*
X145517180Y-62857180D01*
X143490000Y-88330000D02*
X142990000Y-88330000D01*
X142990000Y-88330000D02*
X142990000Y-88330000D01*
X143661435Y-88158564D02*
X143490000Y-88330000D01*
X143661435Y-88158564D02*
X143702288Y-88115653D01*
X143702288Y-88115653D02*
X143740987Y-88070790D01*
X143740987Y-88070790D02*
X143777438Y-88024083D01*
X143777438Y-88024083D02*
X143811554Y-87975643D01*
X143811554Y-87975643D02*
X143843251Y-87925587D01*
X143843251Y-87925587D02*
X143872454Y-87874036D01*
X143872454Y-87874036D02*
X143899093Y-87821115D01*
X143899093Y-87821115D02*
X143923102Y-87766950D01*
X143923102Y-87766950D02*
X143944425Y-87711672D01*
X143944425Y-87711672D02*
X143963010Y-87655415D01*
X143963010Y-87655415D02*
X143978813Y-87598313D01*
X143978813Y-87598313D02*
X143991794Y-87540505D01*
X143991794Y-87540505D02*
X144001923Y-87482130D01*
X144001923Y-87482130D02*
X144009175Y-87423328D01*
X144009175Y-87423328D02*
X144013534Y-87364240D01*
X144013534Y-87364240D02*
X144014989Y-87305011D01*
X144722095Y-63652264D02*
X145517180Y-62857180D01*
X144722095Y-63652264D02*
X144640387Y-63738083D01*
X144640387Y-63738083D02*
X144562989Y-63827809D01*
X144562989Y-63827809D02*
X144490087Y-63921225D01*
X144490087Y-63921225D02*
X144421856Y-64018105D01*
X144421856Y-64018105D02*
X144358461Y-64118216D01*
X144358461Y-64118216D02*
X144300055Y-64221318D01*
X144300055Y-64221318D02*
X144246778Y-64327161D01*
X144246778Y-64327161D02*
X144198759Y-64435491D01*
X144198759Y-64435491D02*
X144156113Y-64546046D01*
X144156113Y-64546046D02*
X144118943Y-64658561D01*
X144118943Y-64658561D02*
X144087339Y-64772764D01*
X144087339Y-64772764D02*
X144061376Y-64888381D01*
X144061376Y-64888381D02*
X144041118Y-65005132D01*
X144041118Y-65005132D02*
X144026613Y-65122736D01*
X144026613Y-65122736D02*
X144017896Y-65240911D01*
X144017896Y-65240911D02*
X144014989Y-65359371D01*
X144014989Y-65359371D02*
X144014989Y-87305011D01*
X144014989Y-46805011D02*
X146840000Y-43980000D01*
X144014989Y-65359371D02*
X144014989Y-46805011D01*
X146840000Y-43980000D02*
X142840000Y-43980000D01*
X150940000Y-43980000D02*
X146840000Y-43980000D01*
%TO.N,row1*%
X145790000Y-64530000D02*
X148790000Y-64530000D01*
X142990000Y-89430000D02*
X142990000Y-89430000D01*
X144111445Y-88908554D02*
X144152298Y-88865643D01*
X144152298Y-88865643D02*
X144190997Y-88820780D01*
X144190997Y-88820780D02*
X144227448Y-88774072D01*
X144227448Y-88774072D02*
X144261563Y-88725632D01*
X144261563Y-88725632D02*
X144293261Y-88675577D01*
X144293261Y-88675577D02*
X144322464Y-88624026D01*
X144322464Y-88624026D02*
X144349102Y-88571105D01*
X144349102Y-88571105D02*
X144373112Y-88516940D01*
X144373112Y-88516940D02*
X144394435Y-88461662D01*
X144394435Y-88461662D02*
X144413020Y-88405405D01*
X144413020Y-88405405D02*
X144428822Y-88348303D01*
X144428822Y-88348303D02*
X144441804Y-88290495D01*
X144441804Y-88290495D02*
X144451933Y-88232120D01*
X144451933Y-88232120D02*
X144459185Y-88173318D01*
X144459185Y-88173318D02*
X144463544Y-88114230D01*
X144463544Y-88114230D02*
X144464999Y-88055001D01*
X143290000Y-89430000D02*
X142990000Y-89430000D01*
X143290000Y-89430000D02*
X143325537Y-89429126D01*
X143325537Y-89429126D02*
X143360990Y-89426511D01*
X143360990Y-89426511D02*
X143396271Y-89422160D01*
X143396271Y-89422160D02*
X143431296Y-89416082D01*
X143431296Y-89416082D02*
X143465981Y-89408293D01*
X143465981Y-89408293D02*
X143500242Y-89398812D01*
X143500242Y-89398812D02*
X143533996Y-89387661D01*
X143533996Y-89387661D02*
X143567163Y-89374867D01*
X143567163Y-89374867D02*
X143599662Y-89360461D01*
X143599662Y-89360461D02*
X143631414Y-89344478D01*
X143631414Y-89344478D02*
X143662345Y-89326956D01*
X143662345Y-89326956D02*
X143692378Y-89307938D01*
X143692378Y-89307938D02*
X143721442Y-89287469D01*
X143721442Y-89287469D02*
X143749467Y-89265598D01*
X143749467Y-89265598D02*
X143776384Y-89242378D01*
X143776384Y-89242378D02*
X143802131Y-89217867D01*
X143802131Y-89217867D02*
X144111445Y-88908554D01*
X144464999Y-65381999D02*
X144464999Y-88055001D01*
X144464999Y-65381999D02*
X144465580Y-65358306D01*
X144465580Y-65358306D02*
X144467323Y-65334672D01*
X144467323Y-65334672D02*
X144470224Y-65311151D01*
X144470224Y-65311151D02*
X144474276Y-65287800D01*
X144474276Y-65287800D02*
X144479468Y-65264677D01*
X144479468Y-65264677D02*
X144485789Y-65241836D01*
X144485789Y-65241836D02*
X144493223Y-65219333D01*
X144493223Y-65219333D02*
X144501752Y-65197222D01*
X144501752Y-65197222D02*
X144511356Y-65175556D01*
X144511356Y-65175556D02*
X144522011Y-65154388D01*
X144522011Y-65154388D02*
X144533693Y-65133767D01*
X144533693Y-65133767D02*
X144546372Y-65113745D01*
X144546372Y-65113745D02*
X144560018Y-65094369D01*
X144560018Y-65094369D02*
X144574598Y-65075686D01*
X144574598Y-65075686D02*
X144590078Y-65057740D01*
X144590078Y-65057740D02*
X144606420Y-65040577D01*
X145316998Y-64530000D02*
X145790000Y-64530000D01*
X145316998Y-64530000D02*
X145293305Y-64530581D01*
X145293305Y-64530581D02*
X145269671Y-64532324D01*
X145269671Y-64532324D02*
X145246150Y-64535225D01*
X145246150Y-64535225D02*
X145222799Y-64539277D01*
X145222799Y-64539277D02*
X145199676Y-64544469D01*
X145199676Y-64544469D02*
X145176835Y-64550790D01*
X145176835Y-64550790D02*
X145154332Y-64558224D01*
X145154332Y-64558224D02*
X145132221Y-64566753D01*
X145132221Y-64566753D02*
X145110555Y-64576357D01*
X145110555Y-64576357D02*
X145089387Y-64587012D01*
X145089387Y-64587012D02*
X145068766Y-64598694D01*
X145068766Y-64598694D02*
X145048744Y-64611373D01*
X145048744Y-64611373D02*
X145029368Y-64625019D01*
X145029368Y-64625019D02*
X145010685Y-64639599D01*
X145010685Y-64639599D02*
X144992739Y-64655079D01*
X144992739Y-64655079D02*
X144975576Y-64671421D01*
X144975576Y-64671421D02*
X144606420Y-65040577D01*
%TO.N,row2*%
X145190000Y-65530000D02*
X149190000Y-65530000D01*
X143126410Y-90530000D02*
X142990000Y-90530000D01*
X142990000Y-90530000D02*
X142990000Y-90530000D01*
X144915008Y-88241402D02*
X144913553Y-88300631D01*
X144913553Y-88300631D02*
X144909195Y-88359719D01*
X144909195Y-88359719D02*
X144901942Y-88418521D01*
X144901942Y-88418521D02*
X144891813Y-88476896D01*
X144891813Y-88476896D02*
X144878832Y-88534704D01*
X144878832Y-88534704D02*
X144863029Y-88591806D01*
X144863029Y-88591806D02*
X144844444Y-88648063D01*
X144844444Y-88648063D02*
X144823121Y-88703341D01*
X144823121Y-88703341D02*
X144799112Y-88757506D01*
X144799112Y-88757506D02*
X144772473Y-88810427D01*
X144772473Y-88810427D02*
X144743270Y-88861978D01*
X144743270Y-88861978D02*
X144711573Y-88912034D01*
X144711573Y-88912034D02*
X144677457Y-88960474D01*
X144677457Y-88960474D02*
X144641006Y-89007181D01*
X144641006Y-89007181D02*
X144602307Y-89052044D01*
X144602307Y-89052044D02*
X144561454Y-89094955D01*
X144561454Y-89094955D02*
X143126410Y-90530000D01*
X144915008Y-67430000D02*
X144915008Y-88241402D01*
X144915008Y-67430000D02*
X144916169Y-67406336D01*
X144916169Y-67406336D02*
X144919646Y-67382900D01*
X144919646Y-67382900D02*
X144925403Y-67359918D01*
X144925403Y-67359918D02*
X144933384Y-67337611D01*
X144933384Y-67337611D02*
X144943514Y-67316194D01*
X144943514Y-67316194D02*
X144955694Y-67295872D01*
X144955694Y-67295872D02*
X144969807Y-67276843D01*
X144969807Y-67276843D02*
X144985719Y-67259289D01*
X145190000Y-66955009D02*
X145190000Y-65530000D01*
X145190000Y-66955009D02*
X145188837Y-66978672D01*
X145188837Y-66978672D02*
X145185360Y-67002107D01*
X145185360Y-67002107D02*
X145179604Y-67025089D01*
X145179604Y-67025089D02*
X145171622Y-67047396D01*
X145171622Y-67047396D02*
X145161492Y-67068813D01*
X145161492Y-67068813D02*
X145149312Y-67089134D01*
X145149312Y-67089134D02*
X145135199Y-67108164D01*
X145135199Y-67108164D02*
X145119289Y-67125719D01*
X145119289Y-67125719D02*
X144985719Y-67259289D01*
%TO.N,Net-(J1-PadA5)*%
X145000000Y-27170000D02*
X143510000Y-27170000D01*
X143510000Y-27170000D02*
X143510000Y-27170000D01*
%TO.N,col1*%
X87290000Y-48030000D02*
X87290000Y-48430000D01*
X83710000Y-30250000D02*
X82580000Y-30250000D01*
X83710000Y-30250000D02*
X83769229Y-30251454D01*
X83769229Y-30251454D02*
X83828317Y-30255812D01*
X83828317Y-30255812D02*
X83887119Y-30263065D01*
X83887119Y-30263065D02*
X83945494Y-30273194D01*
X83945494Y-30273194D02*
X84003302Y-30286175D01*
X84003302Y-30286175D02*
X84060404Y-30301977D01*
X84060404Y-30301977D02*
X84116661Y-30320562D01*
X84116661Y-30320562D02*
X84171939Y-30341885D01*
X84171939Y-30341885D02*
X84226104Y-30365895D01*
X84226104Y-30365895D02*
X84279025Y-30392533D01*
X84279025Y-30392533D02*
X84330576Y-30421736D01*
X84330576Y-30421736D02*
X84380632Y-30453434D01*
X84380632Y-30453434D02*
X84429072Y-30487549D01*
X84429072Y-30487549D02*
X84475779Y-30524000D01*
X84475779Y-30524000D02*
X84520642Y-30562699D01*
X84520642Y-30562699D02*
X84563553Y-30603553D01*
X86582893Y-32622893D02*
X84563553Y-30603553D01*
X86582893Y-32622893D02*
X86664600Y-32708713D01*
X86664600Y-32708713D02*
X86741998Y-32798438D01*
X86741998Y-32798438D02*
X86814900Y-32891854D01*
X86814900Y-32891854D02*
X86883131Y-32988734D01*
X86883131Y-32988734D02*
X86946526Y-33088846D01*
X86946526Y-33088846D02*
X87004932Y-33191947D01*
X87004932Y-33191947D02*
X87058209Y-33297790D01*
X87058209Y-33297790D02*
X87106228Y-33406120D01*
X87106228Y-33406120D02*
X87148874Y-33516675D01*
X87148874Y-33516675D02*
X87186044Y-33629190D01*
X87186044Y-33629190D02*
X87217648Y-33743393D01*
X87217648Y-33743393D02*
X87243611Y-33859010D01*
X87243611Y-33859010D02*
X87263869Y-33975761D01*
X87263869Y-33975761D02*
X87278374Y-34093365D01*
X87278374Y-34093365D02*
X87287091Y-34211540D01*
X87287091Y-34211540D02*
X87290000Y-34330000D01*
X86582893Y-48737106D02*
X86664599Y-48651285D01*
X86664599Y-48651285D02*
X86741997Y-48561559D01*
X86741997Y-48561559D02*
X86814900Y-48468144D01*
X86814900Y-48468144D02*
X86883130Y-48371264D01*
X86883130Y-48371264D02*
X86946525Y-48271152D01*
X86946525Y-48271152D02*
X87004931Y-48168051D01*
X87004931Y-48168051D02*
X87058208Y-48062208D01*
X87058208Y-48062208D02*
X87106228Y-47953878D01*
X87106228Y-47953878D02*
X87148874Y-47843323D01*
X87148874Y-47843323D02*
X87186044Y-47730808D01*
X87186044Y-47730808D02*
X87217648Y-47616605D01*
X87217648Y-47616605D02*
X87243611Y-47500989D01*
X87243611Y-47500989D02*
X87263869Y-47384238D01*
X87263869Y-47384238D02*
X87278374Y-47266634D01*
X87278374Y-47266634D02*
X87287091Y-47148459D01*
X87287091Y-47148459D02*
X87290000Y-47030000D01*
X87290000Y-47030000D02*
X87290000Y-34330000D01*
X85520000Y-49300000D02*
X82580000Y-49300000D01*
X85520000Y-49300000D02*
X85579229Y-49298545D01*
X85579229Y-49298545D02*
X85638317Y-49294187D01*
X85638317Y-49294187D02*
X85697119Y-49286934D01*
X85697119Y-49286934D02*
X85755494Y-49276805D01*
X85755494Y-49276805D02*
X85813302Y-49263824D01*
X85813302Y-49263824D02*
X85870404Y-49248021D01*
X85870404Y-49248021D02*
X85926661Y-49229436D01*
X85926661Y-49229436D02*
X85981939Y-49208113D01*
X85981939Y-49208113D02*
X86036104Y-49184104D01*
X86036104Y-49184104D02*
X86089025Y-49157465D01*
X86089025Y-49157465D02*
X86140576Y-49128262D01*
X86140576Y-49128262D02*
X86190632Y-49096565D01*
X86190632Y-49096565D02*
X86239072Y-49062449D01*
X86239072Y-49062449D02*
X86285779Y-49025998D01*
X86285779Y-49025998D02*
X86330642Y-48987299D01*
X86330642Y-48987299D02*
X86373553Y-48946446D01*
X86373553Y-48946446D02*
X86582893Y-48737106D01*
X87287091Y-48427091D02*
X87290000Y-48430000D01*
X87287091Y-47148459D02*
X87287091Y-48427091D01*
X86582893Y-67837106D02*
X86664599Y-67751285D01*
X86664599Y-67751285D02*
X86741997Y-67661559D01*
X86741997Y-67661559D02*
X86814900Y-67568144D01*
X86814900Y-67568144D02*
X86883130Y-67471264D01*
X86883130Y-67471264D02*
X86946525Y-67371152D01*
X86946525Y-67371152D02*
X87004931Y-67268051D01*
X87004931Y-67268051D02*
X87058208Y-67162208D01*
X87058208Y-67162208D02*
X87106228Y-67053878D01*
X87106228Y-67053878D02*
X87148874Y-66943323D01*
X87148874Y-66943323D02*
X87186044Y-66830808D01*
X87186044Y-66830808D02*
X87217648Y-66716605D01*
X87217648Y-66716605D02*
X87243611Y-66600989D01*
X87243611Y-66600989D02*
X87263869Y-66484238D01*
X87263869Y-66484238D02*
X87278374Y-66366634D01*
X87278374Y-66366634D02*
X87287091Y-66248459D01*
X87287091Y-66248459D02*
X87290000Y-66130000D01*
X87290000Y-66130000D02*
X87290000Y-48430000D01*
X85570000Y-68350000D02*
X82580000Y-68350000D01*
X85570000Y-68350000D02*
X85629229Y-68348545D01*
X85629229Y-68348545D02*
X85688317Y-68344187D01*
X85688317Y-68344187D02*
X85747119Y-68336934D01*
X85747119Y-68336934D02*
X85805494Y-68326805D01*
X85805494Y-68326805D02*
X85863302Y-68313824D01*
X85863302Y-68313824D02*
X85920404Y-68298021D01*
X85920404Y-68298021D02*
X85976661Y-68279436D01*
X85976661Y-68279436D02*
X86031939Y-68258113D01*
X86031939Y-68258113D02*
X86086104Y-68234104D01*
X86086104Y-68234104D02*
X86139025Y-68207465D01*
X86139025Y-68207465D02*
X86190576Y-68178262D01*
X86190576Y-68178262D02*
X86240632Y-68146565D01*
X86240632Y-68146565D02*
X86289072Y-68112449D01*
X86289072Y-68112449D02*
X86335779Y-68075998D01*
X86335779Y-68075998D02*
X86380642Y-68037299D01*
X86380642Y-68037299D02*
X86423553Y-67996446D01*
X86423553Y-67996446D02*
X86582893Y-67837106D01*
X87287091Y-67127091D02*
X87290000Y-67130000D01*
X87287091Y-66248459D02*
X87287091Y-67127091D01*
X86582893Y-85837106D02*
X86664600Y-85751285D01*
X86664600Y-85751285D02*
X86741998Y-85661560D01*
X86741998Y-85661560D02*
X86814900Y-85568144D01*
X86814900Y-85568144D02*
X86883131Y-85471264D01*
X86883131Y-85471264D02*
X86946526Y-85371153D01*
X86946526Y-85371153D02*
X87004932Y-85268051D01*
X87004932Y-85268051D02*
X87058209Y-85162208D01*
X87058209Y-85162208D02*
X87106228Y-85053879D01*
X87106228Y-85053879D02*
X87148874Y-84943323D01*
X87148874Y-84943323D02*
X87186044Y-84830808D01*
X87186044Y-84830808D02*
X87217648Y-84716605D01*
X87217648Y-84716605D02*
X87243611Y-84600989D01*
X87243611Y-84600989D02*
X87263869Y-84484238D01*
X87263869Y-84484238D02*
X87278374Y-84366634D01*
X87278374Y-84366634D02*
X87287091Y-84248459D01*
X87287091Y-84248459D02*
X87290000Y-84130000D01*
X87290000Y-84130000D02*
X87290000Y-67130000D01*
X84020000Y-87400000D02*
X82580000Y-87400000D01*
X84020000Y-87400000D02*
X84138459Y-87397091D01*
X84138459Y-87397091D02*
X84256634Y-87388374D01*
X84256634Y-87388374D02*
X84374238Y-87373868D01*
X84374238Y-87373868D02*
X84490989Y-87353610D01*
X84490989Y-87353610D02*
X84606605Y-87327648D01*
X84606605Y-87327648D02*
X84720808Y-87296043D01*
X84720808Y-87296043D02*
X84833323Y-87258873D01*
X84833323Y-87258873D02*
X84943879Y-87216227D01*
X84943879Y-87216227D02*
X85052208Y-87168208D01*
X85052208Y-87168208D02*
X85158051Y-87114931D01*
X85158051Y-87114931D02*
X85261153Y-87056525D01*
X85261153Y-87056525D02*
X85361264Y-86993130D01*
X85361264Y-86993130D02*
X85458144Y-86924899D01*
X85458144Y-86924899D02*
X85551559Y-86851997D01*
X85551559Y-86851997D02*
X85641285Y-86774599D01*
X85641285Y-86774599D02*
X85727106Y-86692892D01*
X85727106Y-86692892D02*
X86582893Y-85837106D01*
%TO.N,col2*%
X105582893Y-32522893D02*
X105664599Y-32608713D01*
X105664599Y-32608713D02*
X105741997Y-32698439D01*
X105741997Y-32698439D02*
X105814900Y-32791854D01*
X105814900Y-32791854D02*
X105883130Y-32888735D01*
X105883130Y-32888735D02*
X105946525Y-32988846D01*
X105946525Y-32988846D02*
X106004931Y-33091947D01*
X106004931Y-33091947D02*
X106058208Y-33197790D01*
X106058208Y-33197790D02*
X106106227Y-33306120D01*
X106106227Y-33306120D02*
X106148873Y-33416676D01*
X106148873Y-33416676D02*
X106186043Y-33529190D01*
X106186043Y-33529190D02*
X106217647Y-33643394D01*
X106217647Y-33643394D02*
X106243610Y-33759010D01*
X106243610Y-33759010D02*
X106263868Y-33875761D01*
X106263868Y-33875761D02*
X106278373Y-33993365D01*
X106278373Y-33993365D02*
X106287090Y-34111540D01*
X106287090Y-34111540D02*
X106290000Y-34230000D01*
X102810000Y-30250000D02*
X101630000Y-30250000D01*
X102810000Y-30250000D02*
X102869229Y-30251454D01*
X102869229Y-30251454D02*
X102928317Y-30255812D01*
X102928317Y-30255812D02*
X102987119Y-30263065D01*
X102987119Y-30263065D02*
X103045494Y-30273194D01*
X103045494Y-30273194D02*
X103103302Y-30286175D01*
X103103302Y-30286175D02*
X103160404Y-30301977D01*
X103160404Y-30301977D02*
X103216661Y-30320562D01*
X103216661Y-30320562D02*
X103271939Y-30341885D01*
X103271939Y-30341885D02*
X103326104Y-30365895D01*
X103326104Y-30365895D02*
X103379025Y-30392533D01*
X103379025Y-30392533D02*
X103430576Y-30421736D01*
X103430576Y-30421736D02*
X103480632Y-30453434D01*
X103480632Y-30453434D02*
X103529072Y-30487549D01*
X103529072Y-30487549D02*
X103575779Y-30524000D01*
X103575779Y-30524000D02*
X103620642Y-30562699D01*
X103620642Y-30562699D02*
X103663553Y-30603553D01*
X103663553Y-30603553D02*
X105582893Y-32522893D01*
X106290000Y-47030000D02*
X106290000Y-34230000D01*
X106290000Y-47030000D02*
X106287091Y-47148459D01*
X106287091Y-47148459D02*
X106278374Y-47266634D01*
X106278374Y-47266634D02*
X106263869Y-47384238D01*
X106263869Y-47384238D02*
X106243611Y-47500989D01*
X106243611Y-47500989D02*
X106217648Y-47616605D01*
X106217648Y-47616605D02*
X106186044Y-47730808D01*
X106186044Y-47730808D02*
X106148874Y-47843323D01*
X106148874Y-47843323D02*
X106106228Y-47953879D01*
X106106228Y-47953879D02*
X106058209Y-48062208D01*
X106058209Y-48062208D02*
X106004932Y-48168051D01*
X106004932Y-48168051D02*
X105946525Y-48271153D01*
X105946525Y-48271153D02*
X105883131Y-48371264D01*
X105883131Y-48371264D02*
X105814900Y-48468144D01*
X105814900Y-48468144D02*
X105741998Y-48561559D01*
X105741998Y-48561559D02*
X105664600Y-48651285D01*
X105664600Y-48651285D02*
X105582893Y-48737106D01*
X104520000Y-49300000D02*
X101630000Y-49300000D01*
X104520000Y-49300000D02*
X104579229Y-49298545D01*
X104579229Y-49298545D02*
X104638317Y-49294187D01*
X104638317Y-49294187D02*
X104697119Y-49286934D01*
X104697119Y-49286934D02*
X104755494Y-49276805D01*
X104755494Y-49276805D02*
X104813302Y-49263824D01*
X104813302Y-49263824D02*
X104870404Y-49248021D01*
X104870404Y-49248021D02*
X104926661Y-49229436D01*
X104926661Y-49229436D02*
X104981939Y-49208113D01*
X104981939Y-49208113D02*
X105036104Y-49184104D01*
X105036104Y-49184104D02*
X105089025Y-49157465D01*
X105089025Y-49157465D02*
X105140576Y-49128262D01*
X105140576Y-49128262D02*
X105190632Y-49096565D01*
X105190632Y-49096565D02*
X105239072Y-49062449D01*
X105239072Y-49062449D02*
X105285779Y-49025998D01*
X105285779Y-49025998D02*
X105330642Y-48987299D01*
X105330642Y-48987299D02*
X105373553Y-48946446D01*
X105373553Y-48946446D02*
X105582893Y-48737106D01*
X106287091Y-48027091D02*
X106290000Y-48030000D01*
X106287091Y-47148459D02*
X106287091Y-48027091D01*
X105582893Y-67737106D02*
X105664599Y-67651285D01*
X105664599Y-67651285D02*
X105741997Y-67561559D01*
X105741997Y-67561559D02*
X105814900Y-67468144D01*
X105814900Y-67468144D02*
X105883130Y-67371264D01*
X105883130Y-67371264D02*
X105946525Y-67271152D01*
X105946525Y-67271152D02*
X106004931Y-67168051D01*
X106004931Y-67168051D02*
X106058208Y-67062208D01*
X106058208Y-67062208D02*
X106106228Y-66953878D01*
X106106228Y-66953878D02*
X106148874Y-66843323D01*
X106148874Y-66843323D02*
X106186044Y-66730808D01*
X106186044Y-66730808D02*
X106217648Y-66616605D01*
X106217648Y-66616605D02*
X106243611Y-66500989D01*
X106243611Y-66500989D02*
X106263869Y-66384238D01*
X106263869Y-66384238D02*
X106278374Y-66266634D01*
X106278374Y-66266634D02*
X106287091Y-66148459D01*
X106287091Y-66148459D02*
X106290000Y-66030000D01*
X106290000Y-66030000D02*
X106290000Y-48030000D01*
X104470000Y-68350000D02*
X101630000Y-68350000D01*
X104470000Y-68350000D02*
X104529229Y-68348545D01*
X104529229Y-68348545D02*
X104588317Y-68344187D01*
X104588317Y-68344187D02*
X104647119Y-68336934D01*
X104647119Y-68336934D02*
X104705494Y-68326805D01*
X104705494Y-68326805D02*
X104763302Y-68313824D01*
X104763302Y-68313824D02*
X104820404Y-68298021D01*
X104820404Y-68298021D02*
X104876661Y-68279436D01*
X104876661Y-68279436D02*
X104931939Y-68258113D01*
X104931939Y-68258113D02*
X104986104Y-68234104D01*
X104986104Y-68234104D02*
X105039025Y-68207465D01*
X105039025Y-68207465D02*
X105090576Y-68178262D01*
X105090576Y-68178262D02*
X105140632Y-68146565D01*
X105140632Y-68146565D02*
X105189072Y-68112449D01*
X105189072Y-68112449D02*
X105235779Y-68075998D01*
X105235779Y-68075998D02*
X105280642Y-68037299D01*
X105280642Y-68037299D02*
X105323553Y-67996446D01*
X105323553Y-67996446D02*
X105582893Y-67737106D01*
X103020000Y-87400000D02*
X101630000Y-87400000D01*
X103020000Y-87400000D02*
X103138459Y-87397091D01*
X103138459Y-87397091D02*
X103256634Y-87388374D01*
X103256634Y-87388374D02*
X103374238Y-87373869D01*
X103374238Y-87373869D02*
X103490989Y-87353611D01*
X103490989Y-87353611D02*
X103606605Y-87327648D01*
X103606605Y-87327648D02*
X103720808Y-87296044D01*
X103720808Y-87296044D02*
X103833323Y-87258874D01*
X103833323Y-87258874D02*
X103943879Y-87216228D01*
X103943879Y-87216228D02*
X104052208Y-87168209D01*
X104052208Y-87168209D02*
X104158051Y-87114932D01*
X104158051Y-87114932D02*
X104261153Y-87056525D01*
X104261153Y-87056525D02*
X104361264Y-86993131D01*
X104361264Y-86993131D02*
X104458144Y-86924900D01*
X104458144Y-86924900D02*
X104551559Y-86851998D01*
X104551559Y-86851998D02*
X104641285Y-86774600D01*
X104641285Y-86774600D02*
X104727106Y-86692893D01*
X106290000Y-84130000D02*
X106290000Y-66030000D01*
X106290000Y-84130000D02*
X106287091Y-84248459D01*
X106287091Y-84248459D02*
X106278374Y-84366634D01*
X106278374Y-84366634D02*
X106263868Y-84484238D01*
X106263868Y-84484238D02*
X106243610Y-84600989D01*
X106243610Y-84600989D02*
X106217648Y-84716605D01*
X106217648Y-84716605D02*
X106186043Y-84830808D01*
X106186043Y-84830808D02*
X106148873Y-84943323D01*
X106148873Y-84943323D02*
X106106227Y-85053879D01*
X106106227Y-85053879D02*
X106058208Y-85162208D01*
X106058208Y-85162208D02*
X106004931Y-85268051D01*
X106004931Y-85268051D02*
X105946525Y-85371153D01*
X105946525Y-85371153D02*
X105883130Y-85471264D01*
X105883130Y-85471264D02*
X105814899Y-85568144D01*
X105814899Y-85568144D02*
X105741997Y-85661559D01*
X105741997Y-85661559D02*
X105664599Y-85751285D01*
X105664599Y-85751285D02*
X105582892Y-85837106D01*
X105582892Y-85837106D02*
X104727106Y-86692893D01*
%TO.N,col3*%
X121810000Y-30250000D02*
X120680000Y-30250000D01*
X121810000Y-30250000D02*
X121869229Y-30251454D01*
X121869229Y-30251454D02*
X121928317Y-30255812D01*
X121928317Y-30255812D02*
X121987119Y-30263065D01*
X121987119Y-30263065D02*
X122045494Y-30273194D01*
X122045494Y-30273194D02*
X122103302Y-30286175D01*
X122103302Y-30286175D02*
X122160404Y-30301977D01*
X122160404Y-30301977D02*
X122216661Y-30320562D01*
X122216661Y-30320562D02*
X122271939Y-30341885D01*
X122271939Y-30341885D02*
X122326104Y-30365895D01*
X122326104Y-30365895D02*
X122379025Y-30392533D01*
X122379025Y-30392533D02*
X122430576Y-30421736D01*
X122430576Y-30421736D02*
X122480632Y-30453434D01*
X122480632Y-30453434D02*
X122529072Y-30487549D01*
X122529072Y-30487549D02*
X122575779Y-30524000D01*
X122575779Y-30524000D02*
X122620642Y-30562699D01*
X122620642Y-30562699D02*
X122663553Y-30603553D01*
X124638992Y-32578992D02*
X122663553Y-30603553D01*
X124638992Y-32578992D02*
X124720699Y-32664812D01*
X124720699Y-32664812D02*
X124798097Y-32754537D01*
X124798097Y-32754537D02*
X124870999Y-32847953D01*
X124870999Y-32847953D02*
X124939230Y-32944833D01*
X124939230Y-32944833D02*
X125002625Y-33044945D01*
X125002625Y-33044945D02*
X125061031Y-33148046D01*
X125061031Y-33148046D02*
X125114308Y-33253889D01*
X125114308Y-33253889D02*
X125162327Y-33362219D01*
X125162327Y-33362219D02*
X125204973Y-33472774D01*
X125204973Y-33472774D02*
X125242143Y-33585289D01*
X125242143Y-33585289D02*
X125273747Y-33699492D01*
X125273747Y-33699492D02*
X125299710Y-33815109D01*
X125299710Y-33815109D02*
X125319968Y-33931860D01*
X125319968Y-33931860D02*
X125334473Y-34049464D01*
X125334473Y-34049464D02*
X125343190Y-34167639D01*
X125343190Y-34167639D02*
X125346099Y-34286099D01*
X124485751Y-48946446D02*
X124442840Y-48987299D01*
X124442840Y-48987299D02*
X124397977Y-49025998D01*
X124397977Y-49025998D02*
X124351270Y-49062449D01*
X124351270Y-49062449D02*
X124302830Y-49096565D01*
X124302830Y-49096565D02*
X124252774Y-49128262D01*
X124252774Y-49128262D02*
X124201223Y-49157465D01*
X124201223Y-49157465D02*
X124148302Y-49184104D01*
X124148302Y-49184104D02*
X124094137Y-49208113D01*
X124094137Y-49208113D02*
X124038859Y-49229436D01*
X124038859Y-49229436D02*
X123982602Y-49248021D01*
X123982602Y-49248021D02*
X123925500Y-49263824D01*
X123925500Y-49263824D02*
X123867692Y-49276805D01*
X123867692Y-49276805D02*
X123809317Y-49286934D01*
X123809317Y-49286934D02*
X123750515Y-49294186D01*
X123750515Y-49294186D02*
X123691427Y-49298545D01*
X123691427Y-49298545D02*
X123632198Y-49300000D01*
X123632198Y-49300000D02*
X120680000Y-49300000D01*
X125346099Y-47086099D02*
X125346099Y-34286099D01*
X125346099Y-47086099D02*
X125343190Y-47204558D01*
X125343190Y-47204558D02*
X125334473Y-47322733D01*
X125334473Y-47322733D02*
X125319967Y-47440337D01*
X125319967Y-47440337D02*
X125299709Y-47557088D01*
X125299709Y-47557088D02*
X125273747Y-47672704D01*
X125273747Y-47672704D02*
X125242142Y-47786907D01*
X125242142Y-47786907D02*
X125204972Y-47899422D01*
X125204972Y-47899422D02*
X125162326Y-48009978D01*
X125162326Y-48009978D02*
X125114307Y-48118307D01*
X125114307Y-48118307D02*
X125061030Y-48224150D01*
X125061030Y-48224150D02*
X125002624Y-48327252D01*
X125002624Y-48327252D02*
X124939229Y-48427363D01*
X124939229Y-48427363D02*
X124870998Y-48524243D01*
X124870998Y-48524243D02*
X124798096Y-48617658D01*
X124798096Y-48617658D02*
X124720698Y-48707384D01*
X124720698Y-48707384D02*
X124638991Y-48793205D01*
X124638991Y-48793205D02*
X124485751Y-48946446D01*
X125346099Y-48086099D02*
X125346099Y-47086099D01*
X125346099Y-66073901D02*
X125346099Y-48086099D01*
X125346099Y-66073901D02*
X125343190Y-66192360D01*
X125343190Y-66192360D02*
X125334473Y-66310535D01*
X125334473Y-66310535D02*
X125319968Y-66428139D01*
X125319968Y-66428139D02*
X125299710Y-66544890D01*
X125299710Y-66544890D02*
X125273747Y-66660506D01*
X125273747Y-66660506D02*
X125242143Y-66774709D01*
X125242143Y-66774709D02*
X125204973Y-66887224D01*
X125204973Y-66887224D02*
X125162327Y-66997780D01*
X125162327Y-66997780D02*
X125114308Y-67106109D01*
X125114308Y-67106109D02*
X125061031Y-67211952D01*
X125061031Y-67211952D02*
X125002624Y-67315054D01*
X125002624Y-67315054D02*
X124939230Y-67415165D01*
X124939230Y-67415165D02*
X124870999Y-67512045D01*
X124870999Y-67512045D02*
X124798097Y-67605460D01*
X124798097Y-67605460D02*
X124720699Y-67695186D01*
X124720699Y-67695186D02*
X124638992Y-67781007D01*
X123570000Y-68350000D02*
X120680000Y-68350000D01*
X123570000Y-68350000D02*
X123629229Y-68348545D01*
X123629229Y-68348545D02*
X123688317Y-68344187D01*
X123688317Y-68344187D02*
X123747119Y-68336934D01*
X123747119Y-68336934D02*
X123805494Y-68326805D01*
X123805494Y-68326805D02*
X123863302Y-68313824D01*
X123863302Y-68313824D02*
X123920404Y-68298021D01*
X123920404Y-68298021D02*
X123976661Y-68279436D01*
X123976661Y-68279436D02*
X124031939Y-68258113D01*
X124031939Y-68258113D02*
X124086104Y-68234104D01*
X124086104Y-68234104D02*
X124139025Y-68207465D01*
X124139025Y-68207465D02*
X124190576Y-68178262D01*
X124190576Y-68178262D02*
X124240632Y-68146565D01*
X124240632Y-68146565D02*
X124289072Y-68112449D01*
X124289072Y-68112449D02*
X124335779Y-68075998D01*
X124335779Y-68075998D02*
X124380642Y-68037299D01*
X124380642Y-68037299D02*
X124423553Y-67996446D01*
X124423553Y-67996446D02*
X124638992Y-67781007D01*
X125343190Y-67070992D02*
X125346099Y-67073901D01*
X125343190Y-66192360D02*
X125343190Y-67070992D01*
X127760000Y-87400000D02*
X130205000Y-87400000D01*
X127760000Y-87400000D02*
X127641540Y-87397091D01*
X127641540Y-87397091D02*
X127523365Y-87388374D01*
X127523365Y-87388374D02*
X127405761Y-87373869D01*
X127405761Y-87373869D02*
X127289010Y-87353611D01*
X127289010Y-87353611D02*
X127173393Y-87327649D01*
X127173393Y-87327649D02*
X127059190Y-87296044D01*
X127059190Y-87296044D02*
X126946675Y-87258874D01*
X126946675Y-87258874D02*
X126836120Y-87216228D01*
X126836120Y-87216228D02*
X126727790Y-87168209D01*
X126727790Y-87168209D02*
X126621947Y-87114932D01*
X126621947Y-87114932D02*
X126518845Y-87056526D01*
X126518845Y-87056526D02*
X126418734Y-86993131D01*
X126418734Y-86993131D02*
X126321854Y-86924900D01*
X126321854Y-86924900D02*
X126228438Y-86851998D01*
X126228438Y-86851998D02*
X126138712Y-86774600D01*
X126138712Y-86774600D02*
X126052893Y-86692893D01*
X125346099Y-85186099D02*
X125346099Y-67073901D01*
X125346099Y-85186099D02*
X125348424Y-85280866D01*
X125348424Y-85280866D02*
X125355398Y-85375406D01*
X125355398Y-85375406D02*
X125367002Y-85469489D01*
X125367002Y-85469489D02*
X125383208Y-85562890D01*
X125383208Y-85562890D02*
X125403978Y-85655383D01*
X125403978Y-85655383D02*
X125429262Y-85746746D01*
X125429262Y-85746746D02*
X125458998Y-85836758D01*
X125458998Y-85836758D02*
X125493114Y-85925202D01*
X125493114Y-85925202D02*
X125531530Y-86011866D01*
X125531530Y-86011866D02*
X125574151Y-86096540D01*
X125574151Y-86096540D02*
X125620876Y-86179022D01*
X125620876Y-86179022D02*
X125671592Y-86259111D01*
X125671592Y-86259111D02*
X125726177Y-86336615D01*
X125726177Y-86336615D02*
X125784499Y-86411347D01*
X125784499Y-86411347D02*
X125846417Y-86483128D01*
X125846417Y-86483128D02*
X125911784Y-86551784D01*
X125911784Y-86551784D02*
X126052893Y-86692893D01*
%TO.N,col4*%
X133470000Y-30250000D02*
X139730000Y-30250000D01*
X133470000Y-30250000D02*
X133410770Y-30251453D01*
X133410770Y-30251453D02*
X133351682Y-30255812D01*
X133351682Y-30255812D02*
X133292880Y-30263064D01*
X133292880Y-30263064D02*
X133234504Y-30273193D01*
X133234504Y-30273193D02*
X133176696Y-30286175D01*
X133176696Y-30286175D02*
X133119595Y-30301977D01*
X133119595Y-30301977D02*
X133063337Y-30320562D01*
X133063337Y-30320562D02*
X133008059Y-30341885D01*
X133008059Y-30341885D02*
X132953894Y-30365894D01*
X132953894Y-30365894D02*
X132900973Y-30392533D01*
X132900973Y-30392533D02*
X132849422Y-30421736D01*
X132849422Y-30421736D02*
X132799366Y-30453433D01*
X132799366Y-30453433D02*
X132750926Y-30487548D01*
X132750926Y-30487548D02*
X132704218Y-30524000D01*
X132704218Y-30524000D02*
X132659355Y-30562699D01*
X132659355Y-30562699D02*
X132616446Y-30603553D01*
X130697106Y-32522893D02*
X132616446Y-30603553D01*
X130697106Y-32522893D02*
X130615398Y-32608712D01*
X130615398Y-32608712D02*
X130538000Y-32698438D01*
X130538000Y-32698438D02*
X130465098Y-32791854D01*
X130465098Y-32791854D02*
X130396867Y-32888734D01*
X130396867Y-32888734D02*
X130333472Y-32988845D01*
X130333472Y-32988845D02*
X130275066Y-33091947D01*
X130275066Y-33091947D02*
X130221789Y-33197790D01*
X130221789Y-33197790D02*
X130173770Y-33306120D01*
X130173770Y-33306120D02*
X130131124Y-33416675D01*
X130131124Y-33416675D02*
X130093954Y-33529190D01*
X130093954Y-33529190D02*
X130062350Y-33643393D01*
X130062350Y-33643393D02*
X130036387Y-33759010D01*
X130036387Y-33759010D02*
X130016129Y-33875761D01*
X130016129Y-33875761D02*
X130001624Y-33993365D01*
X130001624Y-33993365D02*
X129992907Y-34111540D01*
X129992907Y-34111540D02*
X129990000Y-34230000D01*
X129990000Y-34230000D02*
X129990000Y-50930000D01*
X131266446Y-49653553D02*
X131309355Y-49612699D01*
X131309355Y-49612699D02*
X131354218Y-49574000D01*
X131354218Y-49574000D02*
X131400926Y-49537548D01*
X131400926Y-49537548D02*
X131449366Y-49503433D01*
X131449366Y-49503433D02*
X131499422Y-49471736D01*
X131499422Y-49471736D02*
X131550973Y-49442533D01*
X131550973Y-49442533D02*
X131603894Y-49415894D01*
X131603894Y-49415894D02*
X131658059Y-49391885D01*
X131658059Y-49391885D02*
X131713337Y-49370562D01*
X131713337Y-49370562D02*
X131769595Y-49351977D01*
X131769595Y-49351977D02*
X131826696Y-49336175D01*
X131826696Y-49336175D02*
X131884504Y-49323193D01*
X131884504Y-49323193D02*
X131942880Y-49313064D01*
X131942880Y-49313064D02*
X132001682Y-49305812D01*
X132001682Y-49305812D02*
X132060770Y-49301453D01*
X132060770Y-49301453D02*
X132120000Y-49300000D01*
X132120000Y-49300000D02*
X139730000Y-49300000D01*
X129990000Y-51930000D02*
X129992907Y-51811540D01*
X129992907Y-51811540D02*
X130001624Y-51693365D01*
X130001624Y-51693365D02*
X130016129Y-51575761D01*
X130016129Y-51575761D02*
X130036387Y-51459009D01*
X130036387Y-51459009D02*
X130062350Y-51343393D01*
X130062350Y-51343393D02*
X130093954Y-51229190D01*
X130093954Y-51229190D02*
X130131124Y-51116675D01*
X130131124Y-51116675D02*
X130173770Y-51006119D01*
X130173770Y-51006119D02*
X130221789Y-50897789D01*
X130221789Y-50897789D02*
X130275066Y-50791946D01*
X130275066Y-50791946D02*
X130333472Y-50688845D01*
X130333472Y-50688845D02*
X130396867Y-50588733D01*
X130396867Y-50588733D02*
X130465097Y-50491853D01*
X130465097Y-50491853D02*
X130538000Y-50398437D01*
X130538000Y-50398437D02*
X130615398Y-50308711D01*
X130615398Y-50308711D02*
X130697106Y-50222892D01*
X130697106Y-50222892D02*
X131266446Y-49653553D01*
X129990000Y-50930000D02*
X129990000Y-51930000D01*
X131316446Y-68703553D02*
X131359355Y-68662699D01*
X131359355Y-68662699D02*
X131404218Y-68624000D01*
X131404218Y-68624000D02*
X131450926Y-68587548D01*
X131450926Y-68587548D02*
X131499366Y-68553433D01*
X131499366Y-68553433D02*
X131549422Y-68521736D01*
X131549422Y-68521736D02*
X131600973Y-68492533D01*
X131600973Y-68492533D02*
X131653894Y-68465894D01*
X131653894Y-68465894D02*
X131708059Y-68441885D01*
X131708059Y-68441885D02*
X131763337Y-68420562D01*
X131763337Y-68420562D02*
X131819595Y-68401977D01*
X131819595Y-68401977D02*
X131876696Y-68386175D01*
X131876696Y-68386175D02*
X131934504Y-68373193D01*
X131934504Y-68373193D02*
X131992880Y-68363064D01*
X131992880Y-68363064D02*
X132051682Y-68355812D01*
X132051682Y-68355812D02*
X132110770Y-68351453D01*
X132110770Y-68351453D02*
X132170000Y-68350000D01*
X132170000Y-68350000D02*
X139730000Y-68350000D01*
X129990000Y-71030000D02*
X129990000Y-73830000D01*
X129990000Y-71030000D02*
X129992907Y-70911540D01*
X129992907Y-70911540D02*
X130001624Y-70793365D01*
X130001624Y-70793365D02*
X130016129Y-70675761D01*
X130016129Y-70675761D02*
X130036387Y-70559009D01*
X130036387Y-70559009D02*
X130062350Y-70443393D01*
X130062350Y-70443393D02*
X130093954Y-70329190D01*
X130093954Y-70329190D02*
X130131124Y-70216675D01*
X130131124Y-70216675D02*
X130173770Y-70106119D01*
X130173770Y-70106119D02*
X130221789Y-69997789D01*
X130221789Y-69997789D02*
X130275066Y-69891946D01*
X130275066Y-69891946D02*
X130333472Y-69788845D01*
X130333472Y-69788845D02*
X130396867Y-69688733D01*
X130396867Y-69688733D02*
X130465097Y-69591853D01*
X130465097Y-69591853D02*
X130538000Y-69498437D01*
X130538000Y-69498437D02*
X130615398Y-69408711D01*
X130615398Y-69408711D02*
X130697106Y-69322892D01*
X130697106Y-69322892D02*
X131316446Y-68703553D01*
X129990000Y-70030000D02*
X129990000Y-71030000D01*
X129990000Y-51930000D02*
X129990000Y-70030000D01*
%TO.N,col5*%
X161510000Y-30250000D02*
X158780000Y-30250000D01*
X161510000Y-30250000D02*
X161569229Y-30251454D01*
X161569229Y-30251454D02*
X161628317Y-30255812D01*
X161628317Y-30255812D02*
X161687119Y-30263065D01*
X161687119Y-30263065D02*
X161745494Y-30273194D01*
X161745494Y-30273194D02*
X161803302Y-30286175D01*
X161803302Y-30286175D02*
X161860404Y-30301977D01*
X161860404Y-30301977D02*
X161916661Y-30320562D01*
X161916661Y-30320562D02*
X161971939Y-30341885D01*
X161971939Y-30341885D02*
X162026104Y-30365895D01*
X162026104Y-30365895D02*
X162079025Y-30392533D01*
X162079025Y-30392533D02*
X162130576Y-30421736D01*
X162130576Y-30421736D02*
X162180632Y-30453434D01*
X162180632Y-30453434D02*
X162229072Y-30487549D01*
X162229072Y-30487549D02*
X162275779Y-30524000D01*
X162275779Y-30524000D02*
X162320642Y-30562699D01*
X162320642Y-30562699D02*
X162363553Y-30603553D01*
X163490000Y-32230000D02*
X163488545Y-32170770D01*
X163488545Y-32170770D02*
X163484187Y-32111682D01*
X163484187Y-32111682D02*
X163476934Y-32052880D01*
X163476934Y-32052880D02*
X163466805Y-31994504D01*
X163466805Y-31994504D02*
X163453824Y-31936696D01*
X163453824Y-31936696D02*
X163438022Y-31879595D01*
X163438022Y-31879595D02*
X163419437Y-31823337D01*
X163419437Y-31823337D02*
X163398114Y-31768059D01*
X163398114Y-31768059D02*
X163374104Y-31713894D01*
X163374104Y-31713894D02*
X163347466Y-31660973D01*
X163347466Y-31660973D02*
X163318263Y-31609422D01*
X163318263Y-31609422D02*
X163286565Y-31559366D01*
X163286565Y-31559366D02*
X163252450Y-31510926D01*
X163252450Y-31510926D02*
X163215999Y-31464218D01*
X163215999Y-31464218D02*
X163177300Y-31419355D01*
X163177300Y-31419355D02*
X163136446Y-31376446D01*
X163136446Y-31376446D02*
X162363553Y-30603553D01*
X162782893Y-48837106D02*
X162864600Y-48751285D01*
X162864600Y-48751285D02*
X162941998Y-48661560D01*
X162941998Y-48661560D02*
X163014900Y-48568144D01*
X163014900Y-48568144D02*
X163083131Y-48471264D01*
X163083131Y-48471264D02*
X163146526Y-48371153D01*
X163146526Y-48371153D02*
X163204932Y-48268051D01*
X163204932Y-48268051D02*
X163258209Y-48162208D01*
X163258209Y-48162208D02*
X163306228Y-48053879D01*
X163306228Y-48053879D02*
X163348874Y-47943323D01*
X163348874Y-47943323D02*
X163386044Y-47830808D01*
X163386044Y-47830808D02*
X163417648Y-47716605D01*
X163417648Y-47716605D02*
X163443611Y-47600989D01*
X163443611Y-47600989D02*
X163463869Y-47484238D01*
X163463869Y-47484238D02*
X163478374Y-47366634D01*
X163478374Y-47366634D02*
X163487091Y-47248459D01*
X163487091Y-47248459D02*
X163490000Y-47130000D01*
X163490000Y-47130000D02*
X163490000Y-32230000D01*
X161820000Y-49300000D02*
X158780000Y-49300000D01*
X161820000Y-49300000D02*
X161879229Y-49298545D01*
X161879229Y-49298545D02*
X161938317Y-49294187D01*
X161938317Y-49294187D02*
X161997119Y-49286934D01*
X161997119Y-49286934D02*
X162055494Y-49276805D01*
X162055494Y-49276805D02*
X162113302Y-49263824D01*
X162113302Y-49263824D02*
X162170404Y-49248021D01*
X162170404Y-49248021D02*
X162226661Y-49229436D01*
X162226661Y-49229436D02*
X162281939Y-49208113D01*
X162281939Y-49208113D02*
X162336104Y-49184104D01*
X162336104Y-49184104D02*
X162389025Y-49157465D01*
X162389025Y-49157465D02*
X162440576Y-49128262D01*
X162440576Y-49128262D02*
X162490632Y-49096565D01*
X162490632Y-49096565D02*
X162539072Y-49062449D01*
X162539072Y-49062449D02*
X162585779Y-49025998D01*
X162585779Y-49025998D02*
X162630642Y-48987299D01*
X162630642Y-48987299D02*
X162673553Y-48946446D01*
X162673553Y-48946446D02*
X162782893Y-48837106D01*
X163487091Y-48127091D02*
X163490000Y-48130000D01*
X163487091Y-47248459D02*
X163487091Y-48127091D01*
X162782893Y-84211466D02*
X162864600Y-84125645D01*
X162864600Y-84125645D02*
X162941998Y-84035920D01*
X162941998Y-84035920D02*
X163014900Y-83942504D01*
X163014900Y-83942504D02*
X163083131Y-83845624D01*
X163083131Y-83845624D02*
X163146526Y-83745513D01*
X163146526Y-83745513D02*
X163204932Y-83642411D01*
X163204932Y-83642411D02*
X163258209Y-83536568D01*
X163258209Y-83536568D02*
X163306228Y-83428239D01*
X163306228Y-83428239D02*
X163348874Y-83317683D01*
X163348874Y-83317683D02*
X163386044Y-83205168D01*
X163386044Y-83205168D02*
X163417648Y-83090965D01*
X163417648Y-83090965D02*
X163443611Y-82975349D01*
X163443611Y-82975349D02*
X163463869Y-82858598D01*
X163463869Y-82858598D02*
X163478374Y-82740994D01*
X163478374Y-82740994D02*
X163487091Y-82622819D01*
X163487091Y-82622819D02*
X163490000Y-82504360D01*
X163490000Y-82504360D02*
X163490000Y-67130000D01*
X153934399Y-92059960D02*
X154052858Y-92057051D01*
X154052858Y-92057051D02*
X154171033Y-92048334D01*
X154171033Y-92048334D02*
X154288637Y-92033829D01*
X154288637Y-92033829D02*
X154405388Y-92013571D01*
X154405388Y-92013571D02*
X154521004Y-91987608D01*
X154521004Y-91987608D02*
X154635207Y-91956004D01*
X154635207Y-91956004D02*
X154747722Y-91918834D01*
X154747722Y-91918834D02*
X154858278Y-91876188D01*
X154858278Y-91876188D02*
X154966607Y-91828169D01*
X154966607Y-91828169D02*
X155072450Y-91774892D01*
X155072450Y-91774892D02*
X155175552Y-91716485D01*
X155175552Y-91716485D02*
X155275663Y-91653091D01*
X155275663Y-91653091D02*
X155372543Y-91584860D01*
X155372543Y-91584860D02*
X155465958Y-91511958D01*
X155465958Y-91511958D02*
X155555684Y-91434560D01*
X155555684Y-91434560D02*
X155641505Y-91352853D01*
X155641505Y-91352853D02*
X162782893Y-84211466D01*
X140722933Y-92767066D02*
X140555000Y-92935000D01*
X140722933Y-92767066D02*
X140808752Y-92685358D01*
X140808752Y-92685358D02*
X140898478Y-92607960D01*
X140898478Y-92607960D02*
X140991894Y-92535058D01*
X140991894Y-92535058D02*
X141088774Y-92466827D01*
X141088774Y-92466827D02*
X141188885Y-92403432D01*
X141188885Y-92403432D02*
X141291987Y-92345026D01*
X141291987Y-92345026D02*
X141397830Y-92291749D01*
X141397830Y-92291749D02*
X141506160Y-92243730D01*
X141506160Y-92243730D02*
X141616715Y-92201084D01*
X141616715Y-92201084D02*
X141729230Y-92163914D01*
X141729230Y-92163914D02*
X141843433Y-92132310D01*
X141843433Y-92132310D02*
X141959050Y-92106347D01*
X141959050Y-92106347D02*
X142075801Y-92086089D01*
X142075801Y-92086089D02*
X142193405Y-92071584D01*
X142193405Y-92071584D02*
X142311580Y-92062867D01*
X142311580Y-92062867D02*
X142430040Y-92059960D01*
X142430040Y-92059960D02*
X153934399Y-92059960D01*
X162782893Y-67837106D02*
X162864600Y-67751285D01*
X162864600Y-67751285D02*
X162941998Y-67661560D01*
X162941998Y-67661560D02*
X163014900Y-67568144D01*
X163014900Y-67568144D02*
X163083131Y-67471264D01*
X163083131Y-67471264D02*
X163146526Y-67371153D01*
X163146526Y-67371153D02*
X163204932Y-67268051D01*
X163204932Y-67268051D02*
X163258209Y-67162208D01*
X163258209Y-67162208D02*
X163306228Y-67053879D01*
X163306228Y-67053879D02*
X163348874Y-66943323D01*
X163348874Y-66943323D02*
X163386044Y-66830808D01*
X163386044Y-66830808D02*
X163417648Y-66716605D01*
X163417648Y-66716605D02*
X163443611Y-66600989D01*
X163443611Y-66600989D02*
X163463869Y-66484238D01*
X163463869Y-66484238D02*
X163478374Y-66366634D01*
X163478374Y-66366634D02*
X163487091Y-66248459D01*
X163487091Y-66248459D02*
X163490000Y-66130000D01*
X163490000Y-66130000D02*
X163490000Y-48130000D01*
X162623553Y-67996446D02*
X162782893Y-67837106D01*
X162623553Y-67996446D02*
X162580642Y-68037299D01*
X162580642Y-68037299D02*
X162535779Y-68075998D01*
X162535779Y-68075998D02*
X162489072Y-68112449D01*
X162489072Y-68112449D02*
X162440632Y-68146565D01*
X162440632Y-68146565D02*
X162390576Y-68178262D01*
X162390576Y-68178262D02*
X162339025Y-68207465D01*
X162339025Y-68207465D02*
X162286104Y-68234104D01*
X162286104Y-68234104D02*
X162231939Y-68258113D01*
X162231939Y-68258113D02*
X162176661Y-68279436D01*
X162176661Y-68279436D02*
X162120404Y-68298021D01*
X162120404Y-68298021D02*
X162063302Y-68313824D01*
X162063302Y-68313824D02*
X162005494Y-68326805D01*
X162005494Y-68326805D02*
X161947119Y-68336934D01*
X161947119Y-68336934D02*
X161888317Y-68344186D01*
X161888317Y-68344186D02*
X161829229Y-68348545D01*
X161829229Y-68348545D02*
X161770000Y-68350000D01*
X161770000Y-68350000D02*
X158780000Y-68350000D01*
X163487091Y-67127091D02*
X163490000Y-67130000D01*
X163487091Y-66248459D02*
X163487091Y-67127091D01*
%TO.N,col6*%
X180610000Y-30250000D02*
X177830000Y-30250000D01*
X180610000Y-30250000D02*
X180669229Y-30251454D01*
X180669229Y-30251454D02*
X180728317Y-30255812D01*
X180728317Y-30255812D02*
X180787119Y-30263065D01*
X180787119Y-30263065D02*
X180845494Y-30273194D01*
X180845494Y-30273194D02*
X180903302Y-30286175D01*
X180903302Y-30286175D02*
X180960404Y-30301977D01*
X180960404Y-30301977D02*
X181016661Y-30320562D01*
X181016661Y-30320562D02*
X181071939Y-30341885D01*
X181071939Y-30341885D02*
X181126104Y-30365895D01*
X181126104Y-30365895D02*
X181179025Y-30392533D01*
X181179025Y-30392533D02*
X181230576Y-30421736D01*
X181230576Y-30421736D02*
X181280632Y-30453434D01*
X181280632Y-30453434D02*
X181329072Y-30487549D01*
X181329072Y-30487549D02*
X181375779Y-30524000D01*
X181375779Y-30524000D02*
X181420642Y-30562699D01*
X181420642Y-30562699D02*
X181463553Y-30603553D01*
X182490000Y-32130000D02*
X182488545Y-32070770D01*
X182488545Y-32070770D02*
X182484187Y-32011682D01*
X182484187Y-32011682D02*
X182476934Y-31952880D01*
X182476934Y-31952880D02*
X182466805Y-31894504D01*
X182466805Y-31894504D02*
X182453824Y-31836696D01*
X182453824Y-31836696D02*
X182438022Y-31779595D01*
X182438022Y-31779595D02*
X182419437Y-31723337D01*
X182419437Y-31723337D02*
X182398114Y-31668059D01*
X182398114Y-31668059D02*
X182374104Y-31613894D01*
X182374104Y-31613894D02*
X182347466Y-31560973D01*
X182347466Y-31560973D02*
X182318263Y-31509422D01*
X182318263Y-31509422D02*
X182286565Y-31459366D01*
X182286565Y-31459366D02*
X182252450Y-31410926D01*
X182252450Y-31410926D02*
X182215999Y-31364218D01*
X182215999Y-31364218D02*
X182177300Y-31319355D01*
X182177300Y-31319355D02*
X182136446Y-31276446D01*
X182136446Y-31276446D02*
X181463553Y-30603553D01*
X181782893Y-48837106D02*
X181864600Y-48751285D01*
X181864600Y-48751285D02*
X181941998Y-48661560D01*
X181941998Y-48661560D02*
X182014900Y-48568144D01*
X182014900Y-48568144D02*
X182083131Y-48471264D01*
X182083131Y-48471264D02*
X182146526Y-48371153D01*
X182146526Y-48371153D02*
X182204932Y-48268051D01*
X182204932Y-48268051D02*
X182258209Y-48162208D01*
X182258209Y-48162208D02*
X182306228Y-48053879D01*
X182306228Y-48053879D02*
X182348874Y-47943323D01*
X182348874Y-47943323D02*
X182386044Y-47830808D01*
X182386044Y-47830808D02*
X182417648Y-47716605D01*
X182417648Y-47716605D02*
X182443611Y-47600989D01*
X182443611Y-47600989D02*
X182463869Y-47484238D01*
X182463869Y-47484238D02*
X182478374Y-47366634D01*
X182478374Y-47366634D02*
X182487091Y-47248459D01*
X182487091Y-47248459D02*
X182490000Y-47130000D01*
X182490000Y-47130000D02*
X182490000Y-32130000D01*
X180820000Y-49300000D02*
X177830000Y-49300000D01*
X180820000Y-49300000D02*
X180879229Y-49298545D01*
X180879229Y-49298545D02*
X180938317Y-49294187D01*
X180938317Y-49294187D02*
X180997119Y-49286934D01*
X180997119Y-49286934D02*
X181055494Y-49276805D01*
X181055494Y-49276805D02*
X181113302Y-49263824D01*
X181113302Y-49263824D02*
X181170404Y-49248021D01*
X181170404Y-49248021D02*
X181226661Y-49229436D01*
X181226661Y-49229436D02*
X181281939Y-49208113D01*
X181281939Y-49208113D02*
X181336104Y-49184104D01*
X181336104Y-49184104D02*
X181389025Y-49157465D01*
X181389025Y-49157465D02*
X181440576Y-49128262D01*
X181440576Y-49128262D02*
X181490632Y-49096565D01*
X181490632Y-49096565D02*
X181539072Y-49062449D01*
X181539072Y-49062449D02*
X181585779Y-49025998D01*
X181585779Y-49025998D02*
X181630642Y-48987299D01*
X181630642Y-48987299D02*
X181673553Y-48946446D01*
X181673553Y-48946446D02*
X181782893Y-48837106D01*
X182487091Y-48127091D02*
X182490000Y-48130000D01*
X182487091Y-47248459D02*
X182487091Y-48127091D01*
X168326992Y-81853007D02*
X168408698Y-81767186D01*
X168408698Y-81767186D02*
X168486096Y-81677460D01*
X168486096Y-81677460D02*
X168558999Y-81584045D01*
X168558999Y-81584045D02*
X168627229Y-81487165D01*
X168627229Y-81487165D02*
X168690624Y-81387053D01*
X168690624Y-81387053D02*
X168749030Y-81283952D01*
X168749030Y-81283952D02*
X168802307Y-81178109D01*
X168802307Y-81178109D02*
X168850327Y-81069779D01*
X168850327Y-81069779D02*
X168892973Y-80959224D01*
X168892973Y-80959224D02*
X168930143Y-80846709D01*
X168930143Y-80846709D02*
X168961747Y-80732506D01*
X168961747Y-80732506D02*
X168987710Y-80616890D01*
X168987710Y-80616890D02*
X169007968Y-80500139D01*
X169007968Y-80500139D02*
X169022473Y-80382535D01*
X169022473Y-80382535D02*
X169031190Y-80264360D01*
X169031190Y-80264360D02*
X169034099Y-80145901D01*
X167140028Y-82539972D02*
X167199257Y-82538517D01*
X167199257Y-82538517D02*
X167258345Y-82534159D01*
X167258345Y-82534159D02*
X167317147Y-82526906D01*
X167317147Y-82526906D02*
X167375522Y-82516777D01*
X167375522Y-82516777D02*
X167433330Y-82503796D01*
X167433330Y-82503796D02*
X167490432Y-82487993D01*
X167490432Y-82487993D02*
X167546689Y-82469408D01*
X167546689Y-82469408D02*
X167601967Y-82448085D01*
X167601967Y-82448085D02*
X167656132Y-82424076D01*
X167656132Y-82424076D02*
X167709053Y-82397437D01*
X167709053Y-82397437D02*
X167760604Y-82368234D01*
X167760604Y-82368234D02*
X167810660Y-82336537D01*
X167810660Y-82336537D02*
X167859100Y-82302421D01*
X167859100Y-82302421D02*
X167905807Y-82265970D01*
X167905807Y-82265970D02*
X167950670Y-82227271D01*
X167950670Y-82227271D02*
X167993581Y-82186418D01*
X167993581Y-82186418D02*
X168326992Y-81853007D01*
X164383690Y-83247079D02*
X164469509Y-83165370D01*
X164469509Y-83165370D02*
X164559235Y-83087972D01*
X164559235Y-83087972D02*
X164652650Y-83015070D01*
X164652650Y-83015070D02*
X164749531Y-82946840D01*
X164749531Y-82946840D02*
X164849642Y-82883445D01*
X164849642Y-82883445D02*
X164952743Y-82825039D01*
X164952743Y-82825039D02*
X165058586Y-82771762D01*
X165058586Y-82771762D02*
X165166916Y-82723742D01*
X165166916Y-82723742D02*
X165277472Y-82681096D01*
X165277472Y-82681096D02*
X165389986Y-82643927D01*
X165389986Y-82643927D02*
X165504190Y-82612322D01*
X165504190Y-82612322D02*
X165619806Y-82586360D01*
X165619806Y-82586360D02*
X165736557Y-82566101D01*
X165736557Y-82566101D02*
X165854161Y-82551596D01*
X165854161Y-82551596D02*
X165972336Y-82542879D01*
X165972336Y-82542879D02*
X166090796Y-82539972D01*
X166090796Y-82539972D02*
X167140028Y-82539972D01*
X182136446Y-67983553D02*
X182177299Y-67940642D01*
X182177299Y-67940642D02*
X182215998Y-67895779D01*
X182215998Y-67895779D02*
X182252449Y-67849071D01*
X182252449Y-67849071D02*
X182286564Y-67800631D01*
X182286564Y-67800631D02*
X182318262Y-67750576D01*
X182318262Y-67750576D02*
X182347465Y-67699025D01*
X182347465Y-67699025D02*
X182374103Y-67646104D01*
X182374103Y-67646104D02*
X182398113Y-67591939D01*
X182398113Y-67591939D02*
X182419436Y-67536661D01*
X182419436Y-67536661D02*
X182438021Y-67480404D01*
X182438021Y-67480404D02*
X182453823Y-67423302D01*
X182453823Y-67423302D02*
X182466805Y-67365494D01*
X182466805Y-67365494D02*
X182476934Y-67307119D01*
X182476934Y-67307119D02*
X182484186Y-67248317D01*
X182484186Y-67248317D02*
X182488545Y-67189229D01*
X182488545Y-67189229D02*
X182490000Y-67130000D01*
X182490000Y-67130000D02*
X182490000Y-48130000D01*
X181270000Y-68350000D02*
X177830000Y-68350000D01*
X181270000Y-68350000D02*
X181329229Y-68348545D01*
X181329229Y-68348545D02*
X181388316Y-68344186D01*
X181388316Y-68344186D02*
X181447119Y-68336934D01*
X181447119Y-68336934D02*
X181505494Y-68326804D01*
X181505494Y-68326804D02*
X181563302Y-68313823D01*
X181563302Y-68313823D02*
X181620403Y-68298021D01*
X181620403Y-68298021D02*
X181676661Y-68279436D01*
X181676661Y-68279436D02*
X181731938Y-68258113D01*
X181731938Y-68258113D02*
X181786103Y-68234103D01*
X181786103Y-68234103D02*
X181839025Y-68207465D01*
X181839025Y-68207465D02*
X181890575Y-68178262D01*
X181890575Y-68178262D02*
X181940631Y-68146564D01*
X181940631Y-68146564D02*
X181989071Y-68112449D01*
X181989071Y-68112449D02*
X182035778Y-68075998D01*
X182035778Y-68075998D02*
X182080641Y-68037299D01*
X182080641Y-68037299D02*
X182123552Y-67996446D01*
X182123552Y-67996446D02*
X182136446Y-67983553D01*
X169652893Y-69057106D02*
X169738712Y-68975398D01*
X169738712Y-68975398D02*
X169828438Y-68898000D01*
X169828438Y-68898000D02*
X169921854Y-68825098D01*
X169921854Y-68825098D02*
X170018734Y-68756867D01*
X170018734Y-68756867D02*
X170118845Y-68693472D01*
X170118845Y-68693472D02*
X170221947Y-68635066D01*
X170221947Y-68635066D02*
X170327790Y-68581789D01*
X170327790Y-68581789D02*
X170436120Y-68533770D01*
X170436120Y-68533770D02*
X170546675Y-68491124D01*
X170546675Y-68491124D02*
X170659190Y-68453954D01*
X170659190Y-68453954D02*
X170773393Y-68422350D01*
X170773393Y-68422350D02*
X170889010Y-68396387D01*
X170889010Y-68396387D02*
X171005761Y-68376129D01*
X171005761Y-68376129D02*
X171123365Y-68361624D01*
X171123365Y-68361624D02*
X171241540Y-68352907D01*
X171241540Y-68352907D02*
X171360000Y-68350000D01*
X171360000Y-68350000D02*
X177830000Y-68350000D01*
X169034099Y-70175901D02*
X169034099Y-80145901D01*
X169034099Y-70175901D02*
X169035552Y-70116671D01*
X169035552Y-70116671D02*
X169039911Y-70057583D01*
X169039911Y-70057583D02*
X169047163Y-69998781D01*
X169047163Y-69998781D02*
X169057292Y-69940405D01*
X169057292Y-69940405D02*
X169070274Y-69882597D01*
X169070274Y-69882597D02*
X169086076Y-69825496D01*
X169086076Y-69825496D02*
X169104661Y-69769238D01*
X169104661Y-69769238D02*
X169125984Y-69713960D01*
X169125984Y-69713960D02*
X169149993Y-69659795D01*
X169149993Y-69659795D02*
X169176632Y-69606874D01*
X169176632Y-69606874D02*
X169205835Y-69555323D01*
X169205835Y-69555323D02*
X169237532Y-69505267D01*
X169237532Y-69505267D02*
X169271647Y-69456827D01*
X169271647Y-69456827D02*
X169308099Y-69410119D01*
X169308099Y-69410119D02*
X169346798Y-69365256D01*
X169346798Y-69365256D02*
X169387652Y-69322347D01*
X169387652Y-69322347D02*
X169652893Y-69057106D01*
X154120800Y-92509970D02*
X154239259Y-92507061D01*
X154239259Y-92507061D02*
X154357434Y-92498344D01*
X154357434Y-92498344D02*
X154475038Y-92483839D01*
X154475038Y-92483839D02*
X154591789Y-92463581D01*
X154591789Y-92463581D02*
X154707405Y-92437618D01*
X154707405Y-92437618D02*
X154821608Y-92406014D01*
X154821608Y-92406014D02*
X154934123Y-92368844D01*
X154934123Y-92368844D02*
X155044679Y-92326198D01*
X155044679Y-92326198D02*
X155153008Y-92278179D01*
X155153008Y-92278179D02*
X155258851Y-92224902D01*
X155258851Y-92224902D02*
X155361953Y-92166495D01*
X155361953Y-92166495D02*
X155462064Y-92103101D01*
X155462064Y-92103101D02*
X155558944Y-92034870D01*
X155558944Y-92034870D02*
X155652359Y-91961968D01*
X155652359Y-91961968D02*
X155742085Y-91884570D01*
X155742085Y-91884570D02*
X155827906Y-91802863D01*
X155827906Y-91802863D02*
X164383690Y-83247079D01*
X144147028Y-92509970D02*
X154120800Y-92509970D01*
X142403917Y-93217076D02*
X141840497Y-93780497D01*
X142403917Y-93217076D02*
X142769758Y-92916837D01*
X142769758Y-92916837D02*
X143187144Y-92693740D01*
X143187144Y-92693740D02*
X143640034Y-92556357D01*
X143640034Y-92556357D02*
X144111024Y-92509970D01*
X144111024Y-92509970D02*
X144147028Y-92509970D01*
%TO.N,col7*%
X201590000Y-67130000D02*
X201590000Y-81130000D01*
X199710000Y-30250000D02*
X196880000Y-30250000D01*
X199710000Y-30250000D02*
X199769229Y-30251454D01*
X199769229Y-30251454D02*
X199828317Y-30255812D01*
X199828317Y-30255812D02*
X199887119Y-30263065D01*
X199887119Y-30263065D02*
X199945494Y-30273194D01*
X199945494Y-30273194D02*
X200003302Y-30286175D01*
X200003302Y-30286175D02*
X200060404Y-30301977D01*
X200060404Y-30301977D02*
X200116661Y-30320562D01*
X200116661Y-30320562D02*
X200171939Y-30341885D01*
X200171939Y-30341885D02*
X200226104Y-30365895D01*
X200226104Y-30365895D02*
X200279025Y-30392533D01*
X200279025Y-30392533D02*
X200330576Y-30421736D01*
X200330576Y-30421736D02*
X200380632Y-30453434D01*
X200380632Y-30453434D02*
X200429072Y-30487549D01*
X200429072Y-30487549D02*
X200475779Y-30524000D01*
X200475779Y-30524000D02*
X200520642Y-30562699D01*
X200520642Y-30562699D02*
X200563553Y-30603553D01*
X201590000Y-32130000D02*
X201588545Y-32070770D01*
X201588545Y-32070770D02*
X201584187Y-32011682D01*
X201584187Y-32011682D02*
X201576934Y-31952880D01*
X201576934Y-31952880D02*
X201566805Y-31894504D01*
X201566805Y-31894504D02*
X201553824Y-31836696D01*
X201553824Y-31836696D02*
X201538022Y-31779595D01*
X201538022Y-31779595D02*
X201519437Y-31723337D01*
X201519437Y-31723337D02*
X201498114Y-31668059D01*
X201498114Y-31668059D02*
X201474104Y-31613894D01*
X201474104Y-31613894D02*
X201447466Y-31560973D01*
X201447466Y-31560973D02*
X201418263Y-31509422D01*
X201418263Y-31509422D02*
X201386565Y-31459366D01*
X201386565Y-31459366D02*
X201352450Y-31410926D01*
X201352450Y-31410926D02*
X201315999Y-31364218D01*
X201315999Y-31364218D02*
X201277300Y-31319355D01*
X201277300Y-31319355D02*
X201236446Y-31276446D01*
X201236446Y-31276446D02*
X200563553Y-30603553D01*
X200882893Y-48837106D02*
X200964600Y-48751285D01*
X200964600Y-48751285D02*
X201041998Y-48661560D01*
X201041998Y-48661560D02*
X201114900Y-48568144D01*
X201114900Y-48568144D02*
X201183131Y-48471264D01*
X201183131Y-48471264D02*
X201246526Y-48371153D01*
X201246526Y-48371153D02*
X201304932Y-48268051D01*
X201304932Y-48268051D02*
X201358209Y-48162208D01*
X201358209Y-48162208D02*
X201406228Y-48053879D01*
X201406228Y-48053879D02*
X201448874Y-47943323D01*
X201448874Y-47943323D02*
X201486044Y-47830808D01*
X201486044Y-47830808D02*
X201517648Y-47716605D01*
X201517648Y-47716605D02*
X201543611Y-47600989D01*
X201543611Y-47600989D02*
X201563869Y-47484238D01*
X201563869Y-47484238D02*
X201578374Y-47366634D01*
X201578374Y-47366634D02*
X201587091Y-47248459D01*
X201587091Y-47248459D02*
X201590000Y-47130000D01*
X201590000Y-47130000D02*
X201590000Y-32130000D01*
X199920000Y-49300000D02*
X196880000Y-49300000D01*
X199920000Y-49300000D02*
X199979229Y-49298545D01*
X199979229Y-49298545D02*
X200038317Y-49294187D01*
X200038317Y-49294187D02*
X200097119Y-49286934D01*
X200097119Y-49286934D02*
X200155494Y-49276805D01*
X200155494Y-49276805D02*
X200213302Y-49263824D01*
X200213302Y-49263824D02*
X200270404Y-49248021D01*
X200270404Y-49248021D02*
X200326661Y-49229436D01*
X200326661Y-49229436D02*
X200381939Y-49208113D01*
X200381939Y-49208113D02*
X200436104Y-49184104D01*
X200436104Y-49184104D02*
X200489025Y-49157465D01*
X200489025Y-49157465D02*
X200540576Y-49128262D01*
X200540576Y-49128262D02*
X200590632Y-49096565D01*
X200590632Y-49096565D02*
X200639072Y-49062449D01*
X200639072Y-49062449D02*
X200685779Y-49025998D01*
X200685779Y-49025998D02*
X200730642Y-48987299D01*
X200730642Y-48987299D02*
X200773553Y-48946446D01*
X200773553Y-48946446D02*
X200882893Y-48837106D01*
X201587091Y-48127091D02*
X201590000Y-48130000D01*
X201587091Y-47248459D02*
X201587091Y-48127091D01*
X192460000Y-83980000D02*
X192578459Y-83982908D01*
X192578459Y-83982908D02*
X192696634Y-83991625D01*
X192696634Y-83991625D02*
X192814238Y-84006130D01*
X192814238Y-84006130D02*
X192930989Y-84026388D01*
X192930989Y-84026388D02*
X193046605Y-84052350D01*
X193046605Y-84052350D02*
X193160808Y-84083955D01*
X193160808Y-84083955D02*
X193273323Y-84121125D01*
X193273323Y-84121125D02*
X193383878Y-84163770D01*
X193383878Y-84163770D02*
X193492208Y-84211790D01*
X193492208Y-84211790D02*
X193598051Y-84265067D01*
X193598051Y-84265067D02*
X193701153Y-84323473D01*
X193701153Y-84323473D02*
X193801264Y-84386868D01*
X193801264Y-84386868D02*
X193898144Y-84455098D01*
X193898144Y-84455098D02*
X193991559Y-84528000D01*
X193991559Y-84528000D02*
X194081285Y-84605398D01*
X194081285Y-84605398D02*
X194167106Y-84687106D01*
X194167106Y-84687106D02*
X196880000Y-87400000D01*
X180242893Y-83272893D02*
X180328713Y-83354600D01*
X180328713Y-83354600D02*
X180418438Y-83431998D01*
X180418438Y-83431998D02*
X180511854Y-83504900D01*
X180511854Y-83504900D02*
X180608734Y-83573131D01*
X180608734Y-83573131D02*
X180708846Y-83636526D01*
X180708846Y-83636526D02*
X180811947Y-83694932D01*
X180811947Y-83694932D02*
X180917790Y-83748209D01*
X180917790Y-83748209D02*
X181026120Y-83796228D01*
X181026120Y-83796228D02*
X181136675Y-83838874D01*
X181136675Y-83838874D02*
X181249190Y-83876044D01*
X181249190Y-83876044D02*
X181363393Y-83907648D01*
X181363393Y-83907648D02*
X181479010Y-83933611D01*
X181479010Y-83933611D02*
X181595761Y-83953869D01*
X181595761Y-83953869D02*
X181713365Y-83968374D01*
X181713365Y-83968374D02*
X181831540Y-83977091D01*
X181831540Y-83977091D02*
X181950000Y-83980000D01*
X181950000Y-83980000D02*
X192460000Y-83980000D01*
X177980000Y-81810000D02*
X178074767Y-81812326D01*
X178074767Y-81812326D02*
X178169307Y-81819300D01*
X178169307Y-81819300D02*
X178263390Y-81830904D01*
X178263390Y-81830904D02*
X178356791Y-81847110D01*
X178356791Y-81847110D02*
X178449284Y-81867880D01*
X178449284Y-81867880D02*
X178540647Y-81893164D01*
X178540647Y-81893164D02*
X178630658Y-81922900D01*
X178630658Y-81922900D02*
X178719103Y-81957016D01*
X178719103Y-81957016D02*
X178805767Y-81995432D01*
X178805767Y-81995432D02*
X178890441Y-82038053D01*
X178890441Y-82038053D02*
X178972922Y-82084778D01*
X178972922Y-82084778D02*
X179053011Y-82135494D01*
X179053011Y-82135494D02*
X179130515Y-82190079D01*
X179130515Y-82190079D02*
X179205248Y-82248400D01*
X179205248Y-82248400D02*
X179277028Y-82310319D01*
X179277028Y-82310319D02*
X179345685Y-82375685D01*
X179345685Y-82375685D02*
X180242893Y-83272893D01*
X175804314Y-82375685D02*
X175872969Y-82310318D01*
X175872969Y-82310318D02*
X175944750Y-82248400D01*
X175944750Y-82248400D02*
X176019483Y-82190078D01*
X176019483Y-82190078D02*
X176096987Y-82135494D01*
X176096987Y-82135494D02*
X176177076Y-82084778D01*
X176177076Y-82084778D02*
X176259557Y-82038053D01*
X176259557Y-82038053D02*
X176344232Y-81995431D01*
X176344232Y-81995431D02*
X176430896Y-81957016D01*
X176430896Y-81957016D02*
X176519340Y-81922899D01*
X176519340Y-81922899D02*
X176609352Y-81893163D01*
X176609352Y-81893163D02*
X176700714Y-81867880D01*
X176700714Y-81867880D02*
X176793208Y-81847110D01*
X176793208Y-81847110D02*
X176886608Y-81830903D01*
X176886608Y-81830903D02*
X176980692Y-81819299D01*
X176980692Y-81819299D02*
X177075232Y-81812326D01*
X177075232Y-81812326D02*
X177170000Y-81810000D01*
X177170000Y-81810000D02*
X177980000Y-81810000D01*
X173290000Y-83890000D02*
X173408459Y-83887091D01*
X173408459Y-83887091D02*
X173526634Y-83878374D01*
X173526634Y-83878374D02*
X173644238Y-83863868D01*
X173644238Y-83863868D02*
X173760989Y-83843610D01*
X173760989Y-83843610D02*
X173876605Y-83817648D01*
X173876605Y-83817648D02*
X173990808Y-83786043D01*
X173990808Y-83786043D02*
X174103323Y-83748873D01*
X174103323Y-83748873D02*
X174213879Y-83706227D01*
X174213879Y-83706227D02*
X174322208Y-83658208D01*
X174322208Y-83658208D02*
X174428051Y-83604931D01*
X174428051Y-83604931D02*
X174531153Y-83546525D01*
X174531153Y-83546525D02*
X174631264Y-83483130D01*
X174631264Y-83483130D02*
X174728144Y-83414899D01*
X174728144Y-83414899D02*
X174821559Y-83341997D01*
X174821559Y-83341997D02*
X174911285Y-83264599D01*
X174911285Y-83264599D02*
X174997106Y-83182892D01*
X174997106Y-83182892D02*
X175804314Y-82375685D01*
X164942893Y-84597106D02*
X165028712Y-84515398D01*
X165028712Y-84515398D02*
X165118438Y-84438000D01*
X165118438Y-84438000D02*
X165211854Y-84365098D01*
X165211854Y-84365098D02*
X165308734Y-84296867D01*
X165308734Y-84296867D02*
X165408845Y-84233472D01*
X165408845Y-84233472D02*
X165511947Y-84175066D01*
X165511947Y-84175066D02*
X165617790Y-84121789D01*
X165617790Y-84121789D02*
X165726120Y-84073770D01*
X165726120Y-84073770D02*
X165836675Y-84031124D01*
X165836675Y-84031124D02*
X165949190Y-83993954D01*
X165949190Y-83993954D02*
X166063393Y-83962350D01*
X166063393Y-83962350D02*
X166179010Y-83936387D01*
X166179010Y-83936387D02*
X166295761Y-83916129D01*
X166295761Y-83916129D02*
X166413365Y-83901624D01*
X166413365Y-83901624D02*
X166531540Y-83892907D01*
X166531540Y-83892907D02*
X166650000Y-83890000D01*
X166650000Y-83890000D02*
X173290000Y-83890000D01*
X200882893Y-67837106D02*
X200964600Y-67751285D01*
X200964600Y-67751285D02*
X201041998Y-67661560D01*
X201041998Y-67661560D02*
X201114900Y-67568144D01*
X201114900Y-67568144D02*
X201183131Y-67471264D01*
X201183131Y-67471264D02*
X201246526Y-67371153D01*
X201246526Y-67371153D02*
X201304932Y-67268051D01*
X201304932Y-67268051D02*
X201358209Y-67162208D01*
X201358209Y-67162208D02*
X201406228Y-67053879D01*
X201406228Y-67053879D02*
X201448874Y-66943323D01*
X201448874Y-66943323D02*
X201486044Y-66830808D01*
X201486044Y-66830808D02*
X201517648Y-66716605D01*
X201517648Y-66716605D02*
X201543611Y-66600989D01*
X201543611Y-66600989D02*
X201563869Y-66484238D01*
X201563869Y-66484238D02*
X201578374Y-66366634D01*
X201578374Y-66366634D02*
X201587091Y-66248459D01*
X201587091Y-66248459D02*
X201590000Y-66130000D01*
X201590000Y-66130000D02*
X201590000Y-48130000D01*
X199870000Y-68350000D02*
X196880000Y-68350000D01*
X199870000Y-68350000D02*
X199929229Y-68348545D01*
X199929229Y-68348545D02*
X199988317Y-68344187D01*
X199988317Y-68344187D02*
X200047119Y-68336934D01*
X200047119Y-68336934D02*
X200105494Y-68326805D01*
X200105494Y-68326805D02*
X200163302Y-68313824D01*
X200163302Y-68313824D02*
X200220404Y-68298021D01*
X200220404Y-68298021D02*
X200276661Y-68279436D01*
X200276661Y-68279436D02*
X200331939Y-68258113D01*
X200331939Y-68258113D02*
X200386104Y-68234104D01*
X200386104Y-68234104D02*
X200439025Y-68207465D01*
X200439025Y-68207465D02*
X200490576Y-68178262D01*
X200490576Y-68178262D02*
X200540632Y-68146565D01*
X200540632Y-68146565D02*
X200589072Y-68112449D01*
X200589072Y-68112449D02*
X200635779Y-68075998D01*
X200635779Y-68075998D02*
X200680642Y-68037299D01*
X200680642Y-68037299D02*
X200723553Y-67996446D01*
X200723553Y-67996446D02*
X200882893Y-67837106D01*
X154798459Y-93857091D02*
X154916634Y-93848374D01*
X154916634Y-93848374D02*
X155034238Y-93833869D01*
X155034238Y-93833869D02*
X155150989Y-93813611D01*
X155150989Y-93813611D02*
X155266605Y-93787648D01*
X155266605Y-93787648D02*
X155380808Y-93756044D01*
X155380808Y-93756044D02*
X155493323Y-93718874D01*
X155493323Y-93718874D02*
X155603879Y-93676228D01*
X155603879Y-93676228D02*
X155712208Y-93628209D01*
X155712208Y-93628209D02*
X155818051Y-93574932D01*
X155818051Y-93574932D02*
X155921153Y-93516525D01*
X155921153Y-93516525D02*
X156021264Y-93453131D01*
X156021264Y-93453131D02*
X156118144Y-93384900D01*
X156118144Y-93384900D02*
X156211559Y-93311998D01*
X156211559Y-93311998D02*
X156301285Y-93234600D01*
X156301285Y-93234600D02*
X156387106Y-93152893D01*
X156387106Y-93152893D02*
X164942893Y-84597106D01*
X154682909Y-93857091D02*
X154680000Y-93860000D01*
X154798459Y-93857091D02*
X154682909Y-93857091D01*
X145980000Y-93860000D02*
X154680000Y-93860000D01*
X201587091Y-67127091D02*
X201590000Y-67130000D01*
X201587091Y-66248459D02*
X201587091Y-67127091D01*
X145660000Y-93860000D02*
X145980000Y-93860000D01*
X145660000Y-93860000D02*
X145424504Y-93883193D01*
X145424504Y-93883193D02*
X145198059Y-93951885D01*
X145198059Y-93951885D02*
X144989366Y-94063433D01*
X144989366Y-94063433D02*
X144806446Y-94213553D01*
X144806446Y-94213553D02*
X143690000Y-95330000D01*
%TO.N,col8*%
X218810000Y-30250000D02*
X215930000Y-30250000D01*
X218810000Y-30250000D02*
X218869229Y-30251454D01*
X218869229Y-30251454D02*
X218928317Y-30255812D01*
X218928317Y-30255812D02*
X218987119Y-30263065D01*
X218987119Y-30263065D02*
X219045494Y-30273194D01*
X219045494Y-30273194D02*
X219103302Y-30286175D01*
X219103302Y-30286175D02*
X219160404Y-30301977D01*
X219160404Y-30301977D02*
X219216661Y-30320562D01*
X219216661Y-30320562D02*
X219271939Y-30341885D01*
X219271939Y-30341885D02*
X219326104Y-30365895D01*
X219326104Y-30365895D02*
X219379025Y-30392533D01*
X219379025Y-30392533D02*
X219430576Y-30421736D01*
X219430576Y-30421736D02*
X219480632Y-30453434D01*
X219480632Y-30453434D02*
X219529072Y-30487549D01*
X219529072Y-30487549D02*
X219575779Y-30524000D01*
X219575779Y-30524000D02*
X219620642Y-30562699D01*
X219620642Y-30562699D02*
X219663553Y-30603553D01*
X220690000Y-32130000D02*
X220688544Y-32070770D01*
X220688544Y-32070770D02*
X220684186Y-32011682D01*
X220684186Y-32011682D02*
X220676933Y-31952880D01*
X220676933Y-31952880D02*
X220666804Y-31894505D01*
X220666804Y-31894505D02*
X220653823Y-31836696D01*
X220653823Y-31836696D02*
X220638021Y-31779595D01*
X220638021Y-31779595D02*
X220619436Y-31723337D01*
X220619436Y-31723337D02*
X220598113Y-31668060D01*
X220598113Y-31668060D02*
X220574103Y-31613895D01*
X220574103Y-31613895D02*
X220547465Y-31560973D01*
X220547465Y-31560973D02*
X220518262Y-31509422D01*
X220518262Y-31509422D02*
X220486564Y-31459367D01*
X220486564Y-31459367D02*
X220452449Y-31410927D01*
X220452449Y-31410927D02*
X220415998Y-31364219D01*
X220415998Y-31364219D02*
X220377299Y-31319356D01*
X220377299Y-31319356D02*
X220336446Y-31276446D01*
X220336446Y-31276446D02*
X219663553Y-30603553D01*
X219982893Y-48637106D02*
X220064599Y-48551285D01*
X220064599Y-48551285D02*
X220141997Y-48461559D01*
X220141997Y-48461559D02*
X220214900Y-48368144D01*
X220214900Y-48368144D02*
X220283130Y-48271264D01*
X220283130Y-48271264D02*
X220346525Y-48171152D01*
X220346525Y-48171152D02*
X220404931Y-48068051D01*
X220404931Y-48068051D02*
X220458208Y-47962208D01*
X220458208Y-47962208D02*
X220506228Y-47853878D01*
X220506228Y-47853878D02*
X220548874Y-47743323D01*
X220548874Y-47743323D02*
X220586044Y-47630808D01*
X220586044Y-47630808D02*
X220617648Y-47516605D01*
X220617648Y-47516605D02*
X220643611Y-47400989D01*
X220643611Y-47400989D02*
X220663869Y-47284238D01*
X220663869Y-47284238D02*
X220678374Y-47166634D01*
X220678374Y-47166634D02*
X220687091Y-47048459D01*
X220687091Y-47048459D02*
X220690000Y-46930000D01*
X220690000Y-46930000D02*
X220690000Y-32130000D01*
X218820000Y-49300000D02*
X215930000Y-49300000D01*
X218820000Y-49300000D02*
X218879229Y-49298545D01*
X218879229Y-49298545D02*
X218938317Y-49294187D01*
X218938317Y-49294187D02*
X218997119Y-49286934D01*
X218997119Y-49286934D02*
X219055494Y-49276805D01*
X219055494Y-49276805D02*
X219113302Y-49263824D01*
X219113302Y-49263824D02*
X219170404Y-49248021D01*
X219170404Y-49248021D02*
X219226661Y-49229436D01*
X219226661Y-49229436D02*
X219281939Y-49208113D01*
X219281939Y-49208113D02*
X219336104Y-49184104D01*
X219336104Y-49184104D02*
X219389025Y-49157465D01*
X219389025Y-49157465D02*
X219440576Y-49128262D01*
X219440576Y-49128262D02*
X219490632Y-49096565D01*
X219490632Y-49096565D02*
X219539072Y-49062449D01*
X219539072Y-49062449D02*
X219585779Y-49025998D01*
X219585779Y-49025998D02*
X219630642Y-48987299D01*
X219630642Y-48987299D02*
X219673553Y-48946446D01*
X219673553Y-48946446D02*
X219982893Y-48637106D01*
X220687091Y-47927091D02*
X220690000Y-47930000D01*
X220687091Y-47048459D02*
X220687091Y-47927091D01*
X219982893Y-67837106D02*
X220064599Y-67751285D01*
X220064599Y-67751285D02*
X220141997Y-67661559D01*
X220141997Y-67661559D02*
X220214900Y-67568144D01*
X220214900Y-67568144D02*
X220283130Y-67471264D01*
X220283130Y-67471264D02*
X220346525Y-67371152D01*
X220346525Y-67371152D02*
X220404931Y-67268051D01*
X220404931Y-67268051D02*
X220458208Y-67162208D01*
X220458208Y-67162208D02*
X220506228Y-67053878D01*
X220506228Y-67053878D02*
X220548874Y-66943323D01*
X220548874Y-66943323D02*
X220586044Y-66830808D01*
X220586044Y-66830808D02*
X220617648Y-66716605D01*
X220617648Y-66716605D02*
X220643611Y-66600989D01*
X220643611Y-66600989D02*
X220663869Y-66484238D01*
X220663869Y-66484238D02*
X220678374Y-66366634D01*
X220678374Y-66366634D02*
X220687091Y-66248459D01*
X220687091Y-66248459D02*
X220690000Y-66130000D01*
X220690000Y-66130000D02*
X220690000Y-47930000D01*
X218970000Y-68350000D02*
X215930000Y-68350000D01*
X218970000Y-68350000D02*
X219029229Y-68348545D01*
X219029229Y-68348545D02*
X219088317Y-68344187D01*
X219088317Y-68344187D02*
X219147119Y-68336934D01*
X219147119Y-68336934D02*
X219205494Y-68326805D01*
X219205494Y-68326805D02*
X219263302Y-68313824D01*
X219263302Y-68313824D02*
X219320404Y-68298021D01*
X219320404Y-68298021D02*
X219376661Y-68279436D01*
X219376661Y-68279436D02*
X219431939Y-68258113D01*
X219431939Y-68258113D02*
X219486104Y-68234104D01*
X219486104Y-68234104D02*
X219539025Y-68207465D01*
X219539025Y-68207465D02*
X219590576Y-68178262D01*
X219590576Y-68178262D02*
X219640632Y-68146565D01*
X219640632Y-68146565D02*
X219689072Y-68112449D01*
X219689072Y-68112449D02*
X219735779Y-68075998D01*
X219735779Y-68075998D02*
X219780642Y-68037299D01*
X219780642Y-68037299D02*
X219823553Y-67996446D01*
X219823553Y-67996446D02*
X219982893Y-67837106D01*
X144538586Y-93431414D02*
X144140000Y-93830000D01*
X154493600Y-93409990D02*
X144756125Y-93409990D01*
X155194408Y-93306034D02*
X155080205Y-93337638D01*
X155525808Y-93178199D02*
X155417479Y-93226218D01*
X155931744Y-92934890D02*
X155834864Y-93003121D01*
X156114885Y-92784590D02*
X156025159Y-92861988D01*
X165122333Y-83846857D02*
X165025453Y-83915088D01*
X165222444Y-83783463D02*
X165122333Y-83846857D01*
X165325546Y-83725056D02*
X165222444Y-83783463D01*
X165431389Y-83671779D02*
X165325546Y-83725056D01*
X165650274Y-83581114D02*
X165539719Y-83623760D01*
X154847838Y-93383859D02*
X154730234Y-93398364D01*
X165762789Y-83543944D02*
X165650274Y-83581114D01*
X165876992Y-83512340D02*
X165762789Y-83543944D01*
X166109360Y-83466119D02*
X165992609Y-83486377D01*
X164842311Y-84065388D02*
X164756492Y-84147097D01*
X173222059Y-83437081D02*
X173103600Y-83439990D01*
X173457838Y-83413858D02*
X173340234Y-83428364D01*
X173574589Y-83393600D02*
X173457838Y-83413858D01*
X173690205Y-83367638D02*
X173574589Y-83393600D01*
X173804408Y-83336033D02*
X173690205Y-83367638D01*
X174027479Y-83256217D02*
X173916923Y-83298863D01*
X174241651Y-83154921D02*
X174135808Y-83208198D01*
X174344753Y-83096515D02*
X174241651Y-83154921D01*
X174444864Y-83033120D02*
X174344753Y-83096515D01*
X154612059Y-93407081D02*
X154493600Y-93409990D01*
X174635159Y-82891987D02*
X174541744Y-82964889D01*
X175617913Y-81925676D02*
X174810706Y-82732882D01*
X175758349Y-81798391D02*
X175686568Y-81860309D01*
X175833081Y-81740069D02*
X175758349Y-81798391D01*
X173340234Y-83428364D02*
X173222059Y-83437081D01*
X175686568Y-81860309D02*
X175617913Y-81925676D01*
X175910585Y-81685484D02*
X175833081Y-81740069D01*
X166226964Y-83451614D02*
X166109360Y-83466119D01*
X176073156Y-81588043D02*
X175990674Y-81634768D01*
X155631651Y-93124922D02*
X155525808Y-93178199D01*
X176157830Y-81545422D02*
X176073156Y-81588043D01*
X176244494Y-81507006D02*
X176157830Y-81545422D01*
X176332938Y-81472890D02*
X176244494Y-81507006D01*
X181549793Y-83457638D02*
X181435590Y-83426034D01*
X181665410Y-83483601D02*
X181549793Y-83457638D01*
X155734753Y-93066515D02*
X155631651Y-93124922D01*
X181782161Y-83503859D02*
X181665410Y-83483601D01*
X211760798Y-83633944D02*
X211646595Y-83602340D01*
X155834864Y-93003121D02*
X155734753Y-93066515D01*
X174724885Y-82814589D02*
X174635159Y-82891987D01*
X211414228Y-83556119D02*
X211296624Y-83541614D01*
X212401254Y-83936857D02*
X212301143Y-83873462D01*
X156025159Y-92861988D02*
X155931744Y-92934890D01*
X178905503Y-81507006D02*
X178817058Y-81472890D01*
X164756492Y-84147097D02*
X156200706Y-92702883D01*
X181435590Y-83426034D02*
X181323075Y-83388864D01*
X212767096Y-84237096D02*
X212681275Y-84155388D01*
X181212520Y-83346218D02*
X181104190Y-83298199D01*
X180998347Y-83244922D02*
X180895246Y-83186516D01*
X182136400Y-83529990D02*
X182017940Y-83527081D01*
X212681275Y-84155388D02*
X212591550Y-84077990D01*
X180795134Y-83123121D02*
X180698254Y-83054890D01*
X173916923Y-83298863D02*
X173804408Y-83336033D01*
X176700207Y-81380894D02*
X176606806Y-81397100D01*
X182017940Y-83527081D02*
X181899765Y-83518364D01*
X215930000Y-87400000D02*
X212767096Y-84237096D01*
X174135808Y-83208198D02*
X174027479Y-83256217D01*
X212591550Y-84077990D02*
X212498134Y-84005088D01*
X175990674Y-81634768D02*
X175910585Y-81685484D01*
X178449790Y-81380894D02*
X178355707Y-81369290D01*
X211296624Y-83541614D02*
X211178449Y-83532897D01*
X181323075Y-83388864D02*
X181212520Y-83346218D01*
X211059990Y-83529990D02*
X182136400Y-83529990D01*
X154964589Y-93363601D02*
X154847838Y-93383859D01*
X178992167Y-81545422D02*
X178905503Y-81507006D01*
X144756125Y-93409990D02*
X144538586Y-93431414D01*
X165539719Y-83623760D02*
X165431389Y-83671779D01*
X212498134Y-84005088D02*
X212401254Y-83936857D01*
X173103600Y-83439990D02*
X166463599Y-83439990D01*
X212198041Y-83815056D02*
X212092198Y-83761779D01*
X155080205Y-93337638D02*
X154964589Y-93363601D01*
X166463599Y-83439990D02*
X166345139Y-83442897D01*
X211178449Y-83532897D02*
X211059990Y-83529990D01*
X165025453Y-83915088D02*
X164932037Y-83987990D01*
X212301143Y-83873462D02*
X212198041Y-83815056D01*
X181899765Y-83518364D02*
X181782161Y-83503859D01*
X212092198Y-83761779D02*
X211983869Y-83713760D01*
X176983598Y-81359990D02*
X176888830Y-81362316D01*
X156200706Y-92702883D02*
X156114885Y-92784590D01*
X174810706Y-82732882D02*
X174724885Y-82814589D01*
X179463428Y-81860309D02*
X179391648Y-81798390D01*
X211983869Y-83713760D02*
X211873313Y-83671114D01*
X155417479Y-93226218D02*
X155306923Y-93268864D01*
X211873313Y-83671114D02*
X211760798Y-83633944D01*
X211646595Y-83602340D02*
X211530979Y-83576377D01*
X180429293Y-82822883D02*
X179532085Y-81925675D01*
X165992609Y-83486377D02*
X165876992Y-83512340D01*
X180895246Y-83186516D02*
X180795134Y-83123121D01*
X155306923Y-93268864D02*
X155194408Y-93306034D01*
X178166400Y-81359990D02*
X176983598Y-81359990D01*
X180698254Y-83054890D02*
X180604838Y-82981988D01*
X178727047Y-81443154D02*
X178635684Y-81417870D01*
X176794290Y-81369289D02*
X176700207Y-81380894D01*
X180604838Y-82981988D02*
X180515113Y-82904590D01*
X164932037Y-83987990D02*
X164842311Y-84065388D01*
X179391648Y-81798390D02*
X179316915Y-81740069D01*
X166345139Y-83442897D02*
X166226964Y-83451614D01*
X179532085Y-81925675D02*
X179463428Y-81860309D01*
X179316915Y-81740069D02*
X179239411Y-81685484D01*
X181104190Y-83298199D02*
X180998347Y-83244922D01*
X179159322Y-81634768D02*
X179076841Y-81588043D01*
X180515113Y-82904590D02*
X180429293Y-82822883D01*
X179076841Y-81588043D02*
X178992167Y-81545422D01*
X178817058Y-81472890D02*
X178727047Y-81443154D01*
X174541744Y-82964889D02*
X174444864Y-83033120D01*
X178635684Y-81417870D02*
X178543191Y-81397100D01*
X154730234Y-93398364D02*
X154612059Y-93407081D01*
X176888830Y-81362316D02*
X176794290Y-81369289D01*
X176606806Y-81397100D02*
X176514313Y-81417870D01*
X176422950Y-81443154D02*
X176332938Y-81472890D01*
X178543191Y-81397100D02*
X178449790Y-81380894D01*
X178355707Y-81369290D02*
X178261167Y-81362316D01*
X211530979Y-83576377D02*
X211414228Y-83556119D01*
X179239411Y-81685484D02*
X179159322Y-81634768D01*
X178261167Y-81362316D02*
X178166400Y-81359990D01*
X176514313Y-81417870D02*
X176422950Y-81443154D01*
%TO.N,col9*%
X227470000Y-30250000D02*
X234980000Y-30250000D01*
X227470000Y-30250000D02*
X227351540Y-30252907D01*
X227351540Y-30252907D02*
X227233365Y-30261624D01*
X227233365Y-30261624D02*
X227115761Y-30276129D01*
X227115761Y-30276129D02*
X226999010Y-30296387D01*
X226999010Y-30296387D02*
X226883393Y-30322350D01*
X226883393Y-30322350D02*
X226769190Y-30353954D01*
X226769190Y-30353954D02*
X226656675Y-30391124D01*
X226656675Y-30391124D02*
X226546120Y-30433770D01*
X226546120Y-30433770D02*
X226437790Y-30481789D01*
X226437790Y-30481789D02*
X226331947Y-30535066D01*
X226331947Y-30535066D02*
X226228846Y-30593472D01*
X226228846Y-30593472D02*
X226128734Y-30656867D01*
X226128734Y-30656867D02*
X226031854Y-30725098D01*
X226031854Y-30725098D02*
X225938438Y-30798000D01*
X225938438Y-30798000D02*
X225848713Y-30875398D01*
X225848713Y-30875398D02*
X225762893Y-30957106D01*
X225190000Y-32030000D02*
X225191453Y-31970770D01*
X225191453Y-31970770D02*
X225195812Y-31911682D01*
X225195812Y-31911682D02*
X225203064Y-31852880D01*
X225203064Y-31852880D02*
X225213193Y-31794504D01*
X225213193Y-31794504D02*
X225226175Y-31736696D01*
X225226175Y-31736696D02*
X225241977Y-31679595D01*
X225241977Y-31679595D02*
X225260562Y-31623337D01*
X225260562Y-31623337D02*
X225281885Y-31568059D01*
X225281885Y-31568059D02*
X225305894Y-31513894D01*
X225305894Y-31513894D02*
X225332533Y-31460973D01*
X225332533Y-31460973D02*
X225361736Y-31409422D01*
X225361736Y-31409422D02*
X225393433Y-31359366D01*
X225393433Y-31359366D02*
X225427548Y-31310926D01*
X225427548Y-31310926D02*
X225464000Y-31264218D01*
X225464000Y-31264218D02*
X225502699Y-31219355D01*
X225502699Y-31219355D02*
X225543553Y-31176446D01*
X225543553Y-31176446D02*
X225762893Y-30957106D01*
X225897106Y-48637106D02*
X225815398Y-48551285D01*
X225815398Y-48551285D02*
X225738000Y-48461560D01*
X225738000Y-48461560D02*
X225665098Y-48368144D01*
X225665098Y-48368144D02*
X225596867Y-48271264D01*
X225596867Y-48271264D02*
X225533472Y-48171153D01*
X225533472Y-48171153D02*
X225475066Y-48068051D01*
X225475066Y-48068051D02*
X225421789Y-47962208D01*
X225421789Y-47962208D02*
X225373770Y-47853879D01*
X225373770Y-47853879D02*
X225331124Y-47743323D01*
X225331124Y-47743323D02*
X225293954Y-47630808D01*
X225293954Y-47630808D02*
X225262350Y-47516605D01*
X225262350Y-47516605D02*
X225236387Y-47400989D01*
X225236387Y-47400989D02*
X225216129Y-47284238D01*
X225216129Y-47284238D02*
X225201624Y-47166634D01*
X225201624Y-47166634D02*
X225192907Y-47048459D01*
X225192907Y-47048459D02*
X225190000Y-46930000D01*
X225190000Y-46930000D02*
X225190000Y-32030000D01*
X227060000Y-49300000D02*
X234980000Y-49300000D01*
X227060000Y-49300000D02*
X227000770Y-49298545D01*
X227000770Y-49298545D02*
X226941682Y-49294187D01*
X226941682Y-49294187D02*
X226882880Y-49286934D01*
X226882880Y-49286934D02*
X226824504Y-49276805D01*
X226824504Y-49276805D02*
X226766696Y-49263824D01*
X226766696Y-49263824D02*
X226709595Y-49248022D01*
X226709595Y-49248022D02*
X226653337Y-49229437D01*
X226653337Y-49229437D02*
X226598059Y-49208114D01*
X226598059Y-49208114D02*
X226543894Y-49184104D01*
X226543894Y-49184104D02*
X226490973Y-49157466D01*
X226490973Y-49157466D02*
X226439422Y-49128263D01*
X226439422Y-49128263D02*
X226389366Y-49096565D01*
X226389366Y-49096565D02*
X226340926Y-49062450D01*
X226340926Y-49062450D02*
X226294218Y-49025999D01*
X226294218Y-49025999D02*
X226249355Y-48987300D01*
X226249355Y-48987300D02*
X226206446Y-48946446D01*
X226206446Y-48946446D02*
X225897106Y-48637106D01*
X225190000Y-46930000D02*
X225190000Y-47930000D01*
X225190000Y-66130000D02*
X225190000Y-47930000D01*
X225190000Y-66130000D02*
X225192908Y-66248459D01*
X225192908Y-66248459D02*
X225201625Y-66366634D01*
X225201625Y-66366634D02*
X225216130Y-66484238D01*
X225216130Y-66484238D02*
X225236388Y-66600989D01*
X225236388Y-66600989D02*
X225262350Y-66716605D01*
X225262350Y-66716605D02*
X225293955Y-66830808D01*
X225293955Y-66830808D02*
X225331125Y-66943323D01*
X225331125Y-66943323D02*
X225373770Y-67053878D01*
X225373770Y-67053878D02*
X225421790Y-67162208D01*
X225421790Y-67162208D02*
X225475067Y-67268051D01*
X225475067Y-67268051D02*
X225533473Y-67371153D01*
X225533473Y-67371153D02*
X225596868Y-67471264D01*
X225596868Y-67471264D02*
X225665098Y-67568144D01*
X225665098Y-67568144D02*
X225738000Y-67661559D01*
X225738000Y-67661559D02*
X225815398Y-67751285D01*
X225815398Y-67751285D02*
X225897106Y-67837106D01*
X226910000Y-68350000D02*
X234980000Y-68350000D01*
X226910000Y-68350000D02*
X226850770Y-68348545D01*
X226850770Y-68348545D02*
X226791682Y-68344187D01*
X226791682Y-68344187D02*
X226732880Y-68336934D01*
X226732880Y-68336934D02*
X226674504Y-68326805D01*
X226674504Y-68326805D02*
X226616696Y-68313824D01*
X226616696Y-68313824D02*
X226559595Y-68298022D01*
X226559595Y-68298022D02*
X226503337Y-68279437D01*
X226503337Y-68279437D02*
X226448059Y-68258114D01*
X226448059Y-68258114D02*
X226393894Y-68234104D01*
X226393894Y-68234104D02*
X226340973Y-68207466D01*
X226340973Y-68207466D02*
X226289422Y-68178263D01*
X226289422Y-68178263D02*
X226239366Y-68146565D01*
X226239366Y-68146565D02*
X226190926Y-68112450D01*
X226190926Y-68112450D02*
X226144218Y-68075999D01*
X226144218Y-68075999D02*
X226099355Y-68037300D01*
X226099355Y-68037300D02*
X226056446Y-67996446D01*
X226056446Y-67996446D02*
X225897106Y-67837106D01*
X225192908Y-67127092D02*
X225190000Y-67130000D01*
X225192908Y-66248459D02*
X225192908Y-67127092D01*
X225897106Y-78297106D02*
X225815398Y-78211285D01*
X225815398Y-78211285D02*
X225738000Y-78121560D01*
X225738000Y-78121560D02*
X225665098Y-78028144D01*
X225665098Y-78028144D02*
X225596867Y-77931264D01*
X225596867Y-77931264D02*
X225533472Y-77831153D01*
X225533472Y-77831153D02*
X225475066Y-77728051D01*
X225475066Y-77728051D02*
X225421789Y-77622208D01*
X225421789Y-77622208D02*
X225373770Y-77513879D01*
X225373770Y-77513879D02*
X225331124Y-77403323D01*
X225331124Y-77403323D02*
X225293954Y-77290808D01*
X225293954Y-77290808D02*
X225262350Y-77176605D01*
X225262350Y-77176605D02*
X225236387Y-77060989D01*
X225236387Y-77060989D02*
X225216129Y-76944238D01*
X225216129Y-76944238D02*
X225201624Y-76826634D01*
X225201624Y-76826634D02*
X225192907Y-76708459D01*
X225192907Y-76708459D02*
X225190000Y-76590000D01*
X225190000Y-76590000D02*
X225190000Y-67130000D01*
X230679980Y-83079980D02*
X225897106Y-78297106D01*
X231387086Y-83787086D02*
X234980000Y-87380000D01*
X230679980Y-83079980D02*
X231387086Y-83787086D01*
X155008008Y-92856024D02*
X154893805Y-92887628D01*
X155120523Y-92818854D02*
X155008008Y-92856024D01*
X155231079Y-92776208D02*
X155120523Y-92818854D01*
X155445251Y-92674912D02*
X155339408Y-92728189D01*
X155648464Y-92553111D02*
X155548353Y-92616505D01*
X155745344Y-92484880D02*
X155648464Y-92553111D01*
X155838759Y-92411978D02*
X155745344Y-92484880D01*
X155928485Y-92334580D02*
X155838759Y-92411978D01*
X156014306Y-92252873D02*
X155928485Y-92334580D01*
X165690591Y-83062332D02*
X165576388Y-83093936D01*
X164570091Y-83697088D02*
X156014306Y-92252873D01*
X165806208Y-83036369D02*
X165690591Y-83062332D01*
X165922959Y-83016111D02*
X165806208Y-83036369D01*
X173503803Y-82917630D02*
X173388187Y-82943592D01*
X173618006Y-82886025D02*
X173503803Y-82917630D01*
X173730521Y-82848855D02*
X173618006Y-82886025D01*
X173841077Y-82806209D02*
X173730521Y-82848855D01*
X174158351Y-82646507D02*
X174055249Y-82704913D01*
X174448757Y-82441979D02*
X174355342Y-82514881D01*
X174538483Y-82364581D02*
X174448757Y-82441979D01*
X175571948Y-81348382D02*
X175500167Y-81410300D01*
X175646680Y-81290060D02*
X175571948Y-81348382D01*
X175724184Y-81235475D02*
X175646680Y-81290060D01*
X173388187Y-82943592D02*
X173271436Y-82963850D01*
X175886755Y-81138034D02*
X175804273Y-81184759D01*
X176058093Y-81056997D02*
X175971429Y-81095413D01*
X182204340Y-83077070D02*
X182086165Y-83068353D01*
X229798439Y-83082888D02*
X229679980Y-83079980D01*
X155548353Y-92616505D02*
X155445251Y-92674912D01*
X230034218Y-83106110D02*
X229916614Y-83091605D01*
X175500167Y-81410300D02*
X175431512Y-81475667D01*
X230921133Y-83423453D02*
X230818031Y-83365047D01*
X173271436Y-82963850D02*
X173153832Y-82978356D01*
X175804273Y-81184759D02*
X175724184Y-81235475D01*
X231387086Y-83787086D02*
X231301265Y-83705378D01*
X176607889Y-80919280D02*
X176513806Y-80930885D01*
X154543834Y-92948354D02*
X154425659Y-92957071D01*
X231301265Y-83705378D02*
X231211539Y-83627980D01*
X154893805Y-92887628D02*
X154778189Y-92913591D01*
X173035657Y-82987073D02*
X172917198Y-82989982D01*
X178729590Y-80947091D02*
X178636189Y-80930885D01*
X181509475Y-82938853D02*
X181398920Y-82896208D01*
X230603858Y-83263750D02*
X230493303Y-83221105D01*
X174258462Y-82583112D02*
X174158351Y-82646507D01*
X181851810Y-83033590D02*
X181736193Y-83007628D01*
X176797197Y-80909981D02*
X176702429Y-80912307D01*
X181398920Y-82896208D02*
X181290590Y-82848188D01*
X174355342Y-82514881D02*
X174258462Y-82583112D01*
X181968561Y-83053848D02*
X181851810Y-83033590D01*
X181081645Y-82736505D02*
X180981534Y-82673110D01*
X182322800Y-83079980D02*
X182204340Y-83077070D01*
X175431512Y-81475667D02*
X174624304Y-82282874D01*
X175971429Y-81095413D02*
X175886755Y-81138034D01*
X181184747Y-82794911D02*
X181081645Y-82736505D01*
X180981534Y-82673110D02*
X180884654Y-82604880D01*
X179263240Y-81138034D02*
X179178566Y-81095413D01*
X155339408Y-92728189D02*
X155231079Y-92776208D01*
X181290590Y-82848188D02*
X181184747Y-82794911D01*
X231118124Y-83555078D02*
X231021244Y-83486848D01*
X165353318Y-83173752D02*
X165244988Y-83221771D01*
X180701512Y-82454580D02*
X180615692Y-82372873D01*
X165244988Y-83221771D02*
X165139145Y-83275048D01*
X165576388Y-83093936D02*
X165463873Y-83131106D01*
X173153832Y-82978356D02*
X173035657Y-82987073D01*
X180615692Y-82372873D02*
X179718484Y-81475666D01*
X179091902Y-81056997D02*
X179003457Y-81022881D01*
X229679980Y-83079980D02*
X182322800Y-83079980D01*
X164745636Y-83537982D02*
X164655910Y-83615380D01*
X179425810Y-81235475D02*
X179345721Y-81184759D01*
X176513806Y-80930885D02*
X176420405Y-80947091D01*
X154425659Y-92957071D02*
X154307200Y-92959980D01*
X176236549Y-80993145D02*
X176146537Y-81022881D01*
X174055249Y-82704913D02*
X173949406Y-82758190D01*
X231211539Y-83627980D02*
X231118124Y-83555078D01*
X230818031Y-83365047D02*
X230712188Y-83311770D01*
X231021244Y-83486848D02*
X230921133Y-83423453D01*
X181736193Y-83007628D02*
X181621990Y-82976023D01*
X230493303Y-83221105D02*
X230380788Y-83183935D01*
X229916614Y-83091605D02*
X229798439Y-83082888D01*
X230380788Y-83183935D02*
X230266585Y-83152330D01*
X230150969Y-83126368D02*
X230034218Y-83106110D01*
X180884654Y-82604880D02*
X180791238Y-82531978D01*
X178447566Y-80912307D02*
X178352799Y-80909981D01*
X154661438Y-92933849D02*
X154543834Y-92948354D01*
X164935932Y-83396849D02*
X164839052Y-83465080D01*
X166277198Y-82989982D02*
X166158738Y-82992889D01*
X179578047Y-81348381D02*
X179503314Y-81290060D01*
X176420405Y-80947091D02*
X176327912Y-80967861D01*
X165463873Y-83131106D02*
X165353318Y-83173752D01*
X180791238Y-82531978D02*
X180701512Y-82454580D01*
X166040563Y-83001606D02*
X165922959Y-83016111D01*
X181621990Y-82976023D02*
X181509475Y-82938853D01*
X178352799Y-80909981D02*
X176797197Y-80909981D01*
X165139145Y-83275048D02*
X165036043Y-83333454D01*
X179718484Y-81475666D02*
X179649827Y-81410300D01*
X164839052Y-83465080D02*
X164745636Y-83537982D01*
X166158738Y-82992889D02*
X166040563Y-83001606D01*
X176327912Y-80967861D02*
X176236549Y-80993145D01*
X179503314Y-81290060D02*
X179425810Y-81235475D01*
X164655910Y-83615380D02*
X164570091Y-83697088D01*
X179345721Y-81184759D02*
X179263240Y-81138034D01*
X176146537Y-81022881D02*
X176058093Y-81056997D01*
X173949406Y-82758190D02*
X173841077Y-82806209D01*
X179178566Y-81095413D02*
X179091902Y-81056997D01*
X230266585Y-83152330D02*
X230150969Y-83126368D01*
X179003457Y-81022881D02*
X178913446Y-80993145D01*
X178913446Y-80993145D02*
X178822083Y-80967861D01*
X178822083Y-80967861D02*
X178729590Y-80947091D01*
X154778189Y-92913591D02*
X154661438Y-92933849D01*
X165036043Y-83333454D02*
X164935932Y-83396849D01*
X172917198Y-82989982D02*
X166277198Y-82989982D01*
X182086165Y-83068353D02*
X181968561Y-83053848D01*
X179649827Y-81410300D02*
X179578047Y-81348381D01*
X178636189Y-80930885D02*
X178542106Y-80919281D01*
X230712188Y-83311770D02*
X230603858Y-83263750D01*
X178542106Y-80919281D02*
X178447566Y-80912307D01*
X174624304Y-82282874D02*
X174538483Y-82364581D01*
X176702429Y-80912307D02*
X176607889Y-80919280D01*
X143026909Y-93667086D02*
X142951998Y-93741998D01*
X143026909Y-93667086D02*
X143392750Y-93366847D01*
X143392750Y-93366847D02*
X143810136Y-93143750D01*
X143810136Y-93143750D02*
X144263026Y-93006367D01*
X144263026Y-93006367D02*
X144734016Y-92959980D01*
X144734016Y-92959980D02*
X154307200Y-92959980D01*
%TO.N,Net-(R3-Pad2)*%
X138797106Y-88422893D02*
X142340000Y-84880000D01*
X138797106Y-88422893D02*
X138711285Y-88504600D01*
X138711285Y-88504600D02*
X138621560Y-88581998D01*
X138621560Y-88581998D02*
X138528144Y-88654900D01*
X138528144Y-88654900D02*
X138431264Y-88723131D01*
X138431264Y-88723131D02*
X138331153Y-88786526D01*
X138331153Y-88786526D02*
X138228051Y-88844932D01*
X138228051Y-88844932D02*
X138122208Y-88898209D01*
X138122208Y-88898209D02*
X138013879Y-88946228D01*
X138013879Y-88946228D02*
X137903323Y-88988874D01*
X137903323Y-88988874D02*
X137790808Y-89026044D01*
X137790808Y-89026044D02*
X137676605Y-89057648D01*
X137676605Y-89057648D02*
X137560989Y-89083611D01*
X137560989Y-89083611D02*
X137444238Y-89103869D01*
X137444238Y-89103869D02*
X137326634Y-89118374D01*
X137326634Y-89118374D02*
X137208459Y-89127091D01*
X137208459Y-89127091D02*
X137090000Y-89130000D01*
X126882893Y-88422893D02*
X126968713Y-88504599D01*
X126968713Y-88504599D02*
X127058439Y-88581997D01*
X127058439Y-88581997D02*
X127151854Y-88654900D01*
X127151854Y-88654900D02*
X127248735Y-88723130D01*
X127248735Y-88723130D02*
X127348846Y-88786525D01*
X127348846Y-88786525D02*
X127451947Y-88844931D01*
X127451947Y-88844931D02*
X127557790Y-88898208D01*
X127557790Y-88898208D02*
X127666120Y-88946227D01*
X127666120Y-88946227D02*
X127776676Y-88988873D01*
X127776676Y-88988873D02*
X127889190Y-89026043D01*
X127889190Y-89026043D02*
X128003394Y-89057647D01*
X128003394Y-89057647D02*
X128119010Y-89083610D01*
X128119010Y-89083610D02*
X128235761Y-89103868D01*
X128235761Y-89103868D02*
X128353365Y-89118373D01*
X128353365Y-89118373D02*
X128471540Y-89127090D01*
X128471540Y-89127090D02*
X128590000Y-89130000D01*
X128590000Y-89130000D02*
X137090000Y-89130000D01*
X124890000Y-87430000D02*
X125008459Y-87432908D01*
X125008459Y-87432908D02*
X125126634Y-87441625D01*
X125126634Y-87441625D02*
X125244238Y-87456130D01*
X125244238Y-87456130D02*
X125360989Y-87476388D01*
X125360989Y-87476388D02*
X125476605Y-87502350D01*
X125476605Y-87502350D02*
X125590808Y-87533955D01*
X125590808Y-87533955D02*
X125703323Y-87571125D01*
X125703323Y-87571125D02*
X125813878Y-87613770D01*
X125813878Y-87613770D02*
X125922208Y-87661790D01*
X125922208Y-87661790D02*
X126028051Y-87715067D01*
X126028051Y-87715067D02*
X126131153Y-87773473D01*
X126131153Y-87773473D02*
X126231264Y-87836868D01*
X126231264Y-87836868D02*
X126328144Y-87905098D01*
X126328144Y-87905098D02*
X126421559Y-87978000D01*
X126421559Y-87978000D02*
X126511285Y-88055398D01*
X126511285Y-88055398D02*
X126597106Y-88137106D01*
X126597106Y-88137106D02*
X126882893Y-88422893D01*
X118590000Y-87430000D02*
X118140000Y-87430000D01*
X124890000Y-87430000D02*
X118590000Y-87430000D01*
X118140000Y-87430000D02*
X116590000Y-88980000D01*
X116590000Y-88980000D02*
X116590000Y-88980000D01*
%TD*%
M02*
