%TF.GenerationSoftware,KiCad,Pcbnew,(5.99.0-12882-g2a6c73b8df)*%
%TF.CreationDate,2021-11-03T21:03:34+01:00*%
%TF.ProjectId,ortho-qaz,6f727468-6f2d-4716-917a-2e6b69636164,rev?*%
%TF.SameCoordinates,Original*%
%TF.FileFunction,Paste,Bot*%
%TF.FilePolarity,Positive*%
%FSLAX46Y46*%
G04 Gerber Fmt 4.6, Leading zero omitted, Abs format (unit mm)*
G04 Created by KiCad (PCBNEW (5.99.0-12882-g2a6c73b8df)) date 2021-11-03 21:03:34*
%MOMM*%
%LPD*%
G01*
G04 APERTURE LIST*
G04 Aperture macros list*
%AMRoundRect*
0 Rectangle with rounded corners*
0 $1 Rounding radius*
0 $2 $3 $4 $5 $6 $7 $8 $9 X,Y pos of 4 corners*
0 Add a 4 corners polygon primitive as box body*
4,1,4,$2,$3,$4,$5,$6,$7,$8,$9,$2,$3,0*
0 Add four circle primitives for the rounded corners*
1,1,$1+$1,$2,$3*
1,1,$1+$1,$4,$5*
1,1,$1+$1,$6,$7*
1,1,$1+$1,$8,$9*
0 Add four rect primitives between the rounded corners*
20,1,$1+$1,$2,$3,$4,$5,0*
20,1,$1+$1,$4,$5,$6,$7,0*
20,1,$1+$1,$6,$7,$8,$9,0*
20,1,$1+$1,$8,$9,$2,$3,0*%
%AMRotRect*
0 Rectangle, with rotation*
0 The origin of the aperture is its center*
0 $1 length*
0 $2 width*
0 $3 Rotation angle, in degrees counterclockwise*
0 Add horizontal line*
21,1,$1,$2,0,0,$3*%
G04 Aperture macros list end*
%ADD10R,1.400000X1.200000*%
%ADD11R,1.200000X1.400000*%
%ADD12R,2.550000X2.500000*%
%ADD13RoundRect,0.250000X-0.250000X-0.475000X0.250000X-0.475000X0.250000X0.475000X-0.250000X0.475000X0*%
%ADD14R,0.600000X1.450000*%
%ADD15R,0.300000X1.450000*%
%ADD16RoundRect,0.150000X0.512500X0.150000X-0.512500X0.150000X-0.512500X-0.150000X0.512500X-0.150000X0*%
%ADD17RotRect,1.600000X0.550000X45.000000*%
%ADD18RotRect,1.600000X0.550000X135.000000*%
%ADD19R,1.000000X1.700000*%
%ADD20RoundRect,0.249998X-0.132583X0.503816X-0.503816X0.132583X0.132583X-0.503816X0.503816X-0.132583X0*%
%ADD21RoundRect,0.249998X0.262502X0.450002X-0.262502X0.450002X-0.262502X-0.450002X0.262502X-0.450002X0*%
%ADD22RoundRect,0.249998X-0.262502X-0.450002X0.262502X-0.450002X0.262502X0.450002X-0.262502X0.450002X0*%
%ADD23RoundRect,0.249998X-0.450002X0.262502X-0.450002X-0.262502X0.450002X-0.262502X0.450002X0.262502X0*%
%ADD24RoundRect,0.249998X0.450002X-0.262502X0.450002X0.262502X-0.450002X0.262502X-0.450002X-0.262502X0*%
%ADD25RoundRect,0.250000X-0.625000X0.375000X-0.625000X-0.375000X0.625000X-0.375000X0.625000X0.375000X0*%
%ADD26RoundRect,0.250000X0.250000X0.475000X-0.250000X0.475000X-0.250000X-0.475000X0.250000X-0.475000X0*%
%ADD27RoundRect,0.250000X0.475000X-0.250000X0.475000X0.250000X-0.475000X0.250000X-0.475000X-0.250000X0*%
G04 APERTURE END LIST*
D10*
%TO.C,D39*%
X240390000Y-85030000D03*
X240390000Y-88430000D03*
%TD*%
%TO.C,D38*%
X221790000Y-85130000D03*
X221790000Y-88530000D03*
%TD*%
%TO.C,D37*%
X202890000Y-85230000D03*
X202890000Y-88630000D03*
%TD*%
%TO.C,D35*%
X176540000Y-95130000D03*
X176540000Y-91730000D03*
%TD*%
%TO.C,D33*%
X112290000Y-94480000D03*
X112290000Y-91080000D03*
%TD*%
%TO.C,D32*%
X109640000Y-94480000D03*
X109640000Y-91080000D03*
%TD*%
%TO.C,D31*%
X90540000Y-94480000D03*
X90540000Y-91080000D03*
%TD*%
%TO.C,D30*%
X71490000Y-94380000D03*
X71490000Y-90980000D03*
%TD*%
%TO.C,D29*%
X240390000Y-65330000D03*
X240390000Y-68730000D03*
%TD*%
%TO.C,D28*%
X223590000Y-67830000D03*
X223590000Y-71230000D03*
%TD*%
%TO.C,D27*%
X203690000Y-67730000D03*
X203690000Y-71130000D03*
%TD*%
%TO.C,D26*%
X184490000Y-67830000D03*
X184490000Y-71230000D03*
%TD*%
%TO.C,D25*%
X164690000Y-67830000D03*
X164690000Y-71230000D03*
%TD*%
%TO.C,D24*%
X145140000Y-67130000D03*
X145140000Y-70530000D03*
%TD*%
%TO.C,D23*%
X126590000Y-67730000D03*
X126590000Y-71130000D03*
%TD*%
%TO.C,D22*%
X107190000Y-67780000D03*
X107190000Y-71180000D03*
%TD*%
%TO.C,D21*%
X88390000Y-67880000D03*
X88390000Y-71280000D03*
%TD*%
%TO.C,D20*%
X69240000Y-67930000D03*
X69240000Y-71330000D03*
%TD*%
D11*
%TO.C,D19*%
X232790000Y-62830000D03*
X236190000Y-62830000D03*
%TD*%
%TO.C,D18*%
X215190000Y-62930000D03*
X218590000Y-62930000D03*
%TD*%
D10*
%TO.C,D17*%
X202190000Y-63630000D03*
X202190000Y-60230000D03*
%TD*%
%TO.C,D16*%
X183290000Y-63230000D03*
X183290000Y-59830000D03*
%TD*%
%TO.C,D15*%
X164190000Y-63530000D03*
X164190000Y-60130000D03*
%TD*%
D11*
%TO.C,D14*%
X133290000Y-62830000D03*
X136690000Y-62830000D03*
%TD*%
%TO.C,D13*%
X113390000Y-62930000D03*
X116790000Y-62930000D03*
%TD*%
%TO.C,D12*%
X96690000Y-62830000D03*
X100090000Y-62830000D03*
%TD*%
%TO.C,D11*%
X78040000Y-62830000D03*
X81440000Y-62830000D03*
%TD*%
%TO.C,D10*%
X58990000Y-62855000D03*
X62390000Y-62855000D03*
%TD*%
%TO.C,D9*%
X230690000Y-43930000D03*
X234090000Y-43930000D03*
%TD*%
%TO.C,D8*%
X211690000Y-43880000D03*
X215090000Y-43880000D03*
%TD*%
%TO.C,D7*%
X192640000Y-43930000D03*
X196040000Y-43930000D03*
%TD*%
%TO.C,D6*%
X173490000Y-43980000D03*
X176890000Y-43980000D03*
%TD*%
%TO.C,D5*%
X154590000Y-43980000D03*
X157990000Y-43980000D03*
%TD*%
%TO.C,D4*%
X138940000Y-43980000D03*
X135540000Y-43980000D03*
%TD*%
%TO.C,D3*%
X119840000Y-43980000D03*
X116440000Y-43980000D03*
%TD*%
%TO.C,D2*%
X100840000Y-43930000D03*
X97440000Y-43930000D03*
%TD*%
%TO.C,D1*%
X81040000Y-43930000D03*
X77640000Y-43930000D03*
%TD*%
%TO.C,D0*%
X62740000Y-43930000D03*
X59340000Y-43930000D03*
%TD*%
D12*
%TO.C,K26*%
X182850000Y-75970000D03*
X169000000Y-78510000D03*
%TD*%
%TO.C,K24*%
X144750000Y-75970000D03*
X130900000Y-78510000D03*
%TD*%
D13*
%TO.C,C4*%
X156620000Y-91050000D03*
X154720000Y-91050000D03*
%TD*%
%TO.C,C6*%
X156600000Y-89030000D03*
X154700000Y-89030000D03*
%TD*%
D12*
%TO.C,K39*%
X240000000Y-95000000D03*
X226150000Y-97540000D03*
%TD*%
%TO.C,K38*%
X220950000Y-95020000D03*
X207100000Y-97560000D03*
%TD*%
%TO.C,K37*%
X201900000Y-95020000D03*
X188050000Y-97560000D03*
%TD*%
%TO.C,K35*%
X173325000Y-95020000D03*
X159475000Y-97560000D03*
%TD*%
%TO.C,K33*%
X135225000Y-95020000D03*
X121375000Y-97560000D03*
%TD*%
%TO.C,K32*%
X106650000Y-95020000D03*
X92800000Y-97560000D03*
%TD*%
%TO.C,K31*%
X87600000Y-95020000D03*
X73750000Y-97560000D03*
%TD*%
%TO.C,K30*%
X68550000Y-95020000D03*
X54700000Y-97560000D03*
%TD*%
%TO.C,K29*%
X240000000Y-75970000D03*
X226150000Y-78510000D03*
%TD*%
%TO.C,K28*%
X220950000Y-75970000D03*
X207100000Y-78510000D03*
%TD*%
%TO.C,K27*%
X201900000Y-75970000D03*
X188050000Y-78510000D03*
%TD*%
%TO.C,K25*%
X163800000Y-75970000D03*
X149950000Y-78510000D03*
%TD*%
%TO.C,K23*%
X125700000Y-75970000D03*
X111850000Y-78510000D03*
%TD*%
%TO.C,K22*%
X106650000Y-75970000D03*
X92800000Y-78510000D03*
%TD*%
%TO.C,K21*%
X87600000Y-75970000D03*
X73750000Y-78510000D03*
%TD*%
%TO.C,K20*%
X68550000Y-75970000D03*
X54700000Y-78510000D03*
%TD*%
%TO.C,K19*%
X240000000Y-56920000D03*
X226150000Y-59460000D03*
%TD*%
%TO.C,K18*%
X220950000Y-56920000D03*
X207100000Y-59460000D03*
%TD*%
%TO.C,K17*%
X201900000Y-56920000D03*
X188050000Y-59460000D03*
%TD*%
%TO.C,K16*%
X182850000Y-56920000D03*
X169000000Y-59460000D03*
%TD*%
%TO.C,K15*%
X163800000Y-56920000D03*
X149950000Y-59460000D03*
%TD*%
%TO.C,K14*%
X144750000Y-56920000D03*
X130900000Y-59460000D03*
%TD*%
%TO.C,K13*%
X125700000Y-56920000D03*
X111850000Y-59460000D03*
%TD*%
%TO.C,K12*%
X106650000Y-56920000D03*
X92800000Y-59460000D03*
%TD*%
%TO.C,K11*%
X87600000Y-56920000D03*
X73750000Y-59460000D03*
%TD*%
%TO.C,K10*%
X68550000Y-56920000D03*
X54700000Y-59460000D03*
%TD*%
%TO.C,K9*%
X240000000Y-37870000D03*
X226150000Y-40410000D03*
%TD*%
%TO.C,K8*%
X220950000Y-37870000D03*
X207100000Y-40410000D03*
%TD*%
%TO.C,K7*%
X201900000Y-37870000D03*
X188050000Y-40410000D03*
%TD*%
%TO.C,K6*%
X182850000Y-37870000D03*
X169000000Y-40410000D03*
%TD*%
%TO.C,K5*%
X163800000Y-37870000D03*
X149950000Y-40410000D03*
%TD*%
%TO.C,K4*%
X144750000Y-37870000D03*
X130900000Y-40410000D03*
%TD*%
%TO.C,K3*%
X125700000Y-37870000D03*
X111850000Y-40410000D03*
%TD*%
%TO.C,K2*%
X106650000Y-37870000D03*
X92800000Y-40410000D03*
%TD*%
%TO.C,K1*%
X87600000Y-37870000D03*
X73750000Y-40410000D03*
%TD*%
%TO.C,K0*%
X68550000Y-37870000D03*
X54700000Y-40410000D03*
%TD*%
D14*
%TO.C,J1*%
X149965000Y-25087500D03*
X149165000Y-25087500D03*
X144265000Y-25087500D03*
X143465000Y-25087500D03*
X143465000Y-25087500D03*
X144265000Y-25087500D03*
X149165000Y-25087500D03*
X149965000Y-25087500D03*
D15*
X144965000Y-25087500D03*
X145465000Y-25087500D03*
X145965000Y-25087500D03*
X146965000Y-25087500D03*
X147465000Y-25087500D03*
X147965000Y-25087500D03*
X148465000Y-25087500D03*
X146465000Y-25087500D03*
%TD*%
D11*
%TO.C,Y1*%
X150140000Y-94630000D03*
X150140000Y-96830000D03*
X151840000Y-96830000D03*
X151840000Y-94630000D03*
%TD*%
D16*
%TO.C,U2*%
X145542500Y-32550000D03*
X145542500Y-33500000D03*
X145542500Y-34450000D03*
X147817500Y-34450000D03*
X147817500Y-33500000D03*
X147817500Y-32550000D03*
%TD*%
D17*
%TO.C,U1*%
X148455103Y-90684695D03*
X147889417Y-90119010D03*
X147323732Y-89553324D03*
X146758047Y-88987639D03*
X146192361Y-88421953D03*
X145626676Y-87856268D03*
X145060990Y-87290583D03*
X144495305Y-86724897D03*
D18*
X142444695Y-86724897D03*
X141879010Y-87290583D03*
X141313324Y-87856268D03*
X140747639Y-88421953D03*
X140181953Y-88987639D03*
X139616268Y-89553324D03*
X139050583Y-90119010D03*
X138484897Y-90684695D03*
D17*
X138484897Y-92735305D03*
X139050583Y-93300990D03*
X139616268Y-93866676D03*
X140181953Y-94432361D03*
X140747639Y-94998047D03*
X141313324Y-95563732D03*
X141879010Y-96129417D03*
X142444695Y-96695103D03*
D18*
X144495305Y-96695103D03*
X145060990Y-96129417D03*
X145626676Y-95563732D03*
X146192361Y-94998047D03*
X146758047Y-94432361D03*
X147323732Y-93866676D03*
X147889417Y-93300990D03*
X148455103Y-92735305D03*
%TD*%
D19*
%TO.C,SW1*%
X115240000Y-88980000D03*
X115240000Y-95280000D03*
X119040000Y-88980000D03*
X119040000Y-95280000D03*
%TD*%
D20*
%TO.C,R6*%
X146329530Y-98470470D03*
X147620000Y-97180000D03*
%TD*%
D21*
%TO.C,R5*%
X151487500Y-27530000D03*
X153312500Y-27530000D03*
%TD*%
D22*
%TO.C,R4*%
X142002500Y-27530000D03*
X140177500Y-27530000D03*
%TD*%
D23*
%TO.C,R3*%
X142790000Y-83342500D03*
X142790000Y-81517500D03*
%TD*%
D24*
%TO.C,R2*%
X148190000Y-43597500D03*
X148190000Y-45422500D03*
%TD*%
D23*
%TO.C,R1*%
X148190000Y-48822500D03*
X148190000Y-46997500D03*
%TD*%
D25*
%TO.C,F1*%
X145280000Y-46500000D03*
X145280000Y-43700000D03*
%TD*%
D13*
%TO.C,C5*%
X158590000Y-86940000D03*
X156690000Y-86940000D03*
%TD*%
%TO.C,C3*%
X156640000Y-95380000D03*
X154740000Y-95380000D03*
%TD*%
D26*
%TO.C,C2*%
X154730000Y-93250000D03*
X156630000Y-93250000D03*
%TD*%
D27*
%TO.C,C1*%
X144890000Y-81580000D03*
X144890000Y-83480000D03*
%TD*%
M02*
