M48
; DRILL file {KiCad (6.99.0-222-g367431f825)} date Thu 13 Jan 2022 09:14:41 PM CET
; FORMAT={-:-/ absolute / metric / decimal}
; #@! TF.CreationDate,2022-01-13T21:14:41+01:00
; #@! TF.GenerationSoftware,Kicad,Pcbnew,(6.99.0-222-g367431f825)
; #@! TF.FileFunction,Plated,1,2,PTH
FMAT,2
METRIC
; #@! TA.AperFunction,Plated,PTH,ComponentDrill
T1C0.250
; #@! TA.AperFunction,Plated,PTH,ViaDrill
T2C0.400
; #@! TA.AperFunction,Plated,PTH,ComponentDrill
T3C0.600
; #@! TA.AperFunction,Plated,PTH,ComponentDrill
T4C1.499
%
G90
G05
T1
X74.725Y-48.939
X76.725Y-48.939
X78.735Y-48.959
T2
X68.58Y-47.7
X69.69Y-67.28
X70.98Y-96.12
X71.6Y-73.53
X73.365Y-46.605
X73.79Y-63.38
X76.14Y-45.43
X80.565Y-48.685
X81.93Y-46.0
X83.53Y-60.55
X85.607Y-41.143
X85.77Y-52.19
X85.88Y-43.2
X86.54Y-47.64
X87.19Y-42.22
X87.25Y-63.46
X87.37Y-48.72
X87.6Y-59.55
X87.75Y-46.09
X88.575Y-50.755
X89.04Y-64.1
X89.56Y-51.24
X89.68Y-53.59
X90.85Y-45.07
X90.985Y-48.295
X91.47Y-64.1
X92.66Y-48.4
X93.7Y-47.75
X94.48Y-56.43
X97.07Y-49.23
X98.28Y-49.05
X98.72Y-45.29
X99.01Y-58.11
X100.8Y-52.32
X101.65Y-53.38
X102.42Y-52.32
X110.73Y-73.33
X116.795Y-45.415
X120.501Y-93.671
X129.64Y-73.36
X135.7Y-45.27
X136.83Y-26.61
X139.98Y-95.29
X141.52Y-31.89
X142.44Y-33.67
X146.23Y-28.91
X146.23Y-31.02
X147.9Y-27.59
X148.61Y-73.35
X150.77Y-26.34
X153.935Y-44.455
X172.68Y-44.15
X172.79Y-97.27
X172.97Y-75.59
X176.23Y-77.52
X189.05Y-96.7
X191.54Y-43.96
X196.78Y-78.44
X207.6Y-80.53
X208.89Y-75.04
X210.5Y-43.85
X212.42Y-43.8
X216.1Y-97.12
X224.28Y-73.51
X225.58Y-80.69
X226.95Y-97.27
T4
X57.18Y-32.79
X57.18Y-51.84
X57.18Y-70.89
X57.18Y-89.94
X63.53Y-30.25
X63.53Y-49.3
X63.53Y-68.35
X63.53Y-87.4
X66.705Y-89.94
X73.055Y-87.4
X76.23Y-32.79
X76.23Y-51.84
X76.23Y-70.89
X76.23Y-89.94
X82.58Y-30.25
X82.58Y-49.3
X82.58Y-68.35
X82.58Y-87.4
X95.28Y-32.79
X95.28Y-51.84
X95.28Y-70.89
X95.28Y-89.94
X101.63Y-30.25
X101.63Y-49.3
X101.63Y-68.35
X101.63Y-87.4
X114.33Y-32.79
X114.33Y-51.84
X114.33Y-70.89
X119.093Y-89.94
X120.68Y-30.25
X120.68Y-49.3
X120.68Y-68.35
X123.855Y-89.94
X125.442Y-87.4
X130.205Y-87.4
X133.38Y-32.79
X133.38Y-51.84
X133.38Y-70.89
X139.73Y-30.25
X139.73Y-49.3
X139.73Y-68.35
X142.905Y-89.94
X149.255Y-87.4
X152.43Y-32.79
X152.43Y-51.84
X152.43Y-70.89
X158.78Y-30.25
X158.78Y-49.3
X158.78Y-68.35
X161.955Y-89.94
X166.718Y-89.94
X168.305Y-87.4
X171.48Y-32.79
X171.48Y-51.84
X171.48Y-70.89
X173.067Y-87.4
X177.83Y-30.25
X177.83Y-49.3
X177.83Y-68.35
X190.53Y-32.79
X190.53Y-51.84
X190.53Y-70.89
X190.53Y-89.94
X196.88Y-30.25
X196.88Y-49.3
X196.88Y-68.35
X196.88Y-87.4
X209.58Y-32.79
X209.58Y-51.84
X209.58Y-70.89
X209.58Y-89.94
X215.93Y-30.25
X215.93Y-49.3
X215.93Y-68.35
X215.93Y-87.4
X219.105Y-89.94
X225.455Y-87.4
X228.63Y-32.79
X228.63Y-51.84
X228.63Y-70.89
X228.63Y-89.92
X234.98Y-30.25
X234.98Y-49.3
X234.98Y-68.35
X234.98Y-87.38
T3
G00X142.395Y-19.692
M15
G01X142.395Y-20.293
M16
G05
G00X142.395Y-23.622
M15
G01X142.395Y-24.723
M16
G05
G00X151.035Y-19.692
M15
G01X151.035Y-20.293
M16
G05
G00X151.035Y-23.622
M15
G01X151.035Y-24.723
M16
G05
T0
M30
