%TF.GenerationSoftware,KiCad,Pcbnew,(6.99.0-222-g367431f825)*%
%TF.CreationDate,2022-01-13T14:33:26+01:00*%
%TF.ProjectId,Endeavour-2,456e6465-6176-46f7-9572-2d322e6b6963,rev?*%
%TF.SameCoordinates,Original*%
%TF.FileFunction,Soldermask,Bot*%
%TF.FilePolarity,Negative*%
%FSLAX46Y46*%
G04 Gerber Fmt 4.6, Leading zero omitted, Abs format (unit mm)*
G04 Created by KiCad (PCBNEW (6.99.0-222-g367431f825)) date 2022-01-13 14:33:26*
%MOMM*%
%LPD*%
G01*
G04 APERTURE LIST*
G04 Aperture macros list*
%AMRoundRect*
0 Rectangle with rounded corners*
0 $1 Rounding radius*
0 $2 $3 $4 $5 $6 $7 $8 $9 X,Y pos of 4 corners*
0 Add a 4 corners polygon primitive as box body*
4,1,4,$2,$3,$4,$5,$6,$7,$8,$9,$2,$3,0*
0 Add four circle primitives for the rounded corners*
1,1,$1+$1,$2,$3*
1,1,$1+$1,$4,$5*
1,1,$1+$1,$6,$7*
1,1,$1+$1,$8,$9*
0 Add four rect primitives between the rounded corners*
20,1,$1+$1,$2,$3,$4,$5,0*
20,1,$1+$1,$4,$5,$6,$7,0*
20,1,$1+$1,$6,$7,$8,$9,0*
20,1,$1+$1,$8,$9,$2,$3,0*%
%AMRotRect*
0 Rectangle, with rotation*
0 The origin of the aperture is its center*
0 $1 length*
0 $2 width*
0 $3 Rotation angle, in degrees counterclockwise*
0 Add horizontal line*
21,1,$1,$2,0,0,$3*%
G04 Aperture macros list end*
%ADD10C,1.701800*%
%ADD11C,3.000000*%
%ADD12C,3.987800*%
%ADD13R,2.550000X2.500000*%
%ADD14C,2.286000*%
%ADD15C,3.048000*%
%ADD16C,0.650000*%
%ADD17R,0.600000X1.450000*%
%ADD18R,0.300000X1.450000*%
%ADD19O,1.000000X1.600000*%
%ADD20O,1.000000X2.100000*%
%ADD21R,1.400000X1.200000*%
%ADD22RoundRect,0.250000X0.512652X0.159099X0.159099X0.512652X-0.512652X-0.159099X-0.159099X-0.512652X0*%
%ADD23RoundRect,0.250000X0.159099X-0.512652X0.512652X-0.159099X-0.159099X0.512652X-0.512652X0.159099X0*%
%ADD24RoundRect,0.150000X0.512500X0.150000X-0.512500X0.150000X-0.512500X-0.150000X0.512500X-0.150000X0*%
%ADD25R,1.700000X1.000000*%
%ADD26RoundRect,0.250000X-0.159099X0.512652X-0.512652X0.159099X0.159099X-0.512652X0.512652X-0.159099X0*%
%ADD27RoundRect,0.250000X0.262500X0.450000X-0.262500X0.450000X-0.262500X-0.450000X0.262500X-0.450000X0*%
%ADD28RoundRect,0.250000X-0.475000X0.250000X-0.475000X-0.250000X0.475000X-0.250000X0.475000X0.250000X0*%
%ADD29RoundRect,0.250000X-0.262500X-0.450000X0.262500X-0.450000X0.262500X0.450000X-0.262500X0.450000X0*%
%ADD30RotRect,1.600000X0.550000X225.000000*%
%ADD31RotRect,1.600000X0.550000X135.000000*%
%ADD32C,1.524000*%
%ADD33R,1.524000X1.524000*%
%ADD34RoundRect,0.250000X0.375000X0.625000X-0.375000X0.625000X-0.375000X-0.625000X0.375000X-0.625000X0*%
%ADD35RotRect,1.400000X1.200000X315.000000*%
G04 APERTURE END LIST*
D10*
%TO.C,K0*%
X55910000Y-35330000D03*
D11*
X58450000Y-40410000D03*
D12*
X60990000Y-35330000D03*
D11*
X64800000Y-37870000D03*
D10*
X66070000Y-35330000D03*
D13*
X54700000Y-40410000D03*
D14*
X63530000Y-30250000D03*
X57180000Y-32790000D03*
D13*
X68550000Y-37870000D03*
%TD*%
D10*
%TO.C,K1*%
X74960000Y-35330000D03*
D11*
X77500000Y-40410000D03*
D12*
X80040000Y-35330000D03*
D11*
X83850000Y-37870000D03*
D10*
X85120000Y-35330000D03*
D13*
X73750000Y-40410000D03*
D14*
X82580000Y-30250000D03*
X76230000Y-32790000D03*
D13*
X87600000Y-37870000D03*
%TD*%
D10*
%TO.C,K2*%
X94010000Y-35330000D03*
D11*
X96550000Y-40410000D03*
D12*
X99090000Y-35330000D03*
D11*
X102900000Y-37870000D03*
D10*
X104170000Y-35330000D03*
D13*
X92800000Y-40410000D03*
D14*
X101630000Y-30250000D03*
X95280000Y-32790000D03*
D13*
X106650000Y-37870000D03*
%TD*%
D10*
%TO.C,K3*%
X113060000Y-35330000D03*
D11*
X115600000Y-40410000D03*
D12*
X118140000Y-35330000D03*
D11*
X121950000Y-37870000D03*
D10*
X123220000Y-35330000D03*
D13*
X111850000Y-40410000D03*
D14*
X120680000Y-30250000D03*
X114330000Y-32790000D03*
D13*
X125700000Y-37870000D03*
%TD*%
D10*
%TO.C,K4*%
X132110000Y-35330000D03*
D11*
X134650000Y-40410000D03*
D12*
X137190000Y-35330000D03*
D11*
X141000000Y-37870000D03*
D10*
X142270000Y-35330000D03*
D13*
X130900000Y-40410000D03*
D14*
X139730000Y-30250000D03*
X133380000Y-32790000D03*
D13*
X144750000Y-37870000D03*
%TD*%
D10*
%TO.C,K6*%
X170210000Y-35330000D03*
D11*
X172750000Y-40410000D03*
D12*
X175290000Y-35330000D03*
D11*
X179100000Y-37870000D03*
D10*
X180370000Y-35330000D03*
D13*
X169000000Y-40410000D03*
D14*
X177830000Y-30250000D03*
X171480000Y-32790000D03*
D13*
X182850000Y-37870000D03*
%TD*%
D10*
%TO.C,K7*%
X189260000Y-35330000D03*
D11*
X191800000Y-40410000D03*
D12*
X194340000Y-35330000D03*
D11*
X198150000Y-37870000D03*
D10*
X199420000Y-35330000D03*
D13*
X188050000Y-40410000D03*
D14*
X196880000Y-30250000D03*
X190530000Y-32790000D03*
D13*
X201900000Y-37870000D03*
%TD*%
D10*
%TO.C,K8*%
X208310000Y-35330000D03*
D11*
X210850000Y-40410000D03*
D12*
X213390000Y-35330000D03*
D11*
X217200000Y-37870000D03*
D10*
X218470000Y-35330000D03*
D13*
X207100000Y-40410000D03*
D14*
X215930000Y-30250000D03*
X209580000Y-32790000D03*
D13*
X220950000Y-37870000D03*
%TD*%
D10*
%TO.C,K9*%
X227360000Y-35330000D03*
D11*
X229900000Y-40410000D03*
D12*
X232440000Y-35330000D03*
D11*
X236250000Y-37870000D03*
D10*
X237520000Y-35330000D03*
D13*
X226150000Y-40410000D03*
D14*
X234980000Y-30250000D03*
X228630000Y-32790000D03*
D13*
X240000000Y-37870000D03*
%TD*%
D10*
%TO.C,K10*%
X55910000Y-54380000D03*
D11*
X58450000Y-59460000D03*
D12*
X60990000Y-54380000D03*
D11*
X64800000Y-56920000D03*
D10*
X66070000Y-54380000D03*
D13*
X54700000Y-59460000D03*
D14*
X63530000Y-49300000D03*
X57180000Y-51840000D03*
D13*
X68550000Y-56920000D03*
%TD*%
D10*
%TO.C,K11*%
X74960000Y-54380000D03*
D11*
X77500000Y-59460000D03*
D12*
X80040000Y-54380000D03*
D11*
X83850000Y-56920000D03*
D10*
X85120000Y-54380000D03*
D13*
X73750000Y-59460000D03*
D14*
X82580000Y-49300000D03*
X76230000Y-51840000D03*
D13*
X87600000Y-56920000D03*
%TD*%
D10*
%TO.C,K12*%
X94010000Y-54380000D03*
D11*
X96550000Y-59460000D03*
D12*
X99090000Y-54380000D03*
D11*
X102900000Y-56920000D03*
D10*
X104170000Y-54380000D03*
D13*
X92800000Y-59460000D03*
D14*
X101630000Y-49300000D03*
X95280000Y-51840000D03*
D13*
X106650000Y-56920000D03*
%TD*%
D10*
%TO.C,K13*%
X113060000Y-54380000D03*
D11*
X115600000Y-59460000D03*
D12*
X118140000Y-54380000D03*
D11*
X121950000Y-56920000D03*
D10*
X123220000Y-54380000D03*
D13*
X111850000Y-59460000D03*
D14*
X120680000Y-49300000D03*
X114330000Y-51840000D03*
D13*
X125700000Y-56920000D03*
%TD*%
D10*
%TO.C,K14*%
X132110000Y-54380000D03*
D11*
X134650000Y-59460000D03*
D12*
X137190000Y-54380000D03*
D11*
X141000000Y-56920000D03*
D10*
X142270000Y-54380000D03*
D13*
X130900000Y-59460000D03*
D14*
X139730000Y-49300000D03*
X133380000Y-51840000D03*
D13*
X144750000Y-56920000D03*
%TD*%
D10*
%TO.C,K15*%
X151160000Y-54380000D03*
D11*
X153700000Y-59460000D03*
D12*
X156240000Y-54380000D03*
D11*
X160050000Y-56920000D03*
D10*
X161320000Y-54380000D03*
D13*
X149950000Y-59460000D03*
D14*
X158780000Y-49300000D03*
X152430000Y-51840000D03*
D13*
X163800000Y-56920000D03*
%TD*%
D10*
%TO.C,K16*%
X170210000Y-54380000D03*
D11*
X172750000Y-59460000D03*
D12*
X175290000Y-54380000D03*
D11*
X179100000Y-56920000D03*
D10*
X180370000Y-54380000D03*
D13*
X169000000Y-59460000D03*
D14*
X177830000Y-49300000D03*
X171480000Y-51840000D03*
D13*
X182850000Y-56920000D03*
%TD*%
D10*
%TO.C,K17*%
X189260000Y-54380000D03*
D11*
X191800000Y-59460000D03*
D12*
X194340000Y-54380000D03*
D11*
X198150000Y-56920000D03*
D10*
X199420000Y-54380000D03*
D13*
X188050000Y-59460000D03*
D14*
X196880000Y-49300000D03*
X190530000Y-51840000D03*
D13*
X201900000Y-56920000D03*
%TD*%
D10*
%TO.C,K18*%
X208310000Y-54380000D03*
D11*
X210850000Y-59460000D03*
D12*
X213390000Y-54380000D03*
D11*
X217200000Y-56920000D03*
D10*
X218470000Y-54380000D03*
D13*
X207100000Y-59460000D03*
D14*
X215930000Y-49300000D03*
X209580000Y-51840000D03*
D13*
X220950000Y-56920000D03*
%TD*%
D10*
%TO.C,K19*%
X227360000Y-54380000D03*
D11*
X229900000Y-59460000D03*
D12*
X232440000Y-54380000D03*
D11*
X236250000Y-56920000D03*
D10*
X237520000Y-54380000D03*
D13*
X226150000Y-59460000D03*
D14*
X234980000Y-49300000D03*
X228630000Y-51840000D03*
D13*
X240000000Y-56920000D03*
%TD*%
D10*
%TO.C,K20*%
X55910000Y-73430000D03*
D11*
X58450000Y-78510000D03*
D12*
X60990000Y-73430000D03*
D11*
X64800000Y-75970000D03*
D10*
X66070000Y-73430000D03*
D13*
X54700000Y-78510000D03*
D14*
X63530000Y-68350000D03*
X57180000Y-70890000D03*
D13*
X68550000Y-75970000D03*
%TD*%
D10*
%TO.C,K21*%
X74960000Y-73430000D03*
D11*
X77500000Y-78510000D03*
D12*
X80040000Y-73430000D03*
D11*
X83850000Y-75970000D03*
D10*
X85120000Y-73430000D03*
D13*
X73750000Y-78510000D03*
D14*
X82580000Y-68350000D03*
X76230000Y-70890000D03*
D13*
X87600000Y-75970000D03*
%TD*%
D10*
%TO.C,K22*%
X94010000Y-73430000D03*
D11*
X96550000Y-78510000D03*
D12*
X99090000Y-73430000D03*
D11*
X102900000Y-75970000D03*
D10*
X104170000Y-73430000D03*
D13*
X92800000Y-78510000D03*
D14*
X101630000Y-68350000D03*
X95280000Y-70890000D03*
D13*
X106650000Y-75970000D03*
%TD*%
D10*
%TO.C,K23*%
X113060000Y-73430000D03*
D11*
X115600000Y-78510000D03*
D12*
X118140000Y-73430000D03*
D11*
X121950000Y-75970000D03*
D10*
X123220000Y-73430000D03*
D13*
X111850000Y-78510000D03*
D14*
X120680000Y-68350000D03*
X114330000Y-70890000D03*
D13*
X125700000Y-75970000D03*
%TD*%
D10*
%TO.C,K24*%
X132110000Y-73430000D03*
D11*
X134650000Y-78510000D03*
D12*
X137190000Y-73430000D03*
D11*
X141000000Y-75970000D03*
D10*
X142270000Y-73430000D03*
D13*
X130900000Y-78510000D03*
D14*
X139730000Y-68350000D03*
X133380000Y-70890000D03*
D13*
X144750000Y-75970000D03*
%TD*%
D10*
%TO.C,K25*%
X151160000Y-73430000D03*
D11*
X153700000Y-78510000D03*
D12*
X156240000Y-73430000D03*
D11*
X160050000Y-75970000D03*
D10*
X161320000Y-73430000D03*
D13*
X149950000Y-78510000D03*
D14*
X158780000Y-68350000D03*
X152430000Y-70890000D03*
D13*
X163800000Y-75970000D03*
%TD*%
D10*
%TO.C,K26*%
X170210000Y-73430000D03*
D11*
X172750000Y-78510000D03*
D12*
X175290000Y-73430000D03*
D11*
X179100000Y-75970000D03*
D10*
X180370000Y-73430000D03*
D13*
X169000000Y-78510000D03*
D14*
X177830000Y-68350000D03*
X171480000Y-70890000D03*
D13*
X182850000Y-75970000D03*
%TD*%
D10*
%TO.C,K27*%
X189260000Y-73430000D03*
D11*
X191800000Y-78510000D03*
D12*
X194340000Y-73430000D03*
D11*
X198150000Y-75970000D03*
D10*
X199420000Y-73430000D03*
D13*
X188050000Y-78510000D03*
D14*
X196880000Y-68350000D03*
X190530000Y-70890000D03*
D13*
X201900000Y-75970000D03*
%TD*%
D10*
%TO.C,K28*%
X208310000Y-73430000D03*
D11*
X210850000Y-78510000D03*
D12*
X213390000Y-73430000D03*
D11*
X217200000Y-75970000D03*
D10*
X218470000Y-73430000D03*
D13*
X207100000Y-78510000D03*
D14*
X215930000Y-68350000D03*
X209580000Y-70890000D03*
D13*
X220950000Y-75970000D03*
%TD*%
D10*
%TO.C,K29*%
X227360000Y-73430000D03*
D11*
X229900000Y-78510000D03*
D12*
X232440000Y-73430000D03*
D11*
X236250000Y-75970000D03*
D10*
X237520000Y-73430000D03*
D13*
X226150000Y-78510000D03*
D14*
X234980000Y-68350000D03*
X228630000Y-70890000D03*
D13*
X240000000Y-75970000D03*
%TD*%
D10*
%TO.C,1u1*%
X55910000Y-92480000D03*
D11*
X58450000Y-97560000D03*
D12*
X60990000Y-92480000D03*
D11*
X64800000Y-95020000D03*
D10*
X66070000Y-92480000D03*
D13*
X54700000Y-97560000D03*
D14*
X63530000Y-87400000D03*
X57180000Y-89940000D03*
D13*
X68550000Y-95020000D03*
%TD*%
D10*
%TO.C,1u2*%
X74960000Y-92480000D03*
D11*
X77500000Y-97560000D03*
D12*
X80040000Y-92480000D03*
D11*
X83850000Y-95020000D03*
D10*
X85120000Y-92480000D03*
D13*
X73750000Y-97560000D03*
D14*
X82580000Y-87400000D03*
X76230000Y-89940000D03*
D13*
X87600000Y-95020000D03*
%TD*%
D10*
%TO.C,1u3*%
X94010000Y-92480000D03*
D11*
X96550000Y-97560000D03*
D12*
X99090000Y-92480000D03*
D11*
X102900000Y-95020000D03*
D10*
X104170000Y-92480000D03*
D13*
X92800000Y-97560000D03*
D14*
X101630000Y-87400000D03*
X95280000Y-89940000D03*
D13*
X106650000Y-95020000D03*
%TD*%
D10*
%TO.C,1u4*%
X122585000Y-92480000D03*
D11*
X125125000Y-97560000D03*
D12*
X127665000Y-92480000D03*
D11*
X131475000Y-95020000D03*
D10*
X132745000Y-92480000D03*
D13*
X121375000Y-97560000D03*
D14*
X130205000Y-87400000D03*
X123855000Y-89940000D03*
D13*
X135225000Y-95020000D03*
%TD*%
D10*
%TO.C,1u5*%
X160685000Y-92480000D03*
D11*
X163225000Y-97560000D03*
D12*
X165765000Y-92480000D03*
D11*
X169575000Y-95020000D03*
D10*
X170845000Y-92480000D03*
D13*
X159475000Y-97560000D03*
D14*
X168305000Y-87400000D03*
X161955000Y-89940000D03*
D13*
X173325000Y-95020000D03*
%TD*%
D10*
%TO.C,1u6*%
X189260000Y-92480000D03*
D11*
X191800000Y-97560000D03*
D12*
X194340000Y-92480000D03*
D11*
X198150000Y-95020000D03*
D10*
X199420000Y-92480000D03*
D13*
X188050000Y-97560000D03*
D14*
X196880000Y-87400000D03*
X190530000Y-89940000D03*
D13*
X201900000Y-95020000D03*
%TD*%
D10*
%TO.C,1u7*%
X208310000Y-92480000D03*
D11*
X210850000Y-97560000D03*
D12*
X213390000Y-92480000D03*
D11*
X217200000Y-95020000D03*
D10*
X218470000Y-92480000D03*
D13*
X207100000Y-97560000D03*
D14*
X215930000Y-87400000D03*
X209580000Y-89940000D03*
D13*
X220950000Y-95020000D03*
%TD*%
D10*
%TO.C,1u8*%
X227360000Y-92460000D03*
D11*
X229900000Y-97540000D03*
D12*
X232440000Y-92460000D03*
D11*
X236250000Y-95000000D03*
D10*
X237520000Y-92460000D03*
D13*
X226150000Y-97540000D03*
D14*
X234980000Y-87380000D03*
X228630000Y-89920000D03*
D13*
X240000000Y-95000000D03*
%TD*%
D10*
%TO.C,K5*%
X151160000Y-35330000D03*
D11*
X153700000Y-40410000D03*
D12*
X156240000Y-35330000D03*
D11*
X160050000Y-37870000D03*
D10*
X161320000Y-35330000D03*
D13*
X149950000Y-40410000D03*
D14*
X158780000Y-30250000D03*
X152430000Y-32790000D03*
D13*
X163800000Y-37870000D03*
%TD*%
D10*
%TO.C,SPACE1*%
X141635000Y-92480000D03*
D11*
X144175000Y-97560000D03*
D12*
X146715000Y-92480000D03*
D11*
X150525000Y-95020000D03*
D10*
X151795000Y-92480000D03*
D13*
X140425000Y-97560000D03*
D14*
X149255000Y-87400000D03*
X142905000Y-89940000D03*
D13*
X154275000Y-95020000D03*
%TD*%
D10*
%TO.C,1.5u1*%
X115441250Y-92480000D03*
D11*
X117981250Y-97560000D03*
D12*
X120521250Y-92480000D03*
D11*
X124331250Y-95020000D03*
D10*
X125601250Y-92480000D03*
D13*
X114231250Y-97560000D03*
D14*
X123061250Y-87400000D03*
X116711250Y-89940000D03*
D13*
X128081250Y-95020000D03*
%TD*%
D15*
%TO.C,H2*%
X139571250Y-99465000D03*
D12*
X139571250Y-84225000D03*
D15*
X115758750Y-99465000D03*
D12*
X115758750Y-84225000D03*
%TD*%
D15*
%TO.C,H1*%
X177671250Y-99465000D03*
D12*
X177671250Y-84225000D03*
D15*
X153858750Y-99465000D03*
D12*
X153858750Y-84225000D03*
%TD*%
D15*
%TO.C,H0*%
X203865000Y-99465000D03*
D12*
X203865000Y-84225000D03*
D15*
X89565000Y-99465000D03*
D12*
X89565000Y-84225000D03*
%TD*%
D10*
%TO.C,1.5u2*%
X167828750Y-92480000D03*
D11*
X170368750Y-97560000D03*
D12*
X172908750Y-92480000D03*
D11*
X176718750Y-95020000D03*
D10*
X177988750Y-92480000D03*
D13*
X166618750Y-97560000D03*
D14*
X175448750Y-87400000D03*
X169098750Y-89940000D03*
D13*
X180468750Y-95020000D03*
%TD*%
D10*
%TO.C,1u_space2*%
X220216250Y-92480000D03*
D11*
X222756250Y-97560000D03*
D12*
X225296250Y-92480000D03*
D11*
X229106250Y-95020000D03*
D10*
X230376250Y-92480000D03*
D13*
X219006250Y-97560000D03*
D14*
X227836250Y-87400000D03*
X221486250Y-89940000D03*
D13*
X232856250Y-95020000D03*
%TD*%
D10*
%TO.C,1u_space1*%
X65435000Y-92480000D03*
D11*
X67975000Y-97560000D03*
D12*
X70515000Y-92480000D03*
D11*
X74325000Y-95020000D03*
D10*
X75595000Y-92480000D03*
D13*
X64225000Y-97560000D03*
D14*
X73055000Y-87400000D03*
X66705000Y-89940000D03*
D13*
X78075000Y-95020000D03*
%TD*%
D16*
%TO.C,J1*%
X143825000Y-23642500D03*
X149605000Y-23642500D03*
D17*
X143465000Y-25087500D03*
X144265000Y-25087500D03*
D18*
X145465000Y-25087500D03*
X146465000Y-25087500D03*
X146965000Y-25087500D03*
X147965000Y-25087500D03*
D17*
X149165000Y-25087500D03*
X149965000Y-25087500D03*
X149965000Y-25087500D03*
X149165000Y-25087500D03*
D18*
X148465000Y-25087500D03*
X147465000Y-25087500D03*
X145965000Y-25087500D03*
X144965000Y-25087500D03*
D17*
X144265000Y-25087500D03*
X143465000Y-25087500D03*
D19*
X142395000Y-19992500D03*
D20*
X142395000Y-24172500D03*
D19*
X151035000Y-19992500D03*
D20*
X151035000Y-24172500D03*
%TD*%
D21*
%TO.C,D11*%
X71990000Y-50630000D03*
X71990000Y-54030000D03*
%TD*%
%TO.C,D9*%
X223990000Y-35030000D03*
X223990000Y-31630000D03*
%TD*%
D22*
%TO.C,C2*%
X101539751Y-45145751D03*
X100196249Y-43802249D03*
%TD*%
D21*
%TO.C,D10*%
X68990000Y-50630000D03*
X68990000Y-54030000D03*
%TD*%
%TO.C,D37*%
X183990000Y-68630000D03*
X183990000Y-72030000D03*
%TD*%
%TO.C,D20*%
X53490000Y-68630000D03*
X53490000Y-72030000D03*
%TD*%
D23*
%TO.C,C3*%
X99434249Y-48193751D03*
X100777751Y-46850249D03*
%TD*%
D24*
%TO.C,U2*%
X151187500Y-28590000D03*
X151187500Y-29540000D03*
X151187500Y-30490000D03*
X148912500Y-30490000D03*
X148912500Y-29540000D03*
X148912500Y-28590000D03*
%TD*%
D21*
%TO.C,D3*%
X109690000Y-35030000D03*
X109690000Y-31630000D03*
%TD*%
D25*
%TO.C,SW1*%
X60860000Y-44520000D03*
X54560000Y-44520000D03*
X60860000Y-48320000D03*
X54560000Y-48320000D03*
%TD*%
D21*
%TO.C,D23*%
X110740000Y-68630000D03*
X110740000Y-72030000D03*
%TD*%
D26*
%TO.C,C1*%
X84411751Y-44128249D03*
X83068249Y-45471751D03*
%TD*%
D21*
%TO.C,D29*%
X224990000Y-68630000D03*
X224990000Y-72030000D03*
%TD*%
%TO.C,D22*%
X91740000Y-68630000D03*
X91740000Y-72030000D03*
%TD*%
D27*
%TO.C,R1*%
X145662500Y-31890000D03*
X143837500Y-31890000D03*
%TD*%
D21*
%TO.C,D24*%
X129690000Y-68660000D03*
X129690000Y-72060000D03*
%TD*%
%TO.C,D30*%
X69650000Y-68620000D03*
X69650000Y-72020000D03*
%TD*%
D28*
%TO.C,C5*%
X78140000Y-43530000D03*
X78140000Y-45430000D03*
%TD*%
D21*
%TO.C,D13*%
X109775000Y-50200000D03*
X109775000Y-53600000D03*
%TD*%
%TO.C,D28*%
X205990000Y-68630000D03*
X205990000Y-72030000D03*
%TD*%
D27*
%TO.C,R6*%
X93762500Y-56450000D03*
X91937500Y-56450000D03*
%TD*%
D29*
%TO.C,R3*%
X81697500Y-51630000D03*
X83522500Y-51630000D03*
%TD*%
D21*
%TO.C,D16*%
X166925000Y-50225000D03*
X166925000Y-53625000D03*
%TD*%
%TO.C,D18*%
X204990000Y-50030000D03*
X204990000Y-53430000D03*
%TD*%
%TO.C,D12*%
X107030000Y-50140000D03*
X107030000Y-53540000D03*
%TD*%
%TO.C,D2*%
X90690000Y-35030000D03*
X90690000Y-31630000D03*
%TD*%
%TO.C,D7*%
X185990000Y-35030000D03*
X185990000Y-31630000D03*
%TD*%
%TO.C,D35*%
X145820000Y-68590000D03*
X145820000Y-71990000D03*
%TD*%
D27*
%TO.C,R4*%
X147132500Y-27590000D03*
X145307500Y-27590000D03*
%TD*%
D21*
%TO.C,D15*%
X147825000Y-50225000D03*
X147825000Y-53625000D03*
%TD*%
D29*
%TO.C,R2*%
X143837500Y-33860000D03*
X145662500Y-33860000D03*
%TD*%
D21*
%TO.C,D8*%
X204990000Y-35030000D03*
X204990000Y-31630000D03*
%TD*%
%TO.C,D31*%
X88750000Y-68625000D03*
X88750000Y-72025000D03*
%TD*%
%TO.C,D39*%
X222100000Y-68650000D03*
X222100000Y-72050000D03*
%TD*%
D28*
%TO.C,C6*%
X76140000Y-43530000D03*
X76140000Y-45430000D03*
%TD*%
D21*
%TO.C,D38*%
X202990000Y-68630000D03*
X202990000Y-72030000D03*
%TD*%
%TO.C,D33*%
X126850000Y-68650000D03*
X126850000Y-72050000D03*
%TD*%
%TO.C,D19*%
X223990000Y-50030000D03*
X223990000Y-53430000D03*
%TD*%
%TO.C,D32*%
X107850000Y-68625000D03*
X107850000Y-72025000D03*
%TD*%
%TO.C,D26*%
X167990000Y-68630000D03*
X167990000Y-72030000D03*
%TD*%
%TO.C,D21*%
X72490000Y-68630000D03*
X72490000Y-72030000D03*
%TD*%
%TO.C,D14*%
X128990000Y-50200000D03*
X128990000Y-53600000D03*
%TD*%
%TO.C,D4*%
X128990000Y-35030000D03*
X128990000Y-31630000D03*
%TD*%
%TO.C,D5*%
X147970000Y-37160000D03*
X147970000Y-33760000D03*
%TD*%
%TO.C,D0*%
X68990000Y-44030000D03*
X68990000Y-40630000D03*
%TD*%
%TO.C,D17*%
X185990000Y-50230000D03*
X185990000Y-53630000D03*
%TD*%
D28*
%TO.C,C4*%
X80200000Y-43530000D03*
X80200000Y-45430000D03*
%TD*%
D30*
%TO.C,U1*%
X90905305Y-42764897D03*
X91470990Y-43330583D03*
X92036676Y-43896268D03*
X92602361Y-44461953D03*
X93168047Y-45027639D03*
X93733732Y-45593324D03*
X94299417Y-46159010D03*
X94865103Y-46724695D03*
D31*
X94865103Y-48775305D03*
X94299417Y-49340990D03*
X93733732Y-49906676D03*
X93168047Y-50472361D03*
X92602361Y-51038047D03*
X92036676Y-51603732D03*
X91470990Y-52169417D03*
X90905305Y-52735103D03*
D30*
X88854695Y-52735103D03*
X88289010Y-52169417D03*
X87723324Y-51603732D03*
X87157639Y-51038047D03*
X86591953Y-50472361D03*
X86026268Y-49906676D03*
X85460583Y-49340990D03*
X84894897Y-48775305D03*
D31*
X84894897Y-46724695D03*
X85460583Y-46159010D03*
X86026268Y-45593324D03*
X86591953Y-45027639D03*
X87157639Y-44461953D03*
X87723324Y-43896268D03*
X88289010Y-43330583D03*
X88854695Y-42764897D03*
%TD*%
D32*
%TO.C,JP1*%
X74725000Y-48939000D03*
D33*
X74735000Y-48949000D03*
X74735000Y-48949000D03*
D32*
X76725000Y-48939000D03*
D33*
X76735000Y-48949000D03*
X76735000Y-48949000D03*
X78735000Y-48949000D03*
X78735000Y-48949000D03*
D32*
X78735000Y-48959000D03*
%TD*%
D21*
%TO.C,D1*%
X71990000Y-37030000D03*
X71990000Y-33630000D03*
%TD*%
%TO.C,D6*%
X166890000Y-35030000D03*
X166890000Y-31630000D03*
%TD*%
D34*
%TO.C,F1*%
X140380000Y-27460000D03*
X137580000Y-27460000D03*
%TD*%
D21*
%TO.C,D25*%
X148800000Y-68630000D03*
X148800000Y-72030000D03*
%TD*%
D35*
%TO.C,Y1*%
X97643223Y-43857142D03*
X99198858Y-45412777D03*
X97996777Y-46614858D03*
X96441142Y-45059223D03*
%TD*%
D21*
%TO.C,D36*%
X165300000Y-68650000D03*
X165300000Y-72050000D03*
%TD*%
D27*
%TO.C,R5*%
X155862500Y-27080000D03*
X154037500Y-27080000D03*
%TD*%
D21*
%TO.C,D27*%
X186990000Y-68630000D03*
X186990000Y-72030000D03*
%TD*%
M02*
