0
SECTION
2
HEADER
9
$INSUNITS
70
4
9
$ACADVER
1
AC1014
9
$HANDSEED
5
FFFF
0
ENDSEC
0
SECTION
2
TABLES
0
TABLE
2
VPORT
5
8
100
AcDbSymbolTable
0
ENDTAB
0
TABLE
2
LTYPE
5
5
100
AcDbSymbolTable
0
LTYPE
5
14
100
AcDbSymbolTableRecord
100
AcDbLinetypeTableRecord
2
BYBLOCK
70
0
0
LTYPE
5
15
100
AcDbSymbolTableRecord
100
AcDbLinetypeTableRecord
2
BYLAYER
70
0
0
ENDTAB
0
TABLE
2
LAYER
5
2
100
AcDbSymbolTable
70
2
0
LAYER
5
50
100
AcDbSymbolTableRecord
100
AcDbLayerTableRecord
2
0
70
0
6
CONTINUOUS
0
ENDTAB
0
TABLE
2
STYLE
5
3
100
AcDbSymbolTable
70
1
0
STYLE
5
11
100
AcDbSymbolTableRecord
100
AcDbTextStyleTableRecord
2
STANDARD
70
0
0
ENDTAB
0
TABLE
2
VIEW
5
6
100
AcDbSymbolTable
70
0
0
ENDTAB
0
TABLE
2
UCS
5
7
100
AcDbSymbolTable
70
0
0
ENDTAB
0
TABLE
2
APPID
5
9
100
AcDbSymbolTable
70
2
0
APPID
5
12
100
AcDbSymbolTableRecord
100
AcDbRegAppTableRecord
2
ACAD
70
0
0
ENDTAB
0
TABLE
2
DIMSTYLE
5
A
100
AcDbSymbolTable
70
1
0
ENDTAB
0
TABLE
2
BLOCK_RECORD
5
1
100
AcDbSymbolTable
70
1
0
BLOCK_RECORD
5
1F
100
AcDbSymbolTableRecord
100
AcDbBlockTableRecord
2
*MODEL_SPACE
0
BLOCK_RECORD
5
1B
100
AcDbSymbolTableRecord
100
AcDbBlockTableRecord
2
*PAPER_SPACE
0
ENDTAB
0
ENDSEC
0
SECTION
2
BLOCKS
0
BLOCK
5
20
100
AcDbEntity
100
AcDbBlockBegin
2
*MODEL_SPACE
0
ENDBLK
5
21
100
AcDbEntity
100
AcDbBlockEnd
0
BLOCK
5
1C
100
AcDbEntity
100
AcDbBlockBegin
2
*PAPER_SPACE
0
ENDBLK
5
1D
100
AcDbEntity
100
AcDbBlockEnd
0
ENDSEC
0
SECTION
2
ENTITIES
0
LINE
5
100
100
AcDbEntity
8
0
100
AcDbLine
10
180.55000000000001
20
-66.660000000000025
30
0
11
-9.949999999999994
21
-66.660000000000025
31
0
0
LINE
5
101
100
AcDbEntity
8
0
100
AcDbLine
10
-9.9499999999999993
20
9.5399999999999991
30
0
11
180.55000000000001
21
9.5399999999999991
31
0
0
LINE
5
102
100
AcDbEntity
8
0
100
AcDbLine
10
180.55000000000001
20
9.5399999999999991
30
0
11
180.55000000000001
21
-66.660000000000025
31
0
0
LINE
5
103
100
AcDbEntity
8
0
100
AcDbLine
10
-9.949999999999994
20
-66.660000000000025
30
0
11
-9.9499999999999993
21
9.5399999999999991
31
0
0
LWPOLYLINE
5
104
100
AcDbEntity
8
0
100
AcDbPolyline
90
10
70
1
43
0.0
10
-16.949999999999999
20
-72.660000000000025
10
-16.949999999999999
20
9.5399999999999991
10
-16.950000000000003
20
19.540000119209289
10
187.55000000000001
20
19.540000119209289
10
187.55000000000001
20
18.540000119209282
10
187.55000000000001
20
-72.660000000000025
10
187.55000000000001
20
-73.660000000000025
10
186.55000000000001
20
-73.660000000000025
10
-15.950000000000006
20
-73.660000000000025
10
-16.949999999999999
20
-73.660000000000025
0
LINE
5
105
100
AcDbEntity
8
0
100
AcDbLine
10
186.05000034533444
20
-72.160000871717926
30
0
11
186.05000034533444
21
18.540000119209289
31
0
0
LINE
5
106
100
AcDbEntity
8
0
100
AcDbLine
10
180.55000000000001
20
-66.660000000000025
30
0
11
186.05000034533444
21
-72.160000871717926
31
0
0
CIRCLE
5
107
100
AcDbEntity
8
0
100
AcDbCircle
10
183.30000017266718
20
-69.410000435858976
30
0
40
1.4000000000000052
210
0
220
0
230
1
0
LINE
5
108
100
AcDbEntity
8
0
100
AcDbLine
10
180.55000000000001
20
9.5399999999999991
30
0
11
186.05000034533444
21
18.540000119209289
31
0
0
CIRCLE
5
109
100
AcDbEntity
8
0
100
AcDbCircle
10
85.300000172667211
20
-69.410000435858976
30
0
40
1.4000000000000057
210
0
220
0
230
1
0
LINE
5
110
100
AcDbEntity
8
0
100
AcDbLine
10
85.299999999999997
20
-73.660000000000025
30
0
11
85.299999999999997
21
-66.660000000000025
31
0
0
CIRCLE
5
111
100
AcDbEntity
8
0
100
AcDbCircle
10
-12.70000017266721
20
-69.410000435858976
30
0
40
1.4000000000000052
210
0
220
0
230
1
0
LINE
5
112
100
AcDbEntity
8
0
100
AcDbLine
10
85.300000000000011
20
19.540000119209289
30
0
11
85.300000000000011
21
9.5399999999999991
31
0
0
LINE
5
113
100
AcDbEntity
8
0
100
AcDbLine
10
85.300000000000011
20
19.540000119209289
30
0
11
105.30000000000001
21
19.540000119209289
31
0
0
LINE
5
114
100
AcDbEntity
8
0
100
AcDbLine
10
105.30000000000001
20
19.540000119209289
30
0
11
105.30000000000001
21
9.5399999999999991
31
0
0
LINE
5
115
100
AcDbEntity
8
0
100
AcDbLine
10
85.299999999999997
20
18.540000000000031
30
0
11
85.299999999999997
21
-72.160000000000025
31
0
0
LWPOLYLINE
5
116
100
AcDbEntity
8
0
100
AcDbPolyline
90
5
70
1
43
0.0
10
186.25000034533443
20
18.740000119209288
10
-15.650000000896506
20
18.740000119209288
10
-15.649999654665589
20
-58.50000087171793
10
-15.649999654665585
20
-72.360000871717915
10
186.25000034533443
20
-72.360000871717915
0
CIRCLE
5
117
100
AcDbEntity
8
0
100
AcDbCircle
10
183.30000017266718
20
-69.410000435858976
30
0
40
1.6000000000000014
210
0
220
0
230
1
0
CIRCLE
5
118
100
AcDbEntity
8
0
100
AcDbCircle
10
85.300000172667211
20
-69.410000435858976
30
0
40
1.5999999999999943
210
0
220
0
230
1
0
CIRCLE
5
119
100
AcDbEntity
8
0
100
AcDbCircle
10
183.30000017266718
20
-69.410000435858976
30
0
40
2.0000000000000018
210
0
220
0
230
1
0
CIRCLE
5
120
100
AcDbEntity
8
0
100
AcDbCircle
10
85.300000172667211
20
-69.410000435858976
30
0
40
1.9999999999999984
210
0
220
0
230
1
0
CIRCLE
5
121
100
AcDbEntity
8
0
100
AcDbCircle
10
-12.700000172667174
20
-69.41000043585899
30
0
40
1.6000000000000014
210
0
220
0
230
1
0
CIRCLE
5
122
100
AcDbEntity
8
0
100
AcDbCircle
10
-12.700000172667174
20
-69.41000043585899
30
0
40
2.0000000000000018
210
0
220
0
230
1
0
LINE
5
123
100
AcDbEntity
8
0
100
AcDbLine
10
180.55000000000001
20
9.5399999999999991
30
0
11
182.21864009044305
21
12.270501830903306
31
0
0
CIRCLE
5
124
100
AcDbEntity
8
0
100
AcDbCircle
10
182.21864009044305
20
12.270501830903306
30
0
40
2.5999999999999899
210
0
220
0
230
1
0
CIRCLE
5
125
100
AcDbEntity
8
0
100
AcDbCircle
10
182.21864009044305
20
12.270501830903306
30
0
40
1.6000000000000048
210
0
220
0
230
1
0
CIRCLE
5
126
100
AcDbEntity
8
0
100
AcDbCircle
10
182.21864009044305
20
12.270501830903306
30
0
40
1.399999999999999
210
0
220
0
230
1
0
CIRCLE
5
127
100
AcDbEntity
8
0
100
AcDbCircle
10
-11.618640090443009
20
12.270501830903306
30
0
40
2.5999999999999899
210
0
220
0
230
1
0
CIRCLE
5
128
100
AcDbEntity
8
0
100
AcDbCircle
10
-11.618640090443009
20
12.270501830903306
30
0
40
1.6000000000000048
210
0
220
0
230
1
0
CIRCLE
5
129
100
AcDbEntity
8
0
100
AcDbCircle
10
-11.618640090443009
20
12.270501830903306
30
0
40
1.399999999999999
210
0
220
0
230
1
0
ENDSEC
0
SECTION
2
OBJECTS
0
DICTIONARY
5
C
100
AcDbDictionary
3
ACAD_GROUP
350
D
3
ACAD_MLINESTYLE
350
17
0
DICTIONARY
5
D
100
AcDbDictionary
0
DICTIONARY
5
1A
330
C
100
AcDbDictionary
0
DICTIONARY
5
17
100
AcDbDictionary
0
ENDSEC
0
EOF
